<?xml version="1.0" encoding="utf-8"?>
<!-- Generator: Adobe Illustrator 23.0.6, SVG Export Plug-In . SVG Version: 6.00 Build 0)  -->
<svg version="1.1" id="Hlutir_x5F_uti" xmlns="http://www.w3.org/2000/svg" xmlns:xlink="http://www.w3.org/1999/xlink" x="0px"
	 y="0px" viewBox="0 0 3908.2 1080" style="enable-background:new 0 0 3908.2 1080;" xml:space="preserve">
<style type="text/css">
	.hopp0{fill:none;stroke:#D7797D;stroke-width:4.6894;stroke-linecap:round;stroke-linejoin:round;stroke-miterlimit:10;}
	.hopp1{fill:#D7797D;}
	.hopp2{fill:#4C85A8;}
	.hopp3{fill:none;stroke:#8DBBB7;stroke-width:9.3787;stroke-linecap:round;stroke-linejoin:round;stroke-miterlimit:10;}
	.hopp4{fill:none;stroke:#D7797D;stroke-width:2.3447;stroke-miterlimit:10;}
	.hopp5{fill:none;stroke:#D7797D;stroke-width:7.8156;stroke-linecap:round;stroke-linejoin:round;stroke-miterlimit:10;}
	.hopp6{fill:#8DBBB7;}
	.hopp7{opacity:0.3;fill:#EEC15A;}
</style>
<g>
	<polyline class="hopp0" points="2897.6,909.3 2890.5,926.3 2897.6,926.3 	"/>
	<g>
		<g>
			<g>
				<path class="hopp1" d="M2974.1,902.2c-8,0-14.5,6.5-14.5,14.5s6.5,14.5,14.5,14.5s14.5-6.5,14.5-14.5
					C2988.5,908.7,2982,902.2,2974.1,902.2L2974.1,902.2z M2974.1,926.3c-5.3,0-9.6-4.3-9.6-9.6s4.3-9.6,9.6-9.6s9.6,4.3,9.6,9.6
					C2983.7,922,2979.4,926.3,2974.1,926.3L2974.1,926.3z"/>
			</g>
		</g>
		<path class="hopp2" d="M2896.5,901.5c-0.1-0.2-0.1-0.3-0.2-0.5l-22.9-35.1c-1-1.6-2.7,4.8-4.4,5.9c-1.6,1-2.1,3.2-1.1,4.8l20.4,32.7
			h-3.2c-0.4,0-0.7,0.3-0.7,0.7v3.8c0,0.4,0.3,0.7,0.7,0.7h89v-13L2896.5,901.5L2896.5,901.5z"/>
		<line class="hopp3" x1="2867.9" y1="902.3" x2="2878.7" y2="799.4"/>
		<circle class="hopp1" cx="2974.1" cy="916.4" r="3"/>
		<line class="hopp4" x1="2983.7" y1="926" x2="2964.5" y2="906.8"/>
		<line class="hopp4" x1="2983.7" y1="906.8" x2="2964.5" y2="926"/>
		<circle class="hopp1" cx="2866.4" cy="916.4" r="3"/>
		<line class="hopp4" x1="2876" y1="926" x2="2856.8" y2="906.8"/>
		<line class="hopp4" x1="2876" y1="906.8" x2="2856.8" y2="926"/>
		<g>
			<g>
				<path class="hopp1" d="M2866.4,902.2c-8,0-14.5,6.5-14.5,14.5s6.5,14.5,14.5,14.5s14.5-6.5,14.5-14.5S2874.4,902.2,2866.4,902.2
					L2866.4,902.2z M2866.4,926.3c-5.3,0-9.6-4.3-9.6-9.6s4.3-9.6,9.6-9.6s9.6,4.3,9.6,9.6S2871.7,926.3,2866.4,926.3L2866.4,926.3z
					"/>
			</g>
		</g>
		<path class="hopp0" d="M2880,799.4c4.1,10.7,19.7,4.9,19.7,4.9"/>
		<line class="hopp5" x1="2861.7" y1="804.3" x2="2898.3" y2="791.7"/>
		<path class="hopp6" d="M2993.2,916.6c0-10.6-8.6-21.1-19.1-21.1s-19.1,10.6-19.1,21.1"/>
		<g>
			<path class="hopp1" d="M2982.7,911.7h-5.4c0-1.8-1.4-3.2-3.2-3.2s-3.2,1.4-3.2,3.2h-5.4c0-4.8,3.9-8.6,8.6-8.6
				C2978.8,903.1,2982.7,906.9,2982.7,911.7z"/>
		</g>
	</g>
</g>
<circle id="gluggi-st32_1_" class="hopp7" cx="2876.9" cy="804.9" r="24.9"/>
<circle class="hopp7" cx="2876.9" cy="804.9" r="14"/>
<circle id="gluggi-st32_2_" class="hopp7" cx="2904.9" cy="909.3" r="21.2"/>
<circle class="hopp7" cx="2904.9" cy="909.3" r="11.9"/>
</svg>
