<?xml version="1.0" encoding="utf-8"?>
<!-- Generator: Adobe Illustrator 19.2.0, SVG Export Plug-In . SVG Version: 6.00 Build 0)  -->
<svg version="1.1" id="Layer_1" xmlns="http://www.w3.org/2000/svg" xmlns:xlink="http://www.w3.org/1999/xlink" x="0px" y="0px"
	 viewBox="0 0 136.5 152.6" style="enable-background:new 0 0 136.5 152.6;" xml:space="preserve">
	 <defs>
        <path id="lowerhalf" d="M46.6,0.3c10.2,10.4,16.5,24.7,16.5,40.5c0,32-26,58-58,58c-1.6,0-3.1-0.1-4.6-0.2
	C11,109.4,25.7,116.1,42,116.1c32,0,58-26,58-58C100,27.7,76.5,2.7,46.6,0.3z" />
    </defs>
<style type="text/css">
	.moon0{fill:#FCEE21;}
	.tolur{fill:#FCEE21;font-size: 32px}
</style>
<path class="moon0" d="M46.6,0.3c10.2,10.4,16.5,24.7,16.5,40.5c0,32-26,58-58,58c-1.6,0-3.1-0.1-4.6-0.2
	C11,109.4,25.7,116.1,42,116.1c32,0,58-26,58-58C100,27.7,76.5,2.7,46.6,0.3z"/>
    <text class="tolur" x="75" y="55" 
          text-anchor="middle">
        <textPath xlink:href="#lowerhalf" startOffset="50%">546:43:9</textPath>
    </text>
</svg>
