<?xml version="1.0" encoding="utf-8"?>
<!-- Generator: Adobe Illustrator 23.0.6, SVG Export Plug-In . SVG Version: 6.00 Build 0)  -->
<svg version="1.1" id="husarod" xmlns="http://www.w3.org/2000/svg" xmlns:xlink="http://www.w3.org/1999/xlink" x="0px" y="0px"
	 viewBox="0 0 3908.2 1080" style="enable-background:new 0 0 3908.2 1080;" xml:space="preserve">
<style type="text/css">
	.st0{fill:#F37A7E;}
	.st1{fill:#FFBEBE;}
	.st2{fill:#76BDB9;}
	.st3{fill:#0087ac;}
	.st4{fill:#ffc351;}
	.st5{fill:#f03767;}
	.st6{fill:#006830;}
	.st7{fill:#00b570;}
	.st8{fill:#1868c7;}
	.st9{fill:#3F68C4;}
	.st10{fill:#0071BC;}
	.st11{fill:#B3B3B3;}
	.st12{fill:#006837;}
	.st13{fill:#22B573;}
	.st14{fill:#666666;}
	.st15{fill:#F7931E;}
	.st16{fill:#F15A24;}
	.st17{fill:#D4145A;}
	.st18{fill:#2E3192;}
	.st19{fill:#9E005D;}
	.st20{fill:#A67C52;}
	.st21{fill:#754C24;}
	.st22{fill:#00A99D;}
	.st23{fill:#C1272D;}
	.st24{fill:#ED1E79;}
	.st25{fill:#39B54A;}
	.st27{display:inline;opacity:0.6;}
	.st28{opacity:0.8;fill:none;stroke:#000000;stroke-miterlimit:10;}
	.st29{display:inline;opacity:0.72;}
	.st30{fill:#C69C6D;}
	.st31{fill:url(#SVGID_1_);}
	.st32{fill:url(#SVGID_2_);}
	.st33{display:inline;opacity:0.8;fill:none;stroke:#000000;stroke-miterlimit:10;}
	.st34{display:inline;opacity:0.7;fill:#FCEE21;}
	.st35{display:inline;fill:#999999;}
	.st36{display:inline;fill:#FBAE17;}
	.st37{opacity:0.8;fill:#E6E6E6;}
	.st38{fill:#C7B299;}
	.st39{fill:#603813;stroke:#C69C6D;stroke-miterlimit:10;}
	.st40{display:inline;fill:#E6E6E6;}
	.st41{display:inline;fill:#9E005D;}
	.st42{display:inline;fill:#0071BC;}
	.st43{display:inline;fill:none;stroke:#ED1C24;stroke-miterlimit:10;}
	.st44{fill:#603813;}
	.st45{fill:none;stroke:#006837;stroke-width:2;stroke-linecap:round;stroke-miterlimit:10;stroke-dasharray:1.017,6.1021;}
	.st46{display:inline;fill:#FFFF00;}
	.st47{fill:#FF00FF;}
	.st48{fill:#FF0000;}
	.st49{fill:#4D4D4D;}
	.st50{fill:#00FF00;}
	.st51{fill:none;}
	.st52{display:inline;fill:none;stroke:#006837;stroke-miterlimit:10;}
	.st53{display:inline;fill:#C69C6D;}
	.st54{display:inline;fill:none;stroke:#F2F2F2;stroke-miterlimit:10;}
	.st55{display:inline;fill:#4D4D4D;}
</style>
<g>
	<polygon class="st0" points="0,528.4 0,426.3 36.6,426.5 50.2,528.4 	"/>
	<rect x="0" y="528.4" class="st1" width="50.1" height="369.4"/>
	<polygon class="st2" points="129.6,826.5 50.1,897.8 50.1,528.4 129.6,504.1 	"/>
	<polygon class="st3" points="36.7,426.6 129.8,504 50.3,528.2 	"/>
	<polygon class="st4" points="469.1,921 91.1,921 91.1,688.1 170.3,645.3 469.1,645.3 	"/>
	<polygon class="st2" points="490,493.8 468.7,688.1 580.1,643.2 	"/>
	<polygon class="st1" points="468.7,688 91.2,688 169.3,493.8 490,493.8 	"/>
	<polygon class="st3" points="468.9,687.9 468.6,920.9 610.2,841.1 610.2,628.7 	"/>
	<rect x="567.9" y="539.8" class="st0" width="283.7" height="355.1"/>
	<polygon class="st3" points="985.5,832.8 851.7,894.9 851.7,539.8 985.5,500.2 	"/>
	<polygon class="st1" points="567.9,539.8 759,343 851.7,539.8 	"/>
	<polygon class="st0" points="961,534.1 1123.7,366.5 1334.1,364.2 1358.8,534.9 	"/>
	<polygon class="st2" points="985.5,500.1 759,343 851.7,539.8 	"/>
	<polygon class="st2" points="1358.8,534.9 1454.4,513.7 1454.4,851 1358.8,903.4 	"/>
	<polygon class="st3" points="1334.1,364.2 1358.8,534.9 1454.4,513.8 	"/>
	<polygon class="st1" points="1451,539.8 1525,438.7 1608.8,437.5 1622.4,539.8 	"/>
	<rect x="1451" y="539.5" class="st0" width="171.3" height="352.5"/>
	<polygon class="st3" points="1701.8,824.1 1622.3,892.1 1622.3,539.5 1701.8,516.4 	"/>
	<polygon class="st1" points="961,534.1 962.7,902.4 1003.4,902.5 1094.6,855.8 1094.6,902.7 1358.8,903.4 1358.8,534.9 	"/>
	<path class="st2" d="M1049,746.6L1049,746.6c-25.2,0-45.6,20.4-45.6,45.6v110.1l91.2-46.5v46.9l0.1-5V787.2
		C1094.6,767,1074.2,746.6,1049,746.6z"/>
	<polyline class="st3" points="590,894.8 590,742.4 681.2,742.4 681.2,894.7 	"/>
	<polygon class="st2" points="233.8,578.4 269.4,578.1 233.8,670 	"/>
	<polygon class="st2" points="409.3,578.4 444.9,578.1 409.3,670 	"/>
	<polygon class="st2" points="1608.9,437.2 1702.1,516.6 1622.3,539.5 	"/>
	<polygon class="st5" points="1962.3,635.9 1897.1,674.6 1897.1,519.5 1962.3,480.8 	"/>
	<polygon class="st3" points="1896.8,674.7 1896.8,893.9 2015.9,803 2016.1,604 	"/>
	<polygon class="st4" points="1896.8,521.3 1896.8,520.4 1692.7,520.4 1692.7,893.7 1896.8,893.7 1896.8,720.9 2013.7,720.9 
		2013.7,894.9 2229.7,894.9 2229.7,521.3 	"/>
	<polygon class="st3" points="2229.7,521.3 2307.7,480.9 2307.7,817.4 2229.7,894.9 	"/>
	<polygon class="st2" points="2129.7,368.8 2308,481 2229.7,521.3 	"/>
	<polygon class="st2" points="1802.7,401.5 1961,480.9 1896.8,521.3 	"/>
	<polygon class="st1" points="1896.7,521.4 2041.6,368.8 2130.1,368.8 2229.7,521.3 	"/>
	<polygon class="st1" points="1692.5,520.4 1802.7,401.5 1896.8,521.3 	"/>
	<polygon class="st3" points="2536.9,828.7 2484.8,892.1 2484.8,693.3 2538.5,654.7 	"/>
	<rect x="2297.9" y="693.3" class="st0" width="186.8" height="198.8"/>
	<polygon class="st1" points="2297.7,693.3 2356.3,533.2 2505.3,533.5 2484.8,693.3 	"/>
	<polygon class="st2" points="2505.3,533.6 2538.5,654.8 2484.7,693.3 	"/>
	<polygon class="st1" points="2815.8,894.9 2532,894.6 2532,539.8 2815.8,539.8 	"/>
	<polygon class="st2" points="2949.6,786.6 2815.8,894.9 2815.8,539.8 2949.6,477.7 	"/>
	<polygon class="st0" points="2532,539.8 2723.1,343 2815.8,539.8 	"/>
	<polygon class="st3" points="2949.6,477.6 2723.1,343 2815.8,539.8 	"/>
	<rect x="3638.5" y="775.5" class="st6" width="51.3" height="122.6"/>
	<polygon class="st7" points="3489.7,846.9 3664.2,672.4 3838.8,846.9 	"/>
	<polygon class="st8" points="3509.7,760.6 3664.2,606.2 3818.7,760.6 	"/>
	<polygon class="st7" points="3543.1,677.2 3664.2,556 3785.4,677.1 	"/>
	<g>
		<polygon class="st4" points="2684.2,843.5 2777.8,843.5 2777.8,901.8 2760.1,914.6 2757.5,915 2665.5,913.8 2665.2,889.5 
			2674.1,877.6 2673.1,854.8 		"/>
		<g>
			<polygon class="st0" points="2766.3,854.9 2674.8,853.9 2685.3,843.5 2775.8,843.5 			"/>
			<polygon class="st0" points="2757.1,891 2666.6,889.5 2676.1,878.1 2766.6,879.6 			"/>
			<polygon class="st0" points="2766.1,877 2675.6,875.5 2674,856.3 2765.6,857.3 			"/>
			<polygon class="st0" points="2757.5,913.3 2667,911.8 2666.5,892.2 2757,893.7 			"/>
			<polygon class="st0" points="2759.6,913.1 2758.9,892.8 2768.1,880.7 2768.1,855.4 2776.8,844.6 2776.8,900.3 			"/>
		</g>
	</g>
	<path class="st2" d="M2685.4,843.5v-94.2c0-25.2,20.4-45.6,45.6-45.6h0c25.2,0,45.6,20.4,45.6,45.6v94.7"/>
	<g>
		
			<ellipse transform="matrix(0.8081 -0.589 0.589 0.8081 390.0561 2260.3333)" class="st9" cx="3664.2" cy="531.5" rx="49.6" ry="49.6"/>
	</g>
	<polygon class="st2" points="2431.4,578.4 2467,578.1 2431.4,670 	"/>
	<rect x="2904" y="672.5" class="st0" width="467.9" height="231.8"/>
	<polygon class="st1" points="3372.5,672.5 2904,672.5 2996,477.3 3392.8,477.3 	"/>
	<polygon class="st3" points="3371.9,672.6 3371.9,904.4 3482.8,824.6 3482.8,627.1 	"/>
	<polygon class="st2" points="3392.8,477.3 3372,672.6 3482.9,627.1 	"/>
</g>
<g class="ovirkur_gluggi_group">
	<g>
		<rect id="dagur4" x="325" y="744.4" class="st26 gluggi" width="84.3" height="91.5"/>
	</g>
	<g>
		<rect id="dagur6" x="729" y="744.4" class="st26 gluggi" width="84.3" height="91.5"/>
	</g>
	<g>
		<rect id="dagur5" x="729" y="578.4" class="st26 gluggi" width="84.3" height="91.5"/>
	</g>
	<g>
		<rect id="dagur2" x="149.5" y="744.4" class="st26 gluggi" width="84.3" height="91.5"/>
	</g>
	<g>
		<rect id="dagur1" x="149.5" y="578.4" class="st26 gluggi" width="84.3" height="91.5"/>
	</g>
	<g>
		<rect id="dagur9" x="1222.5" y="744.4" class="st26 gluggi" width="84.3" height="91.5"/>
	</g>
	<g>
		<rect id="dagur11" x="1490.8" y="744.4" class="st26 gluggi" width="84.3" height="91.5"/>
	</g>
	<g>
		<rect id="dagur7" x="1009" y="578.4" class="st26 gluggi" width="84.3" height="91.5"/>
	</g>
	<g>
		<rect id="dagur8" x="1222.5" y="578.4" class="st26 gluggi" width="84.3" height="91.5"/>
	</g>
	<g>
		<rect id="dagur10" x="1490.8" y="578.4" class="st26 gluggi" width="84.3" height="91.5"/>
	</g>
	<g>
		<rect id="dagur13" x="1739.8" y="744.4" class="st26 gluggi" width="84.3" height="91.5"/>
	</g>
	<g>
		<rect id="dagur16" x="2085.7" y="744.4" class="st26 gluggi" width="84.3" height="91.5"/>
	</g>
	<g>
		<rect id="dagur18" x="2347" y="744.4" class="st26 gluggi" width="84.3" height="91.5"/>
	</g>
	<g>
		<rect id="dagur20" x="2562.2" y="744.4" class="st26 gluggi" width="84.3" height="91.5"/>
	</g>
	<g>
		<rect id="dagur12" x="1739.8" y="578.4" class="st26 gluggi" width="84.3" height="91.5"/>
	</g>
	<g>
		<rect id="dagur14" x="1915" y="578.4" class="st26 gluggi" width="84.3" height="91.5"/>
	</g>
	<g>
		<rect id="dagur15" x="2085.7" y="578.4" class="st26 gluggi" width="84.3" height="91.5"/>
	</g>
	<g>
		<rect id="dagur17" x="2347" y="578.4" class="st26 gluggi" width="84.3" height="91.5"/>
	</g>
	<g>
		<rect id="dagur19" x="2562.2" y="578.4" class="st26 gluggi" width="84.3" height="91.5"/>
	</g>
	<g>
		<rect id="dagur21" x="2951.3" y="744.4" class="st26 gluggi" width="84.3" height="91.5"/>
	</g>
	<g>
		<rect id="dagur22" x="3093.9" y="744.4" class="st26 gluggi" width="84.3" height="91.5"/>
	</g>
	<g>
		<rect id="dagur23" x="3236.6" y="744.4" class="st26 gluggi" width="84.3" height="91.5"/>
	</g>
	<g>
		<rect id="dagur3" x="325" y="578.4" class="st26 gluggi" width="84.3" height="91.5"/>

	</g>
</g>
<g id="Tölur">
	<g>
		<path class="tala" d="M1060.9,603.9c1.6-0.1,2.7-0.1,3.2-0.1c0.3,0,0.8,0.1,0.9,0.3s-0.1,0.5-0.2,0.7c-0.7,0.9-3,4.7-5.3,9.6
			c-5,10.5-10.1,21.1-15.1,31.5c-0.2,0.4-0.4,0.8-0.7,0.8c-0.5,0-0.9-0.4-0.9-0.9c0-0.5,0.5-1.5,1.1-2.8
			c5.5-10.9,10.9-21.9,15.5-31.3c0.1-0.2-0.1-0.4-0.3-0.4c-0.9-0.1-3.4-0.2-10-0.2c-4.9,0-5.5,0-7.1,0.1c-2.4,0.2-2.6,0.4-3.5,1.6
			c-0.3,0.5-0.7,0.9-1.1,0.9c-0.3,0-0.5-0.5,0.1-1.5c0.4-0.8,2-4.5,2.5-7.3c0.1-0.6,0.2-1.2,0.3-1.4c0.1-0.2,0.5-0.1,0.9,0
			c1.1,0.3,3.7,0.4,9.1,0.4C1057.5,604,1060.2,603.9,1060.9,603.9z"/>
	</g>
	<g>
		<path class="tala" d="M1275.9,611.6c0,2.7-1.4,4.7-3.2,6.1c-1.3,1-2.4,1.7-3.7,2.5c-0.1,0.1-0.1,0.2,0.1,0.3
			c3.1,2.5,7.5,5.9,7.5,11.8c0,4.4-2.2,7.4-4.8,9.3c-2.2,1.7-5.1,2.6-7.5,2.6c-6.9,0-11.9-4.1-11.9-10.1c0-3.2,1.6-5.3,4.3-7.4
			c0.9-0.7,1.9-1.2,3-2c0.2-0.1,0.2-0.3,0.1-0.4c-2.7-2.5-7-6.1-7-11.3c0-4.3,2-6.9,4.9-8.8c2-1.3,4.4-2.1,6.9-2.1
			C1271.6,602.3,1275.9,606.3,1275.9,611.6z M1268.3,642.3c1.3-1,2.2-2.6,2.2-5.3c0-4.3-4.5-8.2-9.2-11.5c-0.2-0.1-0.5-0.1-0.6,0.1
			c-2.2,1.6-3,4.2-3,7.8c0,5.1,3.7,10,7.4,10C1266.4,643.3,1267.4,643,1268.3,642.3z M1259,609.7c0,3.2,4,6.8,8.8,10
			c0.2,0.1,0.3,0,0.3-0.1c1.1-1.2,2.4-3.6,2.4-7.6c0-2.6-1.9-8.6-6.6-8.6C1261.1,603.3,1259,606.4,1259,609.7z"/>
	</g>
	<g>
		<path class="tala" d="M1509.8,605.3c3.3-0.4,7.2-0.8,9.3-1.7c0.5-0.2,1.1-0.5,1.4-0.5c0.1,0,0.3,0.1,0.3,0.5
			c0,0.9-0.1,7.4-0.2,11.9c-0.1,5.7,0,19.2,0.2,22c0.3,4.2,0.7,4.6,3.2,5c0.8,0.1,1.1,0.4,1.1,0.7s-0.4,0.5-1.3,0.5
			c-3.8,0-6.2-0.3-8.4-0.3c-3.6,0-4.9,0.3-7.4,0.3c-0.6,0-1.1-0.1-1.1-0.5c0-0.3,0.3-0.4,1.1-0.5c3-0.5,3.8-1.4,3.8-5.1
			c0.2-1.9,0.3-5.5,0.3-17.1c0-8.2,0-10.5-0.1-12.2c-0.1-0.7-0.3-1.1-1-1.5c-0.4-0.2-0.7-0.3-1.3-0.4c-0.3-0.1-1-0.3-1-0.5
			S1509.2,605.4,1509.8,605.3z"/>
		<path class="tala" d="M1558.6,623.2c0,11.7-3.5,17.4-7,19.6c-1.6,1-3.6,1.5-5.6,1.5c-9.5,0-12.8-12.2-12.8-19.8
			c0-10.7,2.9-17.1,8.3-20.1c1.5-0.8,3-1.1,4.6-1.1C1555.7,603.2,1558.6,615.5,1558.6,623.2z M1543.8,605.9c-0.9,2.4-2.2,7-2.2,16.1
			c0,11.2,1.2,21.4,4.9,21.4c0.9,0,1.7-0.4,2.5-3.3c0.7-2.6,1.5-8.6,1.5-15.3c0-10.3-1.6-20.6-4.7-20.6
			C1545.1,604.2,1544.2,604.8,1543.8,605.9z"/>
	</g>
	<g>
		<path class="tala" d="M1759.3,605.3c3.3-0.4,7.2-0.8,9.3-1.7c0.5-0.2,1.1-0.5,1.4-0.5c0.1,0,0.3,0.1,0.3,0.5
			c0,0.9-0.1,7.4-0.2,11.9c-0.1,5.7,0,19.2,0.2,22c0.3,4.2,0.7,4.6,3.2,5c0.8,0.1,1.1,0.4,1.1,0.7s-0.4,0.5-1.3,0.5
			c-3.8,0-6.2-0.3-8.4-0.3c-3.6,0-4.9,0.3-7.4,0.3c-0.6,0-1.1-0.1-1.1-0.5c0-0.3,0.3-0.4,1.1-0.5c3-0.5,3.8-1.4,3.8-5.1
			c0.2-1.9,0.3-5.5,0.3-17.1c0-8.2,0-10.5-0.1-12.2c-0.1-0.7-0.3-1.1-1-1.5c-0.4-0.2-0.7-0.3-1.3-0.4c-0.3-0.1-1-0.3-1-0.5
			S1758.7,605.4,1759.3,605.3z"/>
		<path class="tala" d="M1804.5,613.3c0,3.4-1.1,7.1-4.9,11.7c-4.5,5.3-6.1,6.7-10.1,10.9c-0.2,0.1-0.2,0.5,0.3,0.6
			c1.6,0.3,6.1,0.3,9.6,0.3c3.1,0,4.6-0.2,5.6-0.3c1.1-0.1,1.8-0.7,2.8-1.8c0.5-0.9,0.8-0.9,0.9-0.9c0.3,0,0.3,0.9-0.1,1.6
			c-0.5,1.1-2.2,7.3-2.3,7.8c-0.1,0.6-1.4,0.6-1.8,0.6c-2.2,0-10.6-0.3-13.5-0.3c-0.9,0-6,0-6.4,0c-1.8,0-2.6-0.1-2.8-0.4
			c-0.3-0.3,0.2-0.8,0.6-1.4c3-3.1,5.8-5.7,9.5-10.7c3.4-4.8,5.1-8.6,5.1-14.3c0-3.8-2.2-8.3-6.8-8.3c-2.5,0-4.8,0.8-6.8,3.1
			c-0.5,0.5-0.8,0.9-1.1,0.9c-0.4,0-0.2-0.7,0.1-1.4c1.1-2.2,2.9-4.1,4.3-5.2c1.8-1.4,4.6-2.6,7.4-2.6
			C1800.8,603.2,1804.5,608.4,1804.5,613.3z"/>
	</g>
	<g>
		<path class="tala" d="M1934.6,605.3c3.3-0.4,7.2-0.8,9.3-1.7c0.5-0.2,1.1-0.5,1.4-0.5c0.1,0,0.3,0.1,0.3,0.5
			c0,0.9-0.1,7.4-0.2,11.9c-0.1,5.7,0,19.2,0.2,22c0.3,4.2,0.7,4.6,3.2,5c0.8,0.1,1.1,0.4,1.1,0.7s-0.4,0.5-1.3,0.5
			c-3.8,0-6.2-0.3-8.4-0.3c-3.6,0-4.9,0.3-7.4,0.3c-0.6,0-1.1-0.1-1.1-0.5c0-0.3,0.3-0.4,1.1-0.5c3-0.5,3.8-1.4,3.8-5.1
			c0.2-1.9,0.3-5.5,0.3-17.1c0-8.2,0-10.5-0.1-12.2c-0.1-0.7-0.3-1.1-1-1.5c-0.4-0.2-0.7-0.3-1.3-0.4c-0.3-0.1-1-0.3-1-0.5
			S1934,605.4,1934.6,605.3z"/>
		<path class="tala" d="M1979.6,629.3c0,0.2,0.1,0.4,0.3,0.4c0.6,0,4.3-0.1,5.1-0.2c0,0,0.2,0.2,0.2,0.5s-0.1,1.6-0.6,2l-4.7,0.1
			c-0.1,0-0.3,0.2-0.3,0.5c0,1.8,0,3.8,0.1,5.6c0.1,3.6,0.3,4.1,2.8,4.4c0.5,0.1,1.1,0.3,1.1,0.7c0,0.1-0.2,0.5-1.1,0.5
			c-1.7,0.1-5.5-0.2-7.2-0.2c-2.9,0-5.1,0.3-7,0.3c-0.5,0-1.1-0.3-1.1-0.5c0-0.3,0.4-0.5,1.1-0.7c2.4-0.5,2.8-0.9,3-4.9
			c0.1-1.6,0.1-3.6,0.1-5.1c0-0.2-0.1-0.5-0.3-0.5c-7.5,0-12.6,0.1-14.3,0.3c-0.4,0-0.8-0.3-0.8-0.5c0-0.2,0.2-0.3,0.9-1.6
			l20.3-28.3c0.3-0.4,0.7-0.8,1.1-0.8h0.5c1.1,0,0.5,0.7,0.3,1.1l-19.9,27.1c0,0.1,0.1,0.3,0.3,0.3c0.5,0.2,9.2,0.1,11.7,0.1
			c0.1,0,0.3-0.1,0.3-0.3V619c0-0.5,0.1-1.6,0.7-2c0.6-0.5,4.9-2.2,6.7-2.2c0.4,0,0.7,0.5,0.7,1.7L1979.6,629.3z"/>
	</g>
	<g>
		<path class="tala" d="M2106.1,605.3c3.3-0.4,7.2-0.8,9.3-1.7c0.5-0.2,1.1-0.5,1.4-0.5c0.1,0,0.3,0.1,0.3,0.5
			c0,0.9-0.1,7.4-0.2,11.9c-0.1,5.7,0,19.2,0.2,22c0.3,4.2,0.7,4.6,3.2,5c0.8,0.1,1.1,0.4,1.1,0.7s-0.4,0.5-1.3,0.5
			c-3.8,0-6.2-0.3-8.4-0.3c-3.6,0-4.9,0.3-7.4,0.3c-0.6,0-1.1-0.1-1.1-0.5c0-0.3,0.3-0.4,1.1-0.5c3-0.5,3.8-1.4,3.8-5.1
			c0.2-1.9,0.3-5.5,0.3-17.1c0-8.2,0-10.5-0.1-12.2c-0.1-0.7-0.3-1.1-1-1.5c-0.4-0.2-0.7-0.3-1.3-0.4c-0.3-0.1-1-0.3-1-0.5
			S2105.4,605.4,2106.1,605.3z"/>
		<path class="tala" d="M2150.7,603.3c-0.7,1.4-2,4.2-2.8,6.3c-0.1,0.3-0.9,1-1.3,1c-3.4,0.4-8.8,0.7-12.3,0.9
			c-0.3,0-0.5,0.1-0.7,0.3c-0.2,0.3-0.5,1.2-0.6,1.6c-0.1,0.3,0,0.6,0.7,0.9c2.4,0.7,8.3,2.7,12,4.8c5.5,3,8.1,7.2,8.1,11.5
			c0,5.5-2.8,9.2-5.9,11.5c-4.7,3.4-11.2,4.7-14.1,4.7c-0.6,0-1.1-0.1-1.4-0.1c-0.3-0.1-0.6-0.2-0.6-0.4c0-0.3,0.3-0.5,1.1-0.5
			c5.6-0.8,14-4,14-11.7c0-3.6-1.9-7-6.8-9c-2.4-1.1-6.8-2.3-9.2-2.8c-0.3-0.2-0.5-0.7-0.5-1c0.1-3.6,3.1-12.6,4.5-15.3
			c0.2-0.3,1-0.7,1.1-0.7c1.6-0.3,4.6-0.7,8.4-1.1c2.4-0.3,4.8-0.5,5.7-1.2C2150.7,602.3,2150.9,602.9,2150.7,603.3z"/>
	</g>
	<g>
		<path class="tala" d="M2366.7,605.3c3.3-0.4,7.2-0.8,9.3-1.7c0.5-0.2,1.1-0.5,1.4-0.5c0.1,0,0.3,0.1,0.3,0.5
			c0,0.9-0.1,7.4-0.2,11.9c-0.1,5.7,0,19.2,0.2,22c0.3,4.2,0.7,4.6,3.2,5c0.8,0.1,1.1,0.4,1.1,0.7s-0.4,0.5-1.3,0.5
			c-3.8,0-6.2-0.3-8.4-0.3c-3.6,0-4.9,0.3-7.4,0.3c-0.6,0-1.1-0.1-1.1-0.5c0-0.3,0.3-0.4,1.1-0.5c3-0.5,3.8-1.4,3.8-5.1
			c0.2-1.9,0.3-5.5,0.3-17.1c0-8.2,0-10.5-0.1-12.2c-0.1-0.7-0.3-1.1-1-1.5c-0.4-0.2-0.7-0.3-1.3-0.4c-0.3-0.1-1-0.3-1-0.5
			S2366,605.4,2366.7,605.3z"/>
		<path class="tala" d="M2412.6,603.9c1.6-0.1,2.7-0.1,3.2-0.1c0.3,0,0.8,0.1,0.9,0.3c0.1,0.2-0.1,0.5-0.2,0.7
			c-0.7,0.9-3,4.7-5.3,9.6c-5,10.5-10.1,21.1-15.1,31.5c-0.2,0.4-0.4,0.8-0.7,0.8c-0.5,0-0.9-0.4-0.9-0.9c0-0.5,0.5-1.5,1.1-2.8
			c5.5-10.9,10.9-21.9,15.5-31.3c0.1-0.2-0.1-0.4-0.3-0.4c-0.9-0.1-3.4-0.2-10-0.2c-4.9,0-5.5,0-7.1,0.1c-2.4,0.2-2.6,0.4-3.5,1.6
			c-0.3,0.5-0.7,0.9-1.1,0.9s-0.5-0.5,0.1-1.5c0.4-0.8,2-4.5,2.5-7.3c0.1-0.6,0.2-1.2,0.3-1.4c0.1-0.2,0.5-0.1,0.9,0
			c1.1,0.3,3.7,0.4,9.1,0.4C2409.2,604,2411.9,603.9,2412.6,603.9z"/>
	</g>
	<g>
		<path class="tala" d="M2581,605.3c3.3-0.4,7.2-0.8,9.3-1.7c0.5-0.2,1.1-0.5,1.4-0.5c0.1,0,0.3,0.1,0.3,0.5c0,0.9-0.1,7.4-0.2,11.9
			c-0.1,5.7,0,19.2,0.2,22c0.3,4.2,0.7,4.6,3.2,5c0.8,0.1,1.1,0.4,1.1,0.7s-0.4,0.5-1.3,0.5c-3.8,0-6.2-0.3-8.4-0.3
			c-3.6,0-4.9,0.3-7.4,0.3c-0.6,0-1.1-0.1-1.1-0.5c0-0.3,0.3-0.4,1.1-0.5c3-0.5,3.8-1.4,3.8-5.1c0.2-1.9,0.3-5.5,0.3-17.1
			c0-8.2,0-10.5-0.1-12.2c-0.1-0.7-0.3-1.1-1-1.5c-0.4-0.2-0.7-0.3-1.3-0.4c-0.3-0.1-1-0.3-1-0.5S2580.3,605.4,2581,605.3z"/>
		<path class="tala" d="M2630.2,617.8c0,11.6-6.4,19.5-14.2,25c-3.8,2.8-9.2,4.3-10.2,4.3c-0.6,0-0.8-0.1-0.8-0.3
			c0-0.3,0.3-0.5,0.9-0.8c3.8-2,5.9-3.4,9.5-8c3.8-4.7,6.5-12.2,6.5-19.3c0-6-2-14-7.2-14c-0.7,0-1.7,0.4-2.3,0.9
			c-1.1,1-2.1,2.7-2.1,5.5c0,7.4,4.5,10.6,7.6,10.6c0.5,0,2-0.3,2.7-0.6c0.3-0.1,0.7-0.3,0.7,0.1c0,0.2-0.1,0.7-0.7,1.3
			c-1.9,2-4.7,3.6-7.8,3.6c-4.9,0-9.1-3.8-9.1-9.9c0-4.5,2.2-8.7,7-11.3c2.3-1.3,4.9-1.8,6.9-1.8
			C2626.5,603.2,2630.2,611.4,2630.2,617.8z"/>
	</g>
	<g>
		<path class="tala" d="M3657.9,520.7c0,3.4-1.1,7.1-4.9,11.7c-4.5,5.3-6.1,6.7-10.1,10.9c-0.2,0.1-0.2,0.5,0.3,0.6
			c1.6,0.3,6.1,0.3,9.6,0.3c3.1,0,4.6-0.2,5.6-0.3c1.1-0.1,1.8-0.7,2.8-1.8c0.5-0.9,0.8-0.9,0.9-0.9c0.3,0,0.3,0.9-0.1,1.6
			c-0.5,1.1-2.2,7.3-2.3,7.8c-0.1,0.6-1.4,0.6-1.8,0.6c-2.2,0-10.6-0.3-13.5-0.3c-0.9,0-6,0-6.4,0c-1.8,0-2.6-0.1-2.8-0.4
			c-0.3-0.3,0.2-0.8,0.6-1.4c3-3.1,5.8-5.7,9.5-10.7c3.4-4.8,5.1-8.6,5.1-14.3c0-3.8-2.2-8.3-6.8-8.3c-2.5,0-4.8,0.8-6.8,3.1
			c-0.5,0.5-0.8,0.9-1.1,0.9c-0.4,0-0.2-0.7,0.1-1.4c1.1-2.2,2.9-4.1,4.3-5.2c1.8-1.4,4.6-2.6,7.4-2.6
			C3654.2,510.5,3657.9,515.7,3657.9,520.7z"/>
		<path class="tala" d="M3687.4,536.7c0,0.2,0.1,0.4,0.3,0.4c0.6,0,4.3-0.1,5.1-0.2c0,0,0.2,0.2,0.2,0.5s-0.1,1.6-0.6,2l-4.7,0.1
			c-0.1,0-0.3,0.2-0.3,0.5c0,1.8,0,3.8,0.1,5.6c0.1,3.6,0.3,4.1,2.8,4.4c0.5,0.1,1.1,0.3,1.1,0.7c0,0.1-0.2,0.5-1.1,0.5
			c-1.7,0.1-5.5-0.2-7.2-0.2c-2.9,0-5.1,0.3-7,0.3c-0.5,0-1.1-0.3-1.1-0.5c0-0.3,0.4-0.5,1.1-0.7c2.4-0.5,2.8-0.9,3-4.9
			c0.1-1.6,0.1-3.6,0.1-5.1c0-0.2-0.1-0.5-0.3-0.5c-7.5,0-12.6,0.1-14.3,0.3c-0.4,0-0.8-0.3-0.8-0.5c0-0.2,0.2-0.3,0.9-1.6
			l20.3-28.3c0.3-0.4,0.7-0.8,1.1-0.8h0.5c1.1,0,0.5,0.7,0.3,1.1l-19.9,27.1c0,0.1,0.1,0.3,0.3,0.3c0.5,0.2,9.2,0.1,11.7,0.1
			c0.1,0,0.3-0.1,0.3-0.3v-10.6c0-0.5,0.1-1.6,0.7-2c0.6-0.5,4.9-2.2,6.7-2.2c0.4,0,0.7,0.5,0.7,1.7L3687.4,536.7z"/>
	</g>
	<g>
		<path class="tala" d="M2598.7,779.3c0,3.4-1.1,7.1-4.9,11.7c-4.5,5.3-6.1,6.7-10.1,10.9c-0.2,0.1-0.2,0.5,0.3,0.6
			c1.6,0.3,6.1,0.3,9.6,0.3c3.1,0,4.6-0.2,5.6-0.3c1.1-0.1,1.8-0.7,2.8-1.8c0.5-0.9,0.8-0.9,0.9-0.9c0.3,0,0.3,0.9-0.1,1.6
			c-0.5,1.1-2.2,7.3-2.3,7.8c-0.1,0.6-1.4,0.6-1.8,0.6c-2.2,0-10.6-0.3-13.5-0.3c-0.9,0-6,0-6.4,0c-1.8,0-2.6-0.1-2.8-0.4
			c-0.3-0.3,0.2-0.8,0.6-1.4c3-3.1,5.8-5.7,9.5-10.7c3.4-4.8,5.1-8.6,5.1-14.3c0-3.8-2.2-8.3-6.8-8.3c-2.5,0-4.8,0.8-6.8,3.1
			c-0.5,0.5-0.8,0.9-1.1,0.9c-0.4,0-0.2-0.7,0.1-1.4c1.1-2.2,2.9-4.1,4.3-5.2c1.8-1.4,4.6-2.6,7.4-2.6
			C2594.9,769.2,2598.7,774.4,2598.7,779.3z"/>
		<path class="tala" d="M2631.8,789.2c0,11.7-3.5,17.4-7,19.6c-1.6,1-3.6,1.5-5.6,1.5c-9.5,0-12.8-12.2-12.8-19.8
			c0-10.7,2.9-17.1,8.3-20.1c1.5-0.8,3-1.1,4.6-1.1C2629,769.2,2631.8,781.5,2631.8,789.2z M2617.1,771.9c-0.9,2.4-2.2,7-2.2,16.1
			c0,11.2,1.2,21.4,4.9,21.4c0.9,0,1.7-0.4,2.5-3.3c0.7-2.6,1.5-8.6,1.5-15.3c0-10.3-1.6-20.6-4.7-20.6
			C2618.3,770.2,2617.5,770.8,2617.1,771.9z"/>
	</g>
	<g>
		<path class="tala" d="M2989.6,779.3c0,3.4-1.1,7.1-4.9,11.7c-4.5,5.3-6.1,6.7-10.1,10.9c-0.2,0.1-0.2,0.5,0.3,0.6
			c1.6,0.3,6.1,0.3,9.6,0.3c3.1,0,4.6-0.2,5.6-0.3c1.1-0.1,1.8-0.7,2.8-1.8c0.5-0.9,0.8-0.9,0.9-0.9c0.3,0,0.3,0.9-0.1,1.6
			c-0.5,1.1-2.2,7.3-2.3,7.8c-0.1,0.6-1.4,0.6-1.8,0.6c-2.2,0-10.6-0.3-13.5-0.3c-0.9,0-6,0-6.4,0c-1.8,0-2.6-0.1-2.8-0.4
			c-0.3-0.3,0.2-0.8,0.6-1.4c3-3.1,5.8-5.7,9.5-10.7c3.4-4.8,5.1-8.6,5.1-14.3c0-3.8-2.2-8.3-6.8-8.3c-2.5,0-4.8,0.8-6.8,3.1
			c-0.5,0.5-0.8,0.9-1.1,0.9c-0.4,0-0.2-0.7,0.1-1.4c1.1-2.2,2.9-4.1,4.3-5.2c1.8-1.4,4.6-2.6,7.4-2.6
			C2985.8,769.2,2989.6,774.4,2989.6,779.3z"/>
		<path class="tala" d="M3003.6,771.3c3.3-0.4,7.2-0.8,9.3-1.7c0.5-0.2,1.1-0.5,1.4-0.5c0.1,0,0.3,0.1,0.3,0.5
			c0,0.9-0.1,7.4-0.2,11.9c-0.1,5.7,0,19.2,0.2,22c0.3,4.2,0.7,4.6,3.2,5c0.8,0.1,1.1,0.4,1.1,0.7s-0.4,0.5-1.3,0.5
			c-3.8,0-6.2-0.3-8.4-0.3c-3.6,0-4.9,0.3-7.4,0.3c-0.6,0-1.1-0.1-1.1-0.5c0-0.3,0.3-0.4,1.1-0.5c3-0.5,3.8-1.4,3.8-5.1
			c0.2-1.9,0.3-5.5,0.3-17.1c0-8.2,0-10.5-0.1-12.2c-0.1-0.7-0.3-1.1-1-1.5c-0.4-0.2-0.7-0.3-1.4-0.4c-0.3-0.1-1-0.3-1-0.5
			S3003,771.4,3003.6,771.3z"/>
	</g>
	<g>
		<path class="tala" d="M3130.6,779.3c0,3.4-1.1,7.1-4.9,11.7c-4.5,5.3-6.1,6.7-10.1,10.9c-0.2,0.1-0.2,0.5,0.3,0.6
			c1.6,0.3,6.1,0.3,9.6,0.3c3.1,0,4.6-0.2,5.6-0.3c1.1-0.1,1.8-0.7,2.8-1.8c0.5-0.9,0.8-0.9,0.9-0.9c0.3,0,0.3,0.9-0.1,1.6
			c-0.5,1.1-2.2,7.3-2.3,7.8c-0.1,0.6-1.4,0.6-1.8,0.6c-2.2,0-10.6-0.3-13.5-0.3c-0.9,0-6,0-6.4,0c-1.8,0-2.6-0.1-2.8-0.4
			c-0.3-0.3,0.2-0.8,0.6-1.4c3-3.1,5.8-5.7,9.5-10.7c3.4-4.8,5.1-8.6,5.1-14.3c0-3.8-2.2-8.3-6.8-8.3c-2.5,0-4.8,0.8-6.8,3.1
			c-0.5,0.5-0.8,0.9-1.1,0.9c-0.4,0-0.2-0.7,0.1-1.4c1.1-2.2,2.9-4.1,4.3-5.2c1.8-1.4,4.6-2.6,7.4-2.6
			C3126.8,769.2,3130.6,774.4,3130.6,779.3z"/>
		<path class="tala" d="M3160.2,779.3c0,3.4-1.1,7.1-4.9,11.7c-4.5,5.3-6.1,6.7-10.1,10.9c-0.2,0.1-0.2,0.5,0.3,0.6
			c1.6,0.3,6.1,0.3,9.6,0.3c3.1,0,4.6-0.2,5.6-0.3c1.1-0.1,1.8-0.7,2.8-1.8c0.5-0.9,0.8-0.9,0.9-0.9c0.3,0,0.3,0.9-0.1,1.6
			c-0.5,1.1-2.2,7.3-2.3,7.8c-0.1,0.6-1.4,0.6-1.8,0.6c-2.2,0-10.6-0.3-13.5-0.3c-0.9,0-6,0-6.4,0c-1.8,0-2.6-0.1-2.8-0.4
			c-0.3-0.3,0.2-0.8,0.6-1.4c3-3.1,5.8-5.7,9.5-10.7c3.4-4.8,5.1-8.6,5.1-14.3c0-3.8-2.2-8.3-6.8-8.3c-2.5,0-4.8,0.8-6.8,3.1
			c-0.5,0.5-0.8,0.9-1.1,0.9c-0.4,0-0.2-0.7,0.1-1.4c1.1-2.2,2.9-4.1,4.3-5.2c1.8-1.4,4.6-2.6,7.4-2.6
			C3156.5,769.2,3160.2,774.4,3160.2,779.3z"/>
	</g>
	<g>
		<path class="tala" d="M3273.2,779.3c0,3.4-1.1,7.1-4.9,11.7c-4.5,5.3-6.1,6.7-10.1,10.9c-0.2,0.1-0.2,0.5,0.3,0.6
			c1.6,0.3,6.1,0.3,9.6,0.3c3.1,0,4.6-0.2,5.6-0.3c1.1-0.1,1.8-0.7,2.8-1.8c0.5-0.9,0.8-0.9,0.9-0.9c0.3,0,0.3,0.9-0.1,1.6
			c-0.5,1.1-2.2,7.3-2.3,7.8c-0.1,0.6-1.4,0.6-1.8,0.6c-2.2,0-10.6-0.3-13.5-0.3c-0.9,0-6,0-6.4,0c-1.8,0-2.6-0.1-2.8-0.4
			c-0.3-0.3,0.2-0.8,0.6-1.4c3-3.1,5.8-5.7,9.5-10.7c3.4-4.8,5.1-8.6,5.1-14.3c0-3.8-2.2-8.3-6.8-8.3c-2.5,0-4.8,0.8-6.8,3.1
			c-0.5,0.5-0.8,0.9-1.1,0.9c-0.4,0-0.2-0.7,0.1-1.4c1.1-2.2,2.9-4.1,4.3-5.2c1.8-1.4,4.6-2.6,7.4-2.6
			C3269.4,769.2,3273.2,774.4,3273.2,779.3z"/>
		<path class="tala" d="M3284.1,775.8c-0.7,0.9-0.9,0.9-1,0.9c-0.3,0-0.4-0.3-0.1-0.9c2.3-4,6.5-6.5,10.7-6.5c5.9,0,8.8,4.3,8.8,7.4
			c0,3.9-2.4,6.3-6.8,8.6c0,0.1-0.1,0.3,0.1,0.3c0.4,0,0.3,0,0.8,0c2,0.1,5,0.9,7,2.8c1.6,1.6,2.7,3.6,2.7,7.1
			c0,4.6-3,10.6-10.9,14.6c-2.4,1.2-5.7,2.5-8.4,2.5c-2.2,0-5.9-1.2-5.9-3.2c0-0.3,0.7-1.3,2-2.3c0.1-0.1,0.7-0.1,0.8,0
			c0.8,0.5,3.4,3,7.5,3c2.2,0,3.6-0.8,4.7-1.8c1.5-1.3,3.2-3.9,3.2-8.1c0-3.6-1.6-6.8-3.2-8.2c-1.8-1.7-3-2.2-4.9-2.2
			c-0.7,0-2,0.2-2.7,0.5c-0.7,0.2-1.2,0.3-1.2,0c0-0.3,0.2-0.7,0.6-0.9c1-0.6,1.8-0.9,3.3-2c2.4-1.6,4.4-3.1,4.4-7.1
			c0-4.8-2.6-7.2-5.8-7.2C3287.8,773,3285.7,773.9,3284.1,775.8z"/>
	</g>
	<g>
		<path class="tala" d="M2366.2,771.3c3.3-0.4,7.2-0.8,9.3-1.7c0.5-0.2,1.1-0.5,1.4-0.5c0.1,0,0.3,0.1,0.3,0.5
			c0,0.9-0.1,7.4-0.2,11.9c-0.1,5.7,0,19.2,0.2,22c0.3,4.2,0.7,4.6,3.2,5c0.8,0.1,1.1,0.4,1.1,0.7s-0.4,0.5-1.3,0.5
			c-3.8,0-6.2-0.3-8.4-0.3c-3.6,0-4.9,0.3-7.4,0.3c-0.6,0-1.1-0.1-1.1-0.5c0-0.3,0.3-0.4,1.1-0.5c3-0.5,3.8-1.4,3.8-5.1
			c0.2-1.9,0.3-5.5,0.3-17.1c0-8.2,0-10.5-0.1-12.2c-0.1-0.7-0.3-1.1-1-1.5c-0.4-0.2-0.7-0.3-1.3-0.4c-0.3-0.1-1-0.3-1-0.5
			S2365.6,771.4,2366.2,771.3z"/>
		<path class="tala" d="M2413.7,777.6c0,2.7-1.4,4.7-3.2,6.1c-1.3,1-2.4,1.7-3.7,2.5c-0.1,0.1-0.1,0.2,0.1,0.3
			c3.1,2.5,7.5,5.9,7.5,11.8c0,4.4-2.2,7.4-4.8,9.3c-2.2,1.7-5.1,2.6-7.5,2.6c-6.9,0-11.9-4.1-11.9-10.1c0-3.2,1.6-5.3,4.3-7.4
			c0.9-0.7,1.9-1.2,3-2c0.2-0.1,0.2-0.3,0.1-0.4c-2.7-2.5-7-6.1-7-11.3c0-4.3,2-6.9,4.9-8.8c2-1.3,4.4-2.1,6.9-2.1
			C2409.5,768.3,2413.7,772.3,2413.7,777.6z M2406.2,808.3c1.3-1,2.2-2.6,2.2-5.3c0-4.3-4.5-8.2-9.2-11.5c-0.2-0.1-0.5-0.1-0.6,0.1
			c-2.2,1.6-3,4.2-3,7.8c0,5.1,3.7,10,7.4,10C2404.2,809.3,2405.2,809,2406.2,808.3z M2396.8,775.7c0,3.2,4,6.8,8.8,10
			c0.2,0.1,0.3,0,0.3-0.1c1.1-1.2,2.4-3.6,2.4-7.6c0-2.6-1.9-8.6-6.6-8.6C2398.9,769.3,2396.8,772.4,2396.8,775.7z"/>
	</g>
	<g>
		<path class="tala" d="M2105,771.3c3.3-0.4,7.2-0.8,9.3-1.7c0.5-0.2,1.1-0.5,1.4-0.5c0.1,0,0.3,0.1,0.3,0.5c0,0.9-0.1,7.4-0.2,11.9
			c-0.1,5.7,0,19.2,0.2,22c0.3,4.2,0.7,4.6,3.2,5c0.8,0.1,1.1,0.4,1.1,0.7s-0.4,0.5-1.3,0.5c-3.8,0-6.2-0.3-8.4-0.3
			c-3.6,0-4.9,0.3-7.4,0.3c-0.6,0-1.1-0.1-1.1-0.5c0-0.3,0.3-0.4,1.1-0.5c3-0.5,3.8-1.4,3.8-5.1c0.2-1.9,0.3-5.5,0.3-17.1
			c0-8.2,0-10.5-0.1-12.2c-0.1-0.7-0.3-1.1-1-1.5c-0.4-0.2-0.7-0.3-1.3-0.4c-0.3-0.1-1-0.3-1-0.5S2104.4,771.4,2105,771.3z"/>
		<path class="tala" d="M2155.4,767.5c0,0.1-0.2,0.6-1,0.8c-10.9,5-18.1,16.7-18.1,28.4c0,4.4,0.8,7.4,2.3,9.6c1.2,1.9,3,2.8,4.5,2.8
			c1.7,0,4.5-1.1,4.5-7.6c0-5.9-3-10.1-6.8-10.1c-0.9,0-1.7,0.3-2.4,0.6c-0.2,0.1-0.9,0.4-0.9-0.1c0-0.3,0.2-0.5,0.5-0.9
			c0.7-0.5,2.2-1.8,4-2.7c0.9-0.5,2.3-0.9,3.6-0.9c5.2,0,8.6,4,8.6,9.5c0,5.3-2.4,9.1-6.3,11.6c-2,1.3-5,2-7.1,2
			c-8.6,0-12.9-6.1-12.9-14c0-9.4,6.6-19,15.1-24.6c3.8-2.4,9.3-4.5,11.4-4.5C2155,767.2,2155.4,767.4,2155.4,767.5z"/>
	</g>
	<g>
		<path class="tala" d="M1759.4,771.3c3.3-0.4,7.2-0.8,9.3-1.7c0.5-0.2,1.1-0.5,1.4-0.5c0.1,0,0.3,0.1,0.3,0.5
			c0,0.9-0.1,7.4-0.2,11.9c-0.1,5.7,0,19.2,0.2,22c0.3,4.2,0.7,4.6,3.2,5c0.8,0.1,1.1,0.4,1.1,0.7s-0.4,0.5-1.3,0.5
			c-3.8,0-6.2-0.3-8.4-0.3c-3.6,0-4.9,0.3-7.4,0.3c-0.6,0-1.1-0.1-1.1-0.5c0-0.3,0.3-0.4,1.1-0.5c3-0.5,3.8-1.4,3.8-5.1
			c0.2-1.9,0.3-5.5,0.3-17.1c0-8.2,0-10.5-0.1-12.2c-0.1-0.7-0.3-1.1-1-1.5c-0.4-0.2-0.7-0.3-1.3-0.4c-0.3-0.1-1-0.3-1-0.5
			S1758.8,771.4,1759.4,771.3z"/>
		<path class="tala" d="M1785.9,775.8c-0.7,0.9-0.9,0.9-1,0.9c-0.3,0-0.4-0.3-0.1-0.9c2.3-4,6.5-6.5,10.7-6.5c5.9,0,8.8,4.3,8.8,7.4
			c0,3.9-2.4,6.3-6.8,8.6c0,0.1-0.1,0.3,0.1,0.3c0.4,0,0.3,0,0.8,0c2,0.1,5,0.9,7,2.8c1.6,1.6,2.7,3.6,2.7,7.1
			c0,4.6-3,10.6-10.9,14.6c-2.4,1.2-5.7,2.5-8.4,2.5c-2.2,0-5.9-1.2-5.9-3.2c0-0.3,0.7-1.3,2-2.3c0.1-0.1,0.7-0.1,0.8,0
			c0.8,0.5,3.4,3,7.5,3c2.2,0,3.6-0.8,4.7-1.8c1.5-1.3,3.2-3.9,3.2-8.1c0-3.6-1.6-6.8-3.2-8.2c-1.8-1.7-3-2.2-4.9-2.2
			c-0.7,0-2,0.2-2.7,0.5c-0.7,0.2-1.2,0.3-1.2,0c0-0.3,0.2-0.7,0.6-0.9c1-0.6,1.8-0.9,3.3-2c2.4-1.6,4.4-3.1,4.4-7.1
			c0-4.8-2.6-7.2-5.8-7.2C1789.6,773,1787.5,773.9,1785.9,775.8z"/>
	</g>
	<g>
		<path class="tala" d="M1511.3,771.8c3.3-0.4,7.2-0.8,9.3-1.7c0.5-0.2,1.1-0.5,1.4-0.5c0.1,0,0.3,0.1,0.3,0.5
			c0,0.9-0.1,7.4-0.2,11.9c-0.1,5.7,0,19.2,0.2,22c0.3,4.2,0.7,4.6,3.2,5c0.8,0.1,1.1,0.4,1.1,0.7s-0.4,0.5-1.3,0.5
			c-3.8,0-6.2-0.3-8.4-0.3c-3.6,0-4.9,0.3-7.4,0.3c-0.6,0-1.1-0.1-1.1-0.5c0-0.3,0.3-0.4,1.1-0.5c3-0.5,3.8-1.4,3.8-5.1
			c0.2-1.9,0.3-5.5,0.3-17.1c0-8.2,0-10.5-0.1-12.2c-0.1-0.7-0.3-1.1-1-1.5c-0.4-0.2-0.7-0.3-1.3-0.4c-0.3-0.1-1-0.3-1-0.5
			S1510.7,771.9,1511.3,771.8z"/>
		<path class="tala" d="M1540.9,771.8c3.3-0.4,7.2-0.8,9.3-1.7c0.5-0.2,1.1-0.5,1.4-0.5c0.1,0,0.3,0.1,0.3,0.5
			c0,0.9-0.1,7.4-0.2,11.9c-0.1,5.7,0,19.2,0.2,22c0.3,4.2,0.7,4.6,3.2,5c0.8,0.1,1.1,0.4,1.1,0.7s-0.4,0.5-1.3,0.5
			c-3.8,0-6.2-0.3-8.4-0.3c-3.6,0-4.9,0.3-7.4,0.3c-0.6,0-1.1-0.1-1.1-0.5c0-0.3,0.3-0.4,1.1-0.5c3-0.5,3.8-1.4,3.8-5.1
			c0.2-1.9,0.3-5.5,0.3-17.1c0-8.2,0-10.5-0.1-12.2c-0.1-0.7-0.3-1.1-1-1.5c-0.4-0.2-0.7-0.3-1.4-0.4c-0.3-0.1-1-0.3-1-0.5
			S1540.3,771.9,1540.9,771.8z"/>
	</g>
	<g>
		<path class="tala" d="M1277.6,784c0,11.6-6.4,19.5-14.2,25c-3.8,2.8-9.2,4.3-10.2,4.3c-0.6,0-0.8-0.1-0.8-0.3
			c0-0.3,0.3-0.5,0.9-0.8c3.8-2,5.9-3.4,9.5-8c3.8-4.7,6.5-12.2,6.5-19.3c0-6-2-14-7.2-14c-0.7,0-1.7,0.4-2.3,0.9
			c-1.1,1-2.1,2.7-2.1,5.5c0,7.4,4.5,10.6,7.6,10.6c0.5,0,2-0.3,2.7-0.6c0.3-0.1,0.7-0.3,0.7,0.1c0,0.2-0.1,0.7-0.7,1.3
			c-1.9,2-4.7,3.6-7.8,3.6c-4.9,0-9.1-3.8-9.1-9.9c0-4.5,2.2-8.7,7-11.3c2.3-1.3,4.9-1.8,6.9-1.8
			C1273.9,769.5,1277.6,777.6,1277.6,784z"/>
	</g>
	<g id="dagur3tala">
			<path class="tala" d="M376,613.4c0,3.4-1.1,7.1-4.9,11.7c-4.5,5.3-6.1,6.7-10.1,10.9c-0.2,0.1-0.2,0.5,0.3,0.6
			c1.6,0.3,6.1,0.3,9.6,0.3c3.1,0,4.6-0.2,5.6-0.3c1.1-0.1,1.8-0.7,2.8-1.8c0.5-0.9,0.8-0.9,0.9-0.9c0.3,0,0.3,0.9-0.1,1.6
			c-0.5,1.1-2.2,7.3-2.3,7.8c-0.1,0.6-1.4,0.6-1.8,0.6c-2.2,0-10.6-0.3-13.5-0.3c-0.9,0-6,0-6.4,0c-1.8,0-2.6-0.1-2.8-0.4
			c-0.3-0.3,0.2-0.8,0.6-1.4c3-3.1,5.8-5.7,9.5-10.7c3.4-4.8,5.1-8.6,5.1-14.3c0-3.8-2.2-8.3-6.8-8.3c-2.5,0-4.8,0.8-6.8,3.1
			c-0.5,0.5-0.8,0.9-1.1,0.9c-0.4,0-0.2-0.7,0.1-1.4c1.1-2.2,2.9-4.1,4.3-5.2c1.8-1.4,4.6-2.6,7.4-2.6
			C372.2,603.2,376,608.4,376,613.4z"/>
	</g>
	<g>
		<path class="tala" d="M184.2,605.4c3.3-0.4,7.2-0.8,9.3-1.7c0.5-0.2,1.1-0.5,1.4-0.5c0.1,0,0.3,0.1,0.3,0.5c0,0.9-0.1,7.4-0.2,11.9
			c-0.1,5.7,0,19.2,0.2,22c0.3,4.2,0.7,4.6,3.2,5c0.8,0.1,1.1,0.4,1.1,0.7s-0.4,0.5-1.3,0.5c-3.8,0-6.2-0.3-8.4-0.3
			c-3.6,0-4.9,0.3-7.4,0.3c-0.6,0-1.1-0.1-1.1-0.5c0-0.3,0.3-0.4,1.1-0.5c3-0.5,3.8-1.4,3.8-5.1c0.2-1.9,0.3-5.5,0.3-17.1
			c0-8.2,0-10.5-0.1-12.2c-0.1-0.7-0.3-1.1-1-1.5c-0.4-0.2-0.7-0.3-1.3-0.4c-0.3-0.1-1-0.3-1-0.5S183.6,605.5,184.2,605.4z"/>
	</g>
	<g id="dagur2tala">
	<path class="tala" d="M182,775.8c-0.7,0.9-0.9,0.9-1,0.9c-0.3,0-0.4-0.3-0.1-0.9c2.3-4,6.5-6.5,10.7-6.5c5.9,0,8.8,4.3,8.8,7.4
			c0,3.9-2.4,6.3-6.8,8.6c0,0.1-0.1,0.3,0.1,0.3c0.4,0,0.3,0,0.8,0c2,0.1,5,0.9,7,2.8c1.6,1.6,2.7,3.6,2.7,7.1
			c0,4.6-3,10.6-10.9,14.6c-2.4,1.2-5.7,2.5-8.4,2.5c-2.2,0-5.9-1.2-5.9-3.2c0-0.3,0.7-1.3,2-2.3c0.1-0.1,0.7-0.1,0.8,0
			c0.8,0.5,3.4,3,7.5,3c2.2,0,3.6-0.8,4.7-1.8c1.5-1.3,3.2-3.9,3.2-8.1c0-3.6-1.6-6.8-3.2-8.2c-1.8-1.7-3-2.2-4.9-2.2
			c-0.7,0-2,0.2-2.7,0.5c-0.7,0.2-1.2,0.3-1.2,0c0-0.3,0.2-0.7,0.6-0.9c1-0.6,1.8-0.9,3.3-2c2.4-1.6,4.4-3.1,4.4-7.1
			c0-4.8-2.6-7.2-5.8-7.2C185.7,773.1,183.7,774,182,775.8z"/>
	
	</g>
	<g>
		<path class="tala" d="M376.1,795.4c0,0.2,0.1,0.4,0.3,0.4c0.6,0,4.3-0.1,5.1-0.2c0,0,0.2,0.2,0.2,0.5c0,0.3-0.1,1.6-0.6,2l-4.7,0.1
			c-0.1,0-0.3,0.2-0.3,0.5c0,1.8,0,3.8,0.1,5.6c0.1,3.6,0.3,4.1,2.8,4.4c0.5,0.1,1.1,0.3,1.1,0.7c0,0.1-0.2,0.5-1.1,0.5
			c-1.7,0.1-5.5-0.2-7.2-0.2c-2.9,0-5.1,0.3-7,0.3c-0.5,0-1.1-0.3-1.1-0.5c0-0.3,0.4-0.5,1.1-0.7c2.4-0.5,2.8-0.9,3-4.9
			c0.1-1.6,0.1-3.6,0.1-5.1c0-0.2-0.1-0.5-0.3-0.5c-7.5,0-12.6,0.1-14.3,0.3c-0.4,0-0.8-0.3-0.8-0.5c0-0.2,0.2-0.3,0.9-1.6
			l20.3-28.3c0.3-0.4,0.7-0.8,1.1-0.8h0.5c1.1,0,0.5,0.7,0.3,1.1l-19.9,27.1c0,0.1,0.1,0.3,0.3,0.3c0.5,0.2,9.2,0.1,11.7,0.1
			c0.1,0,0.3-0.1,0.3-0.3V785c0-0.5,0.1-1.6,0.7-2s4.9-2.2,6.7-2.2c0.4,0,0.7,0.5,0.7,1.7L376.1,795.4z"/>
	</g>
	<g>
		<path class="tala" d="M784.4,767.4c0,0.1-0.2,0.6-1,0.8c-10.9,5-18.1,16.7-18.1,28.4c0,4.4,0.8,7.4,2.3,9.6c1.2,1.9,3,2.8,4.5,2.8
			c1.7,0,4.5-1.1,4.5-7.6c0-5.9-3-10.1-6.8-10.1c-0.9,0-1.7,0.3-2.4,0.6c-0.2,0.1-0.9,0.4-0.9-0.1c0-0.3,0.2-0.5,0.5-0.9
			c0.7-0.5,2.2-1.8,4-2.7c0.9-0.5,2.3-0.9,3.6-0.9c5.2,0,8.6,4,8.6,9.5c0,5.3-2.4,9.1-6.3,11.6c-2,1.3-5,2-7.1,2
			c-8.6,0-12.9-6.1-12.9-14c0-9.4,6.6-19,15.1-24.6c3.8-2.4,9.3-4.5,11.4-4.5C784,767.2,784.4,767.4,784.4,767.4z"/>
	</g>
	<g>
		<path class="tala" d="M779.7,603.2c-0.7,1.4-2,4.2-2.8,6.3c-0.1,0.3-0.9,1-1.3,1c-3.4,0.4-8.8,0.7-12.3,0.9c-0.3,0-0.5,0.1-0.7,0.3
			c-0.2,0.3-0.5,1.2-0.6,1.6c-0.1,0.3,0,0.6,0.7,0.9c2.4,0.7,8.3,2.7,12,4.8c5.5,3,8.1,7.2,8.1,11.5c0,5.5-2.8,9.2-5.9,11.5
			c-4.7,3.4-11.2,4.7-14.1,4.7c-0.6,0-1.1-0.1-1.4-0.1c-0.3-0.1-0.6-0.2-0.6-0.4c0-0.3,0.3-0.5,1.1-0.5c5.6-0.8,14-4,14-11.7
			c0-3.6-1.9-7-6.8-9c-2.4-1.1-6.8-2.3-9.2-2.8c-0.3-0.2-0.5-0.7-0.5-1c0.1-3.6,3.1-12.6,4.5-15.3c0.2-0.3,1-0.7,1.1-0.7
			c1.6-0.3,4.6-0.7,8.4-1.1c2.4-0.3,4.8-0.5,5.7-1.2C779.7,602.3,779.8,602.9,779.7,603.2z"/>
	</g>
</g>
</svg>
