<svg xmlns="http://www.w3.org/2000/svg" viewBox="0 0 1173.61 484.76">
  <defs>
    <style>
      .cls-1 {
        fill: #e6e6e6;
      }
    </style>
  </defs>
  <title>snjor_1</title>
  <g id="Layer_2" data-name="Layer 2">
    <g id="Layer_17" data-name="Layer 17">
      <circle class="cls-1" cx="5.31" cy="237.35" r="5.31"/>
      <circle class="cls-1" cx="70.49" cy="266.92" r="5.31"/>
      <circle class="cls-1" cx="565.28" cy="211.09" r="5.31"/>
      <circle class="cls-1" cx="497.17" cy="249.14" r="5.31"/>
      <circle class="cls-1" cx="803.73" cy="204.42" r="5.31"/>
      <circle class="cls-1" cx="905.43" cy="186.43" r="5.31"/>
      <circle class="cls-1" cx="1053.85" cy="205.79" r="5.31"/>
      <circle class="cls-1" cx="195.15" cy="224.14" r="5.31"/>
      <circle class="cls-1" cx="298.17" cy="184.09" r="5.31"/>
      <circle class="cls-1" cx="122.07" cy="272.06" r="5.31"/>
      <circle class="cls-1" cx="136.49" cy="383.24" r="5.31"/>
      <circle class="cls-1" cx="421.37" cy="436.55" r="5.31"/>
      <circle class="cls-1" cx="628.4" cy="397.4" r="5.31"/>
      <circle class="cls-1" cx="775.93" cy="301.19" r="5.31"/>
      <circle class="cls-1" cx="905.43" cy="297.76" r="5.31"/>
      <circle class="cls-1" cx="1117.51" cy="349.08" r="5.31"/>
      <circle class="cls-1" cx="1144.14" cy="263.88" r="5.31"/>
      <circle class="cls-1" cx="308.78" cy="224.14" r="5.31"/>
      <circle class="cls-1" cx="256.35" cy="261.62" r="5.31"/>
      <circle class="cls-1" cx="261.66" cy="326.75" r="5.31"/>
      <circle class="cls-1" cx="407.68" cy="204.42" r="5.31"/>
      <circle class="cls-1" cx="874.99" cy="258.58" r="5.31"/>
      <circle class="cls-1" cx="646.9" cy="228.2" r="5.31"/>
      <circle class="cls-1" cx="497.17" cy="314.87" r="5.31"/>
      <circle class="cls-1" cx="80.64" cy="405.13" r="5.31"/>
      <circle class="cls-1" cx="692.59" cy="284.74" r="5.31"/>
      <circle class="cls-1" cx="705.77" cy="349.08" r="5.31"/>
      <circle class="cls-1" cx="809.04" cy="243.84" r="5.31"/>
      <circle class="cls-1" cx="1053.85" cy="366.39" r="5.31"/>
      <circle class="cls-1" cx="951.45" cy="233.51" r="5.31"/>
      <circle class="cls-1" cx="1031.47" cy="269.19" r="5.31"/>
      <circle class="cls-1" cx="545.7" cy="336.07" r="5.31"/>
      <circle class="cls-1" cx="596.49" cy="440.87" r="5.31"/>
      <circle class="cls-1" cx="346.74" cy="390.62" r="5.31"/>
      <g>
        <circle class="cls-1" cx="538.48" cy="218.09" r="2.43"/>
        <circle class="cls-1" cx="508.61" cy="231.64" r="2.43"/>
        <circle class="cls-1" cx="281.86" cy="206.05" r="2.43"/>
        <circle class="cls-1" cx="313.08" cy="223.49" r="2.43"/>
        <circle class="cls-1" cx="172.59" cy="202.99" r="2.43"/>
        <circle class="cls-1" cx="125.98" cy="194.75" r="2.43"/>
        <circle class="cls-1" cx="57.97" cy="203.62" r="2.43"/>
        <circle class="cls-1" cx="451.48" cy="212.04" r="2.43"/>
        <circle class="cls-1" cx="404.27" cy="193.68" r="2.43"/>
        <circle class="cls-1" cx="484.97" cy="234" r="2.43"/>
        <circle class="cls-1" cx="478.37" cy="284.95" r="2.43"/>
        <circle class="cls-1" cx="347.81" cy="309.38" r="2.43"/>
        <circle class="cls-1" cx="252.94" cy="291.43" r="2.43"/>
        <circle class="cls-1" cx="185.33" cy="247.34" r="2.43"/>
        <circle class="cls-1" cx="125.98" cy="245.77" r="2.43"/>
        <circle class="cls-1" cx="28.79" cy="269.29" r="2.43"/>
        <circle class="cls-1" cx="16.59" cy="230.25" r="2.43"/>
        <circle class="cls-1" cx="399.41" cy="212.04" r="2.43"/>
        <circle class="cls-1" cx="423.44" cy="229.21" r="2.43"/>
        <circle class="cls-1" cx="421.01" cy="259.06" r="2.43"/>
        <circle class="cls-1" cx="354.09" cy="202.99" r="2.43"/>
        <circle class="cls-1" cx="139.93" cy="227.82" r="2.43"/>
        <circle class="cls-1" cx="244.46" cy="213.9" r="2.43"/>
        <circle class="cls-1" cx="313.08" cy="253.61" r="2.43"/>
        <circle class="cls-1" cx="503.96" cy="294.98" r="2.43"/>
        <circle class="cls-1" cx="223.52" cy="239.81" r="2.43"/>
        <circle class="cls-1" cx="217.48" cy="269.29" r="2.43"/>
        <circle class="cls-1" cx="170.16" cy="221.06" r="2.43"/>
        <circle class="cls-1" cx="57.97" cy="277.22" r="2.43"/>
        <circle class="cls-1" cx="104.89" cy="216.33" r="2.43"/>
        <circle class="cls-1" cx="68.22" cy="232.68" r="2.43"/>
        <circle class="cls-1" cx="290.84" cy="263.33" r="2.43"/>
        <circle class="cls-1" cx="267.56" cy="311.35" r="2.43"/>
        <circle class="cls-1" cx="382.02" cy="288.33" r="2.43"/>
      </g>
      <g>
        <circle class="cls-1" cx="672.35" cy="269.35" r="2.43"/>
        <circle class="cls-1" cx="642.48" cy="282.91" r="2.43"/>
        <circle class="cls-1" cx="415.73" cy="257.32" r="2.43"/>
        <circle class="cls-1" cx="446.94" cy="274.76" r="2.43"/>
        <circle class="cls-1" cx="306.45" cy="254.26" r="2.43"/>
        <circle class="cls-1" cx="259.84" cy="246.02" r="2.43"/>
        <circle class="cls-1" cx="191.83" cy="254.89" r="2.43"/>
        <circle class="cls-1" cx="585.34" cy="263.3" r="2.43"/>
        <circle class="cls-1" cx="538.14" cy="244.94" r="2.43"/>
        <circle class="cls-1" cx="618.84" cy="285.26" r="2.43"/>
        <circle class="cls-1" cx="612.23" cy="336.21" r="2.43"/>
        <circle class="cls-1" cx="481.67" cy="360.64" r="2.43"/>
        <circle class="cls-1" cx="386.8" cy="342.7" r="2.43"/>
        <circle class="cls-1" cx="319.19" cy="298.61" r="2.43"/>
        <circle class="cls-1" cx="259.84" cy="297.04" r="2.43"/>
        <circle class="cls-1" cx="162.65" cy="320.56" r="2.43"/>
        <circle class="cls-1" cx="150.45" cy="281.51" r="2.43"/>
        <circle class="cls-1" cx="533.27" cy="263.3" r="2.43"/>
        <circle class="cls-1" cx="557.3" cy="280.48" r="2.43"/>
        <circle class="cls-1" cx="554.87" cy="310.32" r="2.43"/>
        <circle class="cls-1" cx="487.95" cy="254.26" r="2.43"/>
        <circle class="cls-1" cx="273.8" cy="279.08" r="2.43"/>
        <circle class="cls-1" cx="378.32" cy="265.16" r="2.43"/>
        <circle class="cls-1" cx="446.94" cy="304.88" r="2.43"/>
        <circle class="cls-1" cx="637.82" cy="346.24" r="2.43"/>
        <circle class="cls-1" cx="357.38" cy="291.07" r="2.43"/>
        <circle class="cls-1" cx="351.34" cy="320.56" r="2.43"/>
        <circle class="cls-1" cx="304.02" cy="272.33" r="2.43"/>
        <circle class="cls-1" cx="191.83" cy="328.49" r="2.43"/>
        <circle class="cls-1" cx="238.75" cy="267.59" r="2.43"/>
        <circle class="cls-1" cx="202.08" cy="283.94" r="2.43"/>
        <circle class="cls-1" cx="424.7" cy="314.59" r="2.43"/>
        <circle class="cls-1" cx="401.42" cy="362.62" r="2.43"/>
        <circle class="cls-1" cx="515.88" cy="339.59" r="2.43"/>
      </g>
      <g>
        <circle class="cls-1" cx="815.82" cy="186.09" r="2.43"/>
        <circle class="cls-1" cx="785.95" cy="199.64" r="2.43"/>
        <circle class="cls-1" cx="559.2" cy="174.06" r="2.43"/>
        <circle class="cls-1" cx="590.41" cy="191.49" r="2.43"/>
        <circle class="cls-1" cx="449.92" cy="171" r="2.43"/>
        <circle class="cls-1" cx="403.31" cy="162.75" r="2.43"/>
        <circle class="cls-1" cx="335.3" cy="171.62" r="2.43"/>
        <circle class="cls-1" cx="728.81" cy="180.04" r="2.43"/>
        <circle class="cls-1" cx="681.6" cy="161.68" r="2.43"/>
        <circle class="cls-1" cx="762.31" cy="202" r="2.43"/>
        <circle class="cls-1" cx="755.7" cy="252.95" r="2.43"/>
        <circle class="cls-1" cx="625.14" cy="277.38" r="2.43"/>
        <circle class="cls-1" cx="530.27" cy="259.43" r="2.43"/>
        <circle class="cls-1" cx="462.66" cy="215.34" r="2.43"/>
        <circle class="cls-1" cx="403.31" cy="213.77" r="2.43"/>
        <circle class="cls-1" cx="306.12" cy="237.29" r="2.43"/>
        <circle class="cls-1" cx="293.92" cy="198.25" r="2.43"/>
        <circle class="cls-1" cx="676.74" cy="180.04" r="2.43"/>
        <circle class="cls-1" cx="700.77" cy="197.21" r="2.43"/>
        <circle class="cls-1" cx="698.34" cy="227.06" r="2.43"/>
        <circle class="cls-1" cx="631.42" cy="171" r="2.43"/>
        <circle class="cls-1" cx="417.26" cy="195.82" r="2.43"/>
        <circle class="cls-1" cx="521.79" cy="181.9" r="2.43"/>
        <circle class="cls-1" cx="590.41" cy="221.61" r="2.43"/>
        <circle class="cls-1" cx="781.29" cy="262.98" r="2.43"/>
        <circle class="cls-1" cx="500.85" cy="207.81" r="2.43"/>
        <circle class="cls-1" cx="494.81" cy="237.29" r="2.43"/>
        <circle class="cls-1" cx="447.49" cy="189.06" r="2.43"/>
        <circle class="cls-1" cx="335.3" cy="245.22" r="2.43"/>
        <circle class="cls-1" cx="382.22" cy="184.33" r="2.43"/>
        <circle class="cls-1" cx="345.55" cy="200.68" r="2.43"/>
        <circle class="cls-1" cx="568.17" cy="231.33" r="2.43"/>
        <circle class="cls-1" cx="544.89" cy="279.36" r="2.43"/>
        <circle class="cls-1" cx="659.35" cy="256.33" r="2.43"/>
      </g>
      <g>
        <circle class="cls-1" cx="545.52" cy="374.91" r="2.43"/>
        <circle class="cls-1" cx="515.65" cy="388.47" r="2.43"/>
        <circle class="cls-1" cx="288.9" cy="362.88" r="2.43"/>
        <circle class="cls-1" cx="320.11" cy="380.32" r="2.43"/>
        <circle class="cls-1" cx="179.62" cy="359.82" r="2.43"/>
        <circle class="cls-1" cx="133.02" cy="351.58" r="2.43"/>
        <circle class="cls-1" cx="65" cy="360.45" r="2.43"/>
        <circle class="cls-1" cx="458.52" cy="368.86" r="2.43"/>
        <circle class="cls-1" cx="411.31" cy="350.5" r="2.43"/>
        <circle class="cls-1" cx="492.01" cy="390.82" r="2.43"/>
        <circle class="cls-1" cx="485.4" cy="441.77" r="2.43"/>
        <circle class="cls-1" cx="354.85" cy="466.2" r="2.43"/>
        <circle class="cls-1" cx="259.97" cy="448.26" r="2.43"/>
        <circle class="cls-1" cx="192.36" cy="404.17" r="2.43"/>
        <circle class="cls-1" cx="133.02" cy="402.6" r="2.43"/>
        <circle class="cls-1" cx="35.83" cy="426.12" r="2.43"/>
        <circle class="cls-1" cx="23.62" cy="387.07" r="2.43"/>
        <circle class="cls-1" cx="406.44" cy="368.86" r="2.43"/>
        <circle class="cls-1" cx="430.47" cy="386.03" r="2.43"/>
        <circle class="cls-1" cx="428.04" cy="415.88" r="2.43"/>
        <circle class="cls-1" cx="361.12" cy="359.82" r="2.43"/>
        <circle class="cls-1" cx="146.97" cy="384.64" r="2.43"/>
        <circle class="cls-1" cx="251.5" cy="370.72" r="2.43"/>
        <circle class="cls-1" cx="320.11" cy="410.44" r="2.43"/>
        <circle class="cls-1" cx="511" cy="451.8" r="2.43"/>
        <circle class="cls-1" cx="230.55" cy="396.63" r="2.43"/>
        <circle class="cls-1" cx="224.51" cy="426.12" r="2.43"/>
        <circle class="cls-1" cx="177.19" cy="377.89" r="2.43"/>
        <circle class="cls-1" cx="65" cy="434.05" r="2.43"/>
        <circle class="cls-1" cx="111.93" cy="373.15" r="2.43"/>
        <circle class="cls-1" cx="75.26" cy="389.5" r="2.43"/>
        <circle class="cls-1" cx="297.87" cy="420.15" r="2.43"/>
        <circle class="cls-1" cx="274.6" cy="468.18" r="2.43"/>
        <circle class="cls-1" cx="389.05" cy="445.15" r="2.43"/>
      </g>
      <g>
        <circle class="cls-1" cx="22.81" cy="351.27" r="2.43"/>
        <circle class="cls-1" cx="52.68" cy="364.83" r="2.43"/>
        <circle class="cls-1" cx="279.43" cy="339.24" r="2.43"/>
        <circle class="cls-1" cx="248.22" cy="356.68" r="2.43"/>
        <circle class="cls-1" cx="388.71" cy="336.18" r="2.43"/>
        <circle class="cls-1" cx="435.31" cy="327.94" r="2.43"/>
        <circle class="cls-1" cx="503.33" cy="336.81" r="2.43"/>
        <circle class="cls-1" cx="109.81" cy="345.22" r="2.43"/>
        <circle class="cls-1" cx="157.02" cy="326.87" r="2.43"/>
        <circle class="cls-1" cx="76.32" cy="367.18" r="2.43"/>
        <circle class="cls-1" cx="82.93" cy="418.13" r="2.43"/>
        <circle class="cls-1" cx="213.49" cy="442.56" r="2.43"/>
        <circle class="cls-1" cx="308.36" cy="424.62" r="2.43"/>
        <circle class="cls-1" cx="375.97" cy="380.53" r="2.43"/>
        <circle class="cls-1" cx="435.31" cy="378.96" r="2.43"/>
        <circle class="cls-1" cx="532.5" cy="402.48" r="2.43"/>
        <circle class="cls-1" cx="544.71" cy="363.44" r="2.43"/>
        <circle class="cls-1" cx="161.89" cy="345.22" r="2.43"/>
        <circle class="cls-1" cx="137.86" cy="362.4" r="2.43"/>
        <circle class="cls-1" cx="140.29" cy="392.24" r="2.43"/>
        <circle class="cls-1" cx="207.21" cy="336.18" r="2.43"/>
        <circle class="cls-1" cx="421.36" cy="361" r="2.43"/>
        <circle class="cls-1" cx="316.84" cy="347.08" r="2.43"/>
        <circle class="cls-1" cx="248.22" cy="386.8" r="2.43"/>
        <circle class="cls-1" cx="57.34" cy="428.17" r="2.43"/>
        <circle class="cls-1" cx="337.78" cy="372.99" r="2.43"/>
        <circle class="cls-1" cx="343.82" cy="402.48" r="2.43"/>
        <circle class="cls-1" cx="391.14" cy="354.25" r="2.43"/>
        <circle class="cls-1" cx="503.33" cy="410.41" r="2.43"/>
        <circle class="cls-1" cx="456.4" cy="349.52" r="2.43"/>
        <circle class="cls-1" cx="493.07" cy="365.87" r="2.43"/>
        <circle class="cls-1" cx="270.46" cy="396.52" r="2.43"/>
        <circle class="cls-1" cx="293.73" cy="444.54" r="2.43"/>
        <circle class="cls-1" cx="179.28" cy="421.51" r="2.43"/>
      </g>
      <g>
        <circle class="cls-1" cx="482.02" cy="288.84" r="2.43"/>
        <circle class="cls-1" cx="511.89" cy="302.39" r="2.43"/>
        <circle class="cls-1" cx="738.64" cy="276.81" r="2.43"/>
        <circle class="cls-1" cx="707.43" cy="294.25" r="2.43"/>
        <circle class="cls-1" cx="847.92" cy="273.75" r="2.43"/>
        <circle class="cls-1" cx="894.52" cy="265.51" r="2.43"/>
        <circle class="cls-1" cx="962.54" cy="274.38" r="2.43"/>
        <circle class="cls-1" cx="569.02" cy="282.79" r="2.43"/>
        <circle class="cls-1" cx="616.23" cy="264.43" r="2.43"/>
        <circle class="cls-1" cx="535.53" cy="304.75" r="2.43"/>
        <circle class="cls-1" cx="542.14" cy="355.7" r="2.43"/>
        <circle class="cls-1" cx="672.69" cy="380.13" r="2.43"/>
        <circle class="cls-1" cx="767.57" cy="362.19" r="2.43"/>
        <circle class="cls-1" cx="835.18" cy="318.1" r="2.43"/>
        <circle class="cls-1" cx="894.52" cy="316.53" r="2.43"/>
        <circle class="cls-1" cx="991.71" cy="340.04" r="2.43"/>
        <circle class="cls-1" cx="1003.92" cy="301" r="2.43"/>
        <circle class="cls-1" cx="621.09" cy="282.79" r="2.43"/>
        <circle class="cls-1" cx="597.07" cy="299.96" r="2.43"/>
        <circle class="cls-1" cx="599.5" cy="329.81" r="2.43"/>
        <circle class="cls-1" cx="666.42" cy="273.75" r="2.43"/>
        <circle class="cls-1" cx="880.57" cy="298.57" r="2.43"/>
        <circle class="cls-1" cx="776.04" cy="284.65" r="2.43"/>
        <circle class="cls-1" cx="707.43" cy="324.37" r="2.43"/>
        <circle class="cls-1" cx="516.54" cy="365.73" r="2.43"/>
        <circle class="cls-1" cx="796.99" cy="310.56" r="2.43"/>
        <circle class="cls-1" cx="803.03" cy="340.04" r="2.43"/>
        <circle class="cls-1" cx="850.35" cy="291.81" r="2.43"/>
        <circle class="cls-1" cx="962.54" cy="347.98" r="2.43"/>
        <circle class="cls-1" cx="915.61" cy="287.08" r="2.43"/>
        <circle class="cls-1" cx="952.28" cy="303.43" r="2.43"/>
        <circle class="cls-1" cx="729.67" cy="334.08" r="2.43"/>
        <circle class="cls-1" cx="752.94" cy="382.11" r="2.43"/>
        <circle class="cls-1" cx="638.49" cy="359.08" r="2.43"/>
      </g>
      <g>
        <circle class="cls-1" cx="563.15" cy="205.38" r="2.43"/>
        <circle class="cls-1" cx="593.02" cy="218.93" r="2.43"/>
        <circle class="cls-1" cx="819.77" cy="193.35" r="2.43"/>
        <circle class="cls-1" cx="788.55" cy="210.78" r="2.43"/>
        <circle class="cls-1" cx="929.04" cy="190.29" r="2.43"/>
        <circle class="cls-1" cx="975.65" cy="182.04" r="2.43"/>
        <circle class="cls-1" cx="1043.66" cy="190.91" r="2.43"/>
        <circle class="cls-1" cx="650.15" cy="199.33" r="2.43"/>
        <circle class="cls-1" cx="697.36" cy="180.97" r="2.43"/>
        <circle class="cls-1" cx="616.66" cy="221.29" r="2.43"/>
        <circle class="cls-1" cx="623.26" cy="272.24" r="2.43"/>
        <circle class="cls-1" cx="753.82" cy="296.67" r="2.43"/>
        <circle class="cls-1" cx="848.7" cy="278.72" r="2.43"/>
        <circle class="cls-1" cx="916.3" cy="234.63" r="2.43"/>
        <circle class="cls-1" cx="975.65" cy="233.06" r="2.43"/>
        <circle class="cls-1" cx="1072.84" cy="256.58" r="2.43"/>
        <circle class="cls-1" cx="1085.04" cy="217.54" r="2.43"/>
        <circle class="cls-1" cx="702.22" cy="199.33" r="2.43"/>
        <circle class="cls-1" cx="678.19" cy="216.5" r="2.43"/>
        <circle class="cls-1" cx="680.63" cy="246.35" r="2.43"/>
        <circle class="cls-1" cx="747.54" cy="190.29" r="2.43"/>
        <circle class="cls-1" cx="961.7" cy="215.11" r="2.43"/>
        <circle class="cls-1" cx="857.17" cy="201.19" r="2.43"/>
        <circle class="cls-1" cx="788.55" cy="240.9" r="2.43"/>
        <circle class="cls-1" cx="597.67" cy="282.27" r="2.43"/>
        <circle class="cls-1" cx="878.11" cy="227.1" r="2.43"/>
        <circle class="cls-1" cx="884.15" cy="256.58" r="2.43"/>
        <circle class="cls-1" cx="931.47" cy="208.35" r="2.43"/>
        <circle class="cls-1" cx="1043.66" cy="264.51" r="2.43"/>
        <circle class="cls-1" cx="996.74" cy="203.62" r="2.43"/>
        <circle class="cls-1" cx="1033.41" cy="219.97" r="2.43"/>
        <circle class="cls-1" cx="810.79" cy="250.62" r="2.43"/>
        <circle class="cls-1" cx="834.07" cy="298.64" r="2.43"/>
        <circle class="cls-1" cx="719.62" cy="275.62" r="2.43"/>
      </g>
      <g>
        <circle class="cls-1" cx="630.33" cy="389.06" r="2.43"/>
        <circle class="cls-1" cx="660.2" cy="402.61" r="2.43"/>
        <circle class="cls-1" cx="886.95" cy="377.02" r="2.43"/>
        <circle class="cls-1" cx="855.74" cy="394.46" r="2.43"/>
        <circle class="cls-1" cx="996.23" cy="373.97" r="2.43"/>
        <circle class="cls-1" cx="1042.83" cy="365.72" r="2.43"/>
        <circle class="cls-1" cx="1110.85" cy="374.59" r="2.43"/>
        <circle class="cls-1" cx="717.33" cy="383.01" r="2.43"/>
        <circle class="cls-1" cx="764.54" cy="364.65" r="2.43"/>
        <circle class="cls-1" cx="683.84" cy="404.97" r="2.43"/>
        <circle class="cls-1" cx="690.45" cy="455.92" r="2.43"/>
        <circle class="cls-1" cx="821.01" cy="480.35" r="2.43"/>
        <circle class="cls-1" cx="915.88" cy="462.4" r="2.43"/>
        <circle class="cls-1" cx="983.49" cy="418.31" r="2.43"/>
        <circle class="cls-1" cx="1042.83" cy="416.74" r="2.43"/>
        <circle class="cls-1" cx="1140.03" cy="440.26" r="2.43"/>
        <circle class="cls-1" cx="1152.23" cy="401.22" r="2.43"/>
        <circle class="cls-1" cx="769.41" cy="383.01" r="2.43"/>
        <circle class="cls-1" cx="745.38" cy="400.18" r="2.43"/>
        <circle class="cls-1" cx="747.81" cy="430.03" r="2.43"/>
        <circle class="cls-1" cx="814.73" cy="373.97" r="2.43"/>
        <circle class="cls-1" cx="1028.88" cy="398.79" r="2.43"/>
        <circle class="cls-1" cx="924.36" cy="384.87" r="2.43"/>
        <circle class="cls-1" cx="855.74" cy="424.58" r="2.43"/>
        <circle class="cls-1" cx="664.86" cy="465.95" r="2.43"/>
        <circle class="cls-1" cx="945.3" cy="410.78" r="2.43"/>
        <circle class="cls-1" cx="951.34" cy="440.26" r="2.43"/>
        <circle class="cls-1" cx="998.66" cy="392.03" r="2.43"/>
        <circle class="cls-1" cx="1110.85" cy="448.19" r="2.43"/>
        <circle class="cls-1" cx="1063.93" cy="387.3" r="2.43"/>
        <circle class="cls-1" cx="1100.6" cy="403.65" r="2.43"/>
        <circle class="cls-1" cx="877.98" cy="434.3" r="2.43"/>
        <circle class="cls-1" cx="901.26" cy="482.32" r="2.43"/>
        <circle class="cls-1" cx="786.8" cy="459.3" r="2.43"/>
      </g>
      <g>
        <circle class="cls-1" cx="649.28" cy="387.96" r="2.43"/>
        <circle class="cls-1" cx="679.15" cy="401.51" r="2.43"/>
        <circle class="cls-1" cx="905.9" cy="375.93" r="2.43"/>
        <circle class="cls-1" cx="874.68" cy="393.37" r="2.43"/>
        <circle class="cls-1" cx="1015.17" cy="372.87" r="2.43"/>
        <circle class="cls-1" cx="1061.78" cy="364.63" r="2.43"/>
        <circle class="cls-1" cx="1129.8" cy="373.5" r="2.43"/>
        <circle class="cls-1" cx="736.28" cy="381.91" r="2.43"/>
        <circle class="cls-1" cx="783.49" cy="363.55" r="2.43"/>
        <circle class="cls-1" cx="702.79" cy="403.87" r="2.43"/>
        <circle class="cls-1" cx="709.4" cy="454.82" r="2.43"/>
        <circle class="cls-1" cx="839.95" cy="479.25" r="2.43"/>
        <circle class="cls-1" cx="934.83" cy="461.31" r="2.43"/>
        <circle class="cls-1" cx="1002.43" cy="417.22" r="2.43"/>
        <circle class="cls-1" cx="1061.78" cy="415.65" r="2.43"/>
        <circle class="cls-1" cx="1158.97" cy="439.16" r="2.43"/>
        <circle class="cls-1" cx="1171.17" cy="400.12" r="2.43"/>
        <circle class="cls-1" cx="788.35" cy="381.91" r="2.43"/>
        <circle class="cls-1" cx="764.33" cy="399.08" r="2.43"/>
        <circle class="cls-1" cx="766.76" cy="428.93" r="2.43"/>
        <circle class="cls-1" cx="833.68" cy="372.87" r="2.43"/>
        <circle class="cls-1" cx="1047.83" cy="397.69" r="2.43"/>
        <circle class="cls-1" cx="943.3" cy="383.77" r="2.43"/>
        <circle class="cls-1" cx="874.68" cy="423.49" r="2.43"/>
        <circle class="cls-1" cx="683.8" cy="464.85" r="2.43"/>
        <circle class="cls-1" cx="964.24" cy="409.68" r="2.43"/>
        <circle class="cls-1" cx="970.28" cy="439.16" r="2.43"/>
        <circle class="cls-1" cx="1017.6" cy="390.93" r="2.43"/>
        <circle class="cls-1" cx="1129.8" cy="447.1" r="2.43"/>
        <circle class="cls-1" cx="1082.87" cy="386.2" r="2.43"/>
        <circle class="cls-1" cx="1119.54" cy="402.55" r="2.43"/>
        <circle class="cls-1" cx="896.92" cy="433.2" r="2.43"/>
        <circle class="cls-1" cx="920.2" cy="481.23" r="2.43"/>
        <circle class="cls-1" cx="805.75" cy="458.2" r="2.43"/>
      </g>
      <circle class="cls-1" cx="5.31" cy="78.1" r="5.31"/>
      <circle class="cls-1" cx="70.49" cy="107.68" r="5.31"/>
      <circle class="cls-1" cx="565.28" cy="51.84" r="5.31"/>
      <circle class="cls-1" cx="497.17" cy="89.9" r="5.31"/>
      <circle class="cls-1" cx="803.73" cy="45.17" r="5.31"/>
      <circle class="cls-1" cx="905.43" cy="27.18" r="5.31"/>
      <circle class="cls-1" cx="1053.85" cy="46.54" r="5.31"/>
      <circle class="cls-1" cx="195.15" cy="64.9" r="5.31"/>
      <circle class="cls-1" cx="298.17" cy="24.84" r="5.31"/>
      <circle class="cls-1" cx="122.07" cy="112.81" r="5.31"/>
      <circle class="cls-1" cx="136.49" cy="223.99" r="5.31"/>
      <circle class="cls-1" cx="421.37" cy="277.31" r="5.31"/>
      <circle class="cls-1" cx="628.4" cy="238.15" r="5.31"/>
      <circle class="cls-1" cx="775.93" cy="141.94" r="5.31"/>
      <circle class="cls-1" cx="905.43" cy="138.51" r="5.31"/>
      <circle class="cls-1" cx="1117.51" cy="189.83" r="5.31"/>
      <circle class="cls-1" cx="1144.14" cy="104.64" r="5.31"/>
      <circle class="cls-1" cx="308.78" cy="64.9" r="5.31"/>
      <circle class="cls-1" cx="256.35" cy="102.37" r="5.31"/>
      <circle class="cls-1" cx="261.66" cy="167.5" r="5.31"/>
      <circle class="cls-1" cx="407.68" cy="45.17" r="5.31"/>
      <circle class="cls-1" cx="874.99" cy="99.33" r="5.31"/>
      <circle class="cls-1" cx="646.9" cy="68.96" r="5.31"/>
      <circle class="cls-1" cx="497.17" cy="155.62" r="5.31"/>
      <circle class="cls-1" cx="80.64" cy="245.89" r="5.31"/>
      <circle class="cls-1" cx="692.59" cy="125.5" r="5.31"/>
      <circle class="cls-1" cx="705.77" cy="189.83" r="5.31"/>
      <circle class="cls-1" cx="809.04" cy="84.59" r="5.31"/>
      <circle class="cls-1" cx="1053.85" cy="207.14" r="5.31"/>
      <circle class="cls-1" cx="951.45" cy="74.26" r="5.31"/>
      <circle class="cls-1" cx="1031.47" cy="109.94" r="5.31"/>
      <circle class="cls-1" cx="545.7" cy="176.82" r="5.31"/>
      <circle class="cls-1" cx="596.49" cy="281.62" r="5.31"/>
      <circle class="cls-1" cx="346.74" cy="231.37" r="5.31"/>
      <g>
        <circle class="cls-1" cx="538.48" cy="58.84" r="2.43"/>
        <circle class="cls-1" cx="508.61" cy="72.39" r="2.43"/>
        <circle class="cls-1" cx="281.86" cy="46.81" r="2.43"/>
        <circle class="cls-1" cx="313.08" cy="64.24" r="2.43"/>
        <circle class="cls-1" cx="172.59" cy="43.75" r="2.43"/>
        <circle class="cls-1" cx="125.98" cy="35.5" r="2.43"/>
        <circle class="cls-1" cx="57.97" cy="44.37" r="2.43"/>
        <circle class="cls-1" cx="451.48" cy="52.79" r="2.43"/>
        <circle class="cls-1" cx="404.27" cy="34.43" r="2.43"/>
        <circle class="cls-1" cx="484.97" cy="74.75" r="2.43"/>
        <circle class="cls-1" cx="478.37" cy="125.7" r="2.43"/>
        <circle class="cls-1" cx="347.81" cy="150.13" r="2.43"/>
        <circle class="cls-1" cx="252.94" cy="132.18" r="2.43"/>
        <circle class="cls-1" cx="185.33" cy="88.09" r="2.43"/>
        <circle class="cls-1" cx="125.98" cy="86.52" r="2.43"/>
        <circle class="cls-1" cx="28.79" cy="110.04" r="2.43"/>
        <circle class="cls-1" cx="16.59" cy="71" r="2.43"/>
        <circle class="cls-1" cx="399.41" cy="52.79" r="2.43"/>
        <circle class="cls-1" cx="423.44" cy="69.96" r="2.43"/>
        <circle class="cls-1" cx="421.01" cy="99.81" r="2.43"/>
        <circle class="cls-1" cx="354.09" cy="43.75" r="2.43"/>
        <circle class="cls-1" cx="139.93" cy="68.57" r="2.43"/>
        <circle class="cls-1" cx="244.46" cy="54.65" r="2.43"/>
        <circle class="cls-1" cx="313.08" cy="94.36" r="2.43"/>
        <circle class="cls-1" cx="503.96" cy="135.73" r="2.43"/>
        <circle class="cls-1" cx="223.52" cy="80.56" r="2.43"/>
        <circle class="cls-1" cx="217.48" cy="110.04" r="2.43"/>
        <circle class="cls-1" cx="170.16" cy="61.81" r="2.43"/>
        <circle class="cls-1" cx="57.97" cy="117.97" r="2.43"/>
        <circle class="cls-1" cx="104.89" cy="57.08" r="2.43"/>
        <circle class="cls-1" cx="68.22" cy="73.43" r="2.43"/>
        <circle class="cls-1" cx="290.84" cy="104.08" r="2.43"/>
        <circle class="cls-1" cx="267.56" cy="152.11" r="2.43"/>
        <circle class="cls-1" cx="382.02" cy="129.08" r="2.43"/>
      </g>
      <g>
        <circle class="cls-1" cx="672.35" cy="110.1" r="2.43"/>
        <circle class="cls-1" cx="642.48" cy="123.66" r="2.43"/>
        <circle class="cls-1" cx="415.73" cy="98.07" r="2.43"/>
        <circle class="cls-1" cx="446.94" cy="115.51" r="2.43"/>
        <circle class="cls-1" cx="306.45" cy="95.01" r="2.43"/>
        <circle class="cls-1" cx="259.84" cy="86.77" r="2.43"/>
        <circle class="cls-1" cx="191.83" cy="95.64" r="2.43"/>
        <circle class="cls-1" cx="585.34" cy="104.05" r="2.43"/>
        <circle class="cls-1" cx="538.14" cy="85.7" r="2.43"/>
        <circle class="cls-1" cx="618.84" cy="126.01" r="2.43"/>
        <circle class="cls-1" cx="612.23" cy="176.96" r="2.43"/>
        <circle class="cls-1" cx="481.67" cy="201.39" r="2.43"/>
        <circle class="cls-1" cx="386.8" cy="183.45" r="2.43"/>
        <circle class="cls-1" cx="319.19" cy="139.36" r="2.43"/>
        <circle class="cls-1" cx="259.84" cy="137.79" r="2.43"/>
        <circle class="cls-1" cx="162.65" cy="161.31" r="2.43"/>
        <circle class="cls-1" cx="150.45" cy="122.26" r="2.43"/>
        <circle class="cls-1" cx="533.27" cy="104.05" r="2.43"/>
        <circle class="cls-1" cx="557.3" cy="121.23" r="2.43"/>
        <circle class="cls-1" cx="554.87" cy="151.07" r="2.43"/>
        <circle class="cls-1" cx="487.95" cy="95.01" r="2.43"/>
        <circle class="cls-1" cx="273.8" cy="119.83" r="2.43"/>
        <circle class="cls-1" cx="378.32" cy="105.91" r="2.43"/>
        <circle class="cls-1" cx="446.94" cy="145.63" r="2.43"/>
        <circle class="cls-1" cx="637.82" cy="187" r="2.43"/>
        <circle class="cls-1" cx="357.38" cy="131.82" r="2.43"/>
        <circle class="cls-1" cx="351.34" cy="161.31" r="2.43"/>
        <circle class="cls-1" cx="304.02" cy="113.08" r="2.43"/>
        <circle class="cls-1" cx="191.83" cy="169.24" r="2.43"/>
        <circle class="cls-1" cx="238.75" cy="108.34" r="2.43"/>
        <circle class="cls-1" cx="202.08" cy="124.7" r="2.43"/>
        <circle class="cls-1" cx="424.7" cy="155.35" r="2.43"/>
        <circle class="cls-1" cx="401.42" cy="203.37" r="2.43"/>
        <circle class="cls-1" cx="515.88" cy="180.34" r="2.43"/>
      </g>
      <g>
        <circle class="cls-1" cx="815.82" cy="26.84" r="2.43"/>
        <circle class="cls-1" cx="785.95" cy="40.39" r="2.43"/>
        <circle class="cls-1" cx="559.2" cy="14.81" r="2.43"/>
        <circle class="cls-1" cx="590.41" cy="32.25" r="2.43"/>
        <circle class="cls-1" cx="449.92" cy="11.75" r="2.43"/>
        <circle class="cls-1" cx="403.31" cy="3.51" r="2.43"/>
        <circle class="cls-1" cx="335.3" cy="12.38" r="2.43"/>
        <circle class="cls-1" cx="728.81" cy="20.79" r="2.43"/>
        <circle class="cls-1" cx="681.6" cy="2.43" r="2.43"/>
        <circle class="cls-1" cx="762.31" cy="42.75" r="2.43"/>
        <circle class="cls-1" cx="755.7" cy="93.7" r="2.43"/>
        <circle class="cls-1" cx="625.14" cy="118.13" r="2.43"/>
        <circle class="cls-1" cx="530.27" cy="100.19" r="2.43"/>
        <circle class="cls-1" cx="462.66" cy="56.1" r="2.43"/>
        <circle class="cls-1" cx="403.31" cy="54.53" r="2.43"/>
        <circle class="cls-1" cx="306.12" cy="78.04" r="2.43"/>
        <circle class="cls-1" cx="293.92" cy="39" r="2.43"/>
        <circle class="cls-1" cx="676.74" cy="20.79" r="2.43"/>
        <circle class="cls-1" cx="700.77" cy="37.96" r="2.43"/>
        <circle class="cls-1" cx="698.34" cy="67.81" r="2.43"/>
        <circle class="cls-1" cx="631.42" cy="11.75" r="2.43"/>
        <circle class="cls-1" cx="417.26" cy="36.57" r="2.43"/>
        <circle class="cls-1" cx="521.79" cy="22.65" r="2.43"/>
        <circle class="cls-1" cx="590.41" cy="62.37" r="2.43"/>
        <circle class="cls-1" cx="781.29" cy="103.73" r="2.43"/>
        <circle class="cls-1" cx="500.85" cy="48.56" r="2.43"/>
        <circle class="cls-1" cx="494.81" cy="78.04" r="2.43"/>
        <circle class="cls-1" cx="447.49" cy="29.81" r="2.43"/>
        <circle class="cls-1" cx="335.3" cy="85.97" r="2.43"/>
        <circle class="cls-1" cx="382.22" cy="25.08" r="2.43"/>
        <circle class="cls-1" cx="345.55" cy="41.43" r="2.43"/>
        <circle class="cls-1" cx="568.17" cy="72.08" r="2.43"/>
        <circle class="cls-1" cx="544.89" cy="120.11" r="2.43"/>
        <circle class="cls-1" cx="659.35" cy="97.08" r="2.43"/>
      </g>
      <g>
        <circle class="cls-1" cx="545.52" cy="215.66" r="2.43"/>
        <circle class="cls-1" cx="515.65" cy="229.22" r="2.43"/>
        <circle class="cls-1" cx="288.9" cy="203.63" r="2.43"/>
        <circle class="cls-1" cx="320.11" cy="221.07" r="2.43"/>
        <circle class="cls-1" cx="179.62" cy="200.57" r="2.43"/>
        <circle class="cls-1" cx="133.02" cy="192.33" r="2.43"/>
        <circle class="cls-1" cx="65" cy="201.2" r="2.43"/>
        <circle class="cls-1" cx="458.52" cy="209.61" r="2.43"/>
        <circle class="cls-1" cx="411.31" cy="191.26" r="2.43"/>
        <circle class="cls-1" cx="492.01" cy="231.57" r="2.43"/>
        <circle class="cls-1" cx="485.4" cy="282.52" r="2.43"/>
        <circle class="cls-1" cx="354.85" cy="306.95" r="2.43"/>
        <circle class="cls-1" cx="259.97" cy="289.01" r="2.43"/>
        <circle class="cls-1" cx="192.36" cy="244.92" r="2.43"/>
        <circle class="cls-1" cx="133.02" cy="243.35" r="2.43"/>
        <circle class="cls-1" cx="35.83" cy="266.87" r="2.43"/>
        <circle class="cls-1" cx="23.62" cy="227.82" r="2.43"/>
        <circle class="cls-1" cx="406.44" cy="209.61" r="2.43"/>
        <circle class="cls-1" cx="430.47" cy="226.79" r="2.43"/>
        <circle class="cls-1" cx="428.04" cy="256.63" r="2.43"/>
        <circle class="cls-1" cx="361.12" cy="200.57" r="2.43"/>
        <circle class="cls-1" cx="146.97" cy="225.39" r="2.43"/>
        <circle class="cls-1" cx="251.5" cy="211.47" r="2.43"/>
        <circle class="cls-1" cx="320.11" cy="251.19" r="2.43"/>
        <circle class="cls-1" cx="511" cy="292.56" r="2.43"/>
        <circle class="cls-1" cx="230.55" cy="237.38" r="2.43"/>
        <circle class="cls-1" cx="224.51" cy="266.87" r="2.43"/>
        <circle class="cls-1" cx="177.19" cy="218.64" r="2.43"/>
        <circle class="cls-1" cx="65" cy="274.8" r="2.43"/>
        <circle class="cls-1" cx="111.93" cy="213.9" r="2.43"/>
        <circle class="cls-1" cx="75.26" cy="230.26" r="2.43"/>
        <circle class="cls-1" cx="297.87" cy="260.91" r="2.43"/>
        <circle class="cls-1" cx="274.6" cy="308.93" r="2.43"/>
        <circle class="cls-1" cx="389.05" cy="285.9" r="2.43"/>
      </g>
      <g>
        <circle class="cls-1" cx="22.81" cy="192.03" r="2.43"/>
        <circle class="cls-1" cx="52.68" cy="205.58" r="2.43"/>
        <circle class="cls-1" cx="279.43" cy="179.99" r="2.43"/>
        <circle class="cls-1" cx="248.22" cy="197.43" r="2.43"/>
        <circle class="cls-1" cx="388.71" cy="176.93" r="2.43"/>
        <circle class="cls-1" cx="435.31" cy="168.69" r="2.43"/>
        <circle class="cls-1" cx="503.33" cy="177.56" r="2.43"/>
        <circle class="cls-1" cx="109.81" cy="185.97" r="2.43"/>
        <circle class="cls-1" cx="157.02" cy="167.62" r="2.43"/>
        <circle class="cls-1" cx="76.32" cy="207.94" r="2.43"/>
        <circle class="cls-1" cx="82.93" cy="258.88" r="2.43"/>
        <circle class="cls-1" cx="213.49" cy="283.32" r="2.43"/>
        <circle class="cls-1" cx="308.36" cy="265.37" r="2.43"/>
        <circle class="cls-1" cx="375.97" cy="221.28" r="2.43"/>
        <circle class="cls-1" cx="435.31" cy="219.71" r="2.43"/>
        <circle class="cls-1" cx="532.5" cy="243.23" r="2.43"/>
        <circle class="cls-1" cx="544.71" cy="204.19" r="2.43"/>
        <circle class="cls-1" cx="161.89" cy="185.97" r="2.43"/>
        <circle class="cls-1" cx="137.86" cy="203.15" r="2.43"/>
        <circle class="cls-1" cx="140.29" cy="233" r="2.43"/>
        <circle class="cls-1" cx="207.21" cy="176.93" r="2.43"/>
        <circle class="cls-1" cx="421.36" cy="201.76" r="2.43"/>
        <circle class="cls-1" cx="316.84" cy="187.84" r="2.43"/>
        <circle class="cls-1" cx="248.22" cy="227.55" r="2.43"/>
        <circle class="cls-1" cx="57.34" cy="268.92" r="2.43"/>
        <circle class="cls-1" cx="337.78" cy="213.75" r="2.43"/>
        <circle class="cls-1" cx="343.82" cy="243.23" r="2.43"/>
        <circle class="cls-1" cx="391.14" cy="195" r="2.43"/>
        <circle class="cls-1" cx="503.33" cy="251.16" r="2.43"/>
        <circle class="cls-1" cx="456.4" cy="190.27" r="2.43"/>
        <circle class="cls-1" cx="493.07" cy="206.62" r="2.43"/>
        <circle class="cls-1" cx="270.46" cy="237.27" r="2.43"/>
        <circle class="cls-1" cx="293.73" cy="285.29" r="2.43"/>
        <circle class="cls-1" cx="179.28" cy="262.27" r="2.43"/>
      </g>
      <g>
        <circle class="cls-1" cx="482.02" cy="129.59" r="2.43"/>
        <circle class="cls-1" cx="511.89" cy="143.15" r="2.43"/>
        <circle class="cls-1" cx="738.64" cy="117.56" r="2.43"/>
        <circle class="cls-1" cx="707.43" cy="135" r="2.43"/>
        <circle class="cls-1" cx="847.92" cy="114.5" r="2.43"/>
        <circle class="cls-1" cx="894.52" cy="106.26" r="2.43"/>
        <circle class="cls-1" cx="962.54" cy="115.13" r="2.43"/>
        <circle class="cls-1" cx="569.02" cy="123.54" r="2.43"/>
        <circle class="cls-1" cx="616.23" cy="105.18" r="2.43"/>
        <circle class="cls-1" cx="535.53" cy="145.5" r="2.43"/>
        <circle class="cls-1" cx="542.14" cy="196.45" r="2.43"/>
        <circle class="cls-1" cx="672.69" cy="220.88" r="2.43"/>
        <circle class="cls-1" cx="767.57" cy="202.94" r="2.43"/>
        <circle class="cls-1" cx="835.18" cy="158.85" r="2.43"/>
        <circle class="cls-1" cx="894.52" cy="157.28" r="2.43"/>
        <circle class="cls-1" cx="991.71" cy="180.79" r="2.43"/>
        <circle class="cls-1" cx="1003.92" cy="141.75" r="2.43"/>
        <circle class="cls-1" cx="621.09" cy="123.54" r="2.43"/>
        <circle class="cls-1" cx="597.07" cy="140.71" r="2.43"/>
        <circle class="cls-1" cx="599.5" cy="170.56" r="2.43"/>
        <circle class="cls-1" cx="666.42" cy="114.5" r="2.43"/>
        <circle class="cls-1" cx="880.57" cy="139.32" r="2.43"/>
        <circle class="cls-1" cx="776.04" cy="125.4" r="2.43"/>
        <circle class="cls-1" cx="707.43" cy="165.12" r="2.43"/>
        <circle class="cls-1" cx="516.54" cy="206.48" r="2.43"/>
        <circle class="cls-1" cx="796.99" cy="151.31" r="2.43"/>
        <circle class="cls-1" cx="803.03" cy="180.79" r="2.43"/>
        <circle class="cls-1" cx="850.35" cy="132.57" r="2.43"/>
        <circle class="cls-1" cx="962.54" cy="188.73" r="2.43"/>
        <circle class="cls-1" cx="915.61" cy="127.83" r="2.43"/>
        <circle class="cls-1" cx="952.28" cy="144.18" r="2.43"/>
        <circle class="cls-1" cx="729.67" cy="174.83" r="2.43"/>
        <circle class="cls-1" cx="752.94" cy="222.86" r="2.43"/>
        <circle class="cls-1" cx="638.49" cy="199.83" r="2.43"/>
      </g>
      <g>
        <circle class="cls-1" cx="563.15" cy="46.13" r="2.43"/>
        <circle class="cls-1" cx="593.02" cy="59.68" r="2.43"/>
        <circle class="cls-1" cx="819.77" cy="34.1" r="2.43"/>
        <circle class="cls-1" cx="788.55" cy="51.54" r="2.43"/>
        <circle class="cls-1" cx="929.04" cy="31.04" r="2.43"/>
        <circle class="cls-1" cx="975.65" cy="22.8" r="2.43"/>
        <circle class="cls-1" cx="1043.66" cy="31.67" r="2.43"/>
        <circle class="cls-1" cx="650.15" cy="40.08" r="2.43"/>
        <circle class="cls-1" cx="697.36" cy="21.72" r="2.43"/>
        <circle class="cls-1" cx="616.66" cy="62.04" r="2.43"/>
        <circle class="cls-1" cx="623.26" cy="112.99" r="2.43"/>
        <circle class="cls-1" cx="753.82" cy="137.42" r="2.43"/>
        <circle class="cls-1" cx="848.7" cy="119.47" r="2.43"/>
        <circle class="cls-1" cx="916.3" cy="75.39" r="2.43"/>
        <circle class="cls-1" cx="975.65" cy="73.82" r="2.43"/>
        <circle class="cls-1" cx="1072.84" cy="97.33" r="2.43"/>
        <circle class="cls-1" cx="1085.04" cy="58.29" r="2.43"/>
        <circle class="cls-1" cx="702.22" cy="40.08" r="2.43"/>
        <circle class="cls-1" cx="678.19" cy="57.25" r="2.43"/>
        <circle class="cls-1" cx="680.63" cy="87.1" r="2.43"/>
        <circle class="cls-1" cx="747.54" cy="31.04" r="2.43"/>
        <circle class="cls-1" cx="961.7" cy="55.86" r="2.43"/>
        <circle class="cls-1" cx="857.17" cy="41.94" r="2.43"/>
        <circle class="cls-1" cx="788.55" cy="81.66" r="2.43"/>
        <circle class="cls-1" cx="597.67" cy="123.02" r="2.43"/>
        <circle class="cls-1" cx="878.11" cy="67.85" r="2.43"/>
        <circle class="cls-1" cx="884.15" cy="97.33" r="2.43"/>
        <circle class="cls-1" cx="931.47" cy="49.1" r="2.43"/>
        <circle class="cls-1" cx="1043.66" cy="105.26" r="2.43"/>
        <circle class="cls-1" cx="996.74" cy="44.37" r="2.43"/>
        <circle class="cls-1" cx="1033.41" cy="60.72" r="2.43"/>
        <circle class="cls-1" cx="810.79" cy="91.37" r="2.43"/>
        <circle class="cls-1" cx="834.07" cy="139.4" r="2.43"/>
        <circle class="cls-1" cx="719.62" cy="116.37" r="2.43"/>
      </g>
      <g>
        <circle class="cls-1" cx="630.33" cy="229.81" r="2.43"/>
        <circle class="cls-1" cx="660.2" cy="243.36" r="2.43"/>
        <circle class="cls-1" cx="886.95" cy="217.78" r="2.43"/>
        <circle class="cls-1" cx="855.74" cy="235.22" r="2.43"/>
        <circle class="cls-1" cx="996.23" cy="214.72" r="2.43"/>
        <circle class="cls-1" cx="1042.83" cy="206.48" r="2.43"/>
        <circle class="cls-1" cx="1110.85" cy="215.35" r="2.43"/>
        <circle class="cls-1" cx="717.33" cy="223.76" r="2.43"/>
        <circle class="cls-1" cx="764.54" cy="205.4" r="2.43"/>
        <circle class="cls-1" cx="683.84" cy="245.72" r="2.43"/>
        <circle class="cls-1" cx="690.45" cy="296.67" r="2.43"/>
        <circle class="cls-1" cx="821.01" cy="321.1" r="2.43"/>
        <circle class="cls-1" cx="915.88" cy="303.15" r="2.43"/>
        <circle class="cls-1" cx="983.49" cy="259.07" r="2.43"/>
        <circle class="cls-1" cx="1042.83" cy="257.5" r="2.43"/>
        <circle class="cls-1" cx="1140.03" cy="281.01" r="2.43"/>
        <circle class="cls-1" cx="1152.23" cy="241.97" r="2.43"/>
        <circle class="cls-1" cx="769.41" cy="223.76" r="2.43"/>
        <circle class="cls-1" cx="745.38" cy="240.93" r="2.43"/>
        <circle class="cls-1" cx="747.81" cy="270.78" r="2.43"/>
        <circle class="cls-1" cx="814.73" cy="214.72" r="2.43"/>
        <circle class="cls-1" cx="1028.88" cy="239.54" r="2.43"/>
        <circle class="cls-1" cx="924.36" cy="225.62" r="2.43"/>
        <circle class="cls-1" cx="855.74" cy="265.34" r="2.43"/>
        <circle class="cls-1" cx="664.86" cy="306.7" r="2.43"/>
        <circle class="cls-1" cx="945.3" cy="251.53" r="2.43"/>
        <circle class="cls-1" cx="951.34" cy="281.01" r="2.43"/>
        <circle class="cls-1" cx="998.66" cy="232.78" r="2.43"/>
        <circle class="cls-1" cx="1110.85" cy="288.94" r="2.43"/>
        <circle class="cls-1" cx="1063.93" cy="228.05" r="2.43"/>
        <circle class="cls-1" cx="1100.6" cy="244.4" r="2.43"/>
        <circle class="cls-1" cx="877.98" cy="275.05" r="2.43"/>
        <circle class="cls-1" cx="901.26" cy="323.08" r="2.43"/>
        <circle class="cls-1" cx="786.8" cy="300.05" r="2.43"/>
      </g>
      <g>
        <circle class="cls-1" cx="649.28" cy="228.71" r="2.43"/>
        <circle class="cls-1" cx="679.15" cy="242.27" r="2.43"/>
        <circle class="cls-1" cx="905.9" cy="216.68" r="2.43"/>
        <circle class="cls-1" cx="874.68" cy="234.12" r="2.43"/>
        <circle class="cls-1" cx="1015.17" cy="213.62" r="2.43"/>
        <circle class="cls-1" cx="1061.78" cy="205.38" r="2.43"/>
        <circle class="cls-1" cx="1129.8" cy="214.25" r="2.43"/>
        <circle class="cls-1" cx="736.28" cy="222.66" r="2.43"/>
        <circle class="cls-1" cx="783.49" cy="204.3" r="2.43"/>
        <circle class="cls-1" cx="702.79" cy="244.62" r="2.43"/>
        <circle class="cls-1" cx="709.4" cy="295.57" r="2.43"/>
        <circle class="cls-1" cx="839.95" cy="320" r="2.43"/>
        <circle class="cls-1" cx="934.83" cy="302.06" r="2.43"/>
        <circle class="cls-1" cx="1002.43" cy="257.97" r="2.43"/>
        <circle class="cls-1" cx="1061.78" cy="256.4" r="2.43"/>
        <circle class="cls-1" cx="1158.97" cy="279.92" r="2.43"/>
        <circle class="cls-1" cx="1171.17" cy="240.87" r="2.43"/>
        <circle class="cls-1" cx="788.35" cy="222.66" r="2.43"/>
        <circle class="cls-1" cx="764.33" cy="239.84" r="2.43"/>
        <circle class="cls-1" cx="766.76" cy="269.68" r="2.43"/>
        <circle class="cls-1" cx="833.68" cy="213.62" r="2.43"/>
        <circle class="cls-1" cx="1047.83" cy="238.44" r="2.43"/>
        <circle class="cls-1" cx="943.3" cy="224.52" r="2.43"/>
        <circle class="cls-1" cx="874.68" cy="264.24" r="2.43"/>
        <circle class="cls-1" cx="683.8" cy="305.6" r="2.43"/>
        <circle class="cls-1" cx="964.24" cy="250.43" r="2.43"/>
        <circle class="cls-1" cx="970.28" cy="279.92" r="2.43"/>
        <circle class="cls-1" cx="1017.6" cy="231.69" r="2.43"/>
        <circle class="cls-1" cx="1129.8" cy="287.85" r="2.43"/>
        <circle class="cls-1" cx="1082.87" cy="226.95" r="2.43"/>
        <circle class="cls-1" cx="1119.54" cy="243.3" r="2.43"/>
        <circle class="cls-1" cx="896.92" cy="273.95" r="2.43"/>
        <circle class="cls-1" cx="920.2" cy="321.98" r="2.43"/>
        <circle class="cls-1" cx="805.75" cy="298.95" r="2.43"/>
      </g>
    </g>
  </g>
</svg>
