<?xml version="1.0" encoding="utf-8"?>
<!-- Generator: Adobe Illustrator 19.2.0, SVG Export Plug-In . SVG Version: 6.00 Build 0)  -->
<svg version="1.1" id="Layer_11" xmlns="http://www.w3.org/2000/svg" xmlns:xlink="http://www.w3.org/1999/xlink" x="0px" y="0px"
	 viewBox="0 0 3908.2 1080" style="enable-background:new 0 0 3908.2 1080;" xml:space="preserve">
<style type="text/css">
	.stjarna0{fill:#F7931E;}
	.stjarna1{fill:#F15A24;}
	.stjarna2{enable-background:new    ;}
	.stjarna3{fill:#FFFFFF;}
</style>
<polygon class="stjarna0" points="3664.2,456.3 3681.9,478.4 3710.2,478.4 3703.9,506 3721.5,528.1 3696,540.4 3689.7,568 3664.2,555.7 
	3638.7,568 3632.4,540.4 3606.9,528.1 3624.6,506 3618.3,478.4 3646.6,478.4 "/>
<polygon class="stjarna1" points="3664.2,464.6 3679.2,483.4 3703.3,483.4 3697.9,506.9 3713,525.7 3691.3,536.2 3685.9,559.7 
	3664.2,549.2 3642.5,559.7 3637.2,536.2 3615.5,525.7 3630.5,506.9 3625.1,483.4 3649.2,483.4 "/>
<polygon class="stjarna0" points="3664.2,478.7 3674.8,491.9 3691.7,491.9 3687.9,508.5 3698.5,521.7 3683.2,529 3679.5,545.6 
	3664.2,538.2 3649,545.6 3645.2,529 3629.9,521.7 3640.5,508.5 3636.7,491.9 3653.7,491.9 "/>
<g class="stjarna2">
	<path class="stjarna3" d="M3660.8,507c0,2.1-0.7,4.3-3,7.1c-2.7,3.2-3.7,4-6.1,6.6c-0.1,0.1-0.1,0.3,0.2,0.4c1,0.2,3.7,0.2,5.8,0.2
		c1.9,0,2.8-0.1,3.4-0.2c0.7-0.1,1.1-0.4,1.7-1.1c0.3-0.5,0.5-0.6,0.6-0.6c0.2,0,0.2,0.6,0,1c-0.3,0.7-1.3,4.4-1.4,4.7
		c-0.1,0.4-0.8,0.4-1.1,0.4c-1.3,0-6.4-0.2-8.2-0.2c-0.5,0-3.6,0-3.9,0c-1.1,0-1.5,0-1.7-0.2c-0.2-0.2,0.1-0.5,0.4-0.8
		c1.8-1.9,3.5-3.4,5.7-6.4c2.1-2.9,3.1-5.2,3.1-8.6c0-2.3-1.3-5-4.1-5c-1.5,0-2.9,0.5-4.1,1.9c-0.3,0.3-0.5,0.5-0.7,0.5
		c-0.2,0-0.1-0.4,0.1-0.9c0.7-1.3,1.8-2.4,2.6-3.1c1.1-0.9,2.8-1.6,4.4-1.6C3658.5,500.9,3660.8,504.1,3660.8,507z"/>
	<path class="stjarna3" d="M3678.5,516.7c0,0.1,0.1,0.2,0.2,0.2c0.4,0,2.6-0.1,3.1-0.1c0,0,0.1,0.1,0.1,0.3c0,0.2-0.1,1-0.4,1.2l-2.9,0
		c0,0-0.2,0.1-0.2,0.3c0,1.1,0,2.3,0,3.4c0.1,2.2,0.2,2.4,1.7,2.6c0.3,0,0.7,0.2,0.7,0.4c0,0-0.1,0.3-0.7,0.3c-1,0-3.3-0.1-4.4-0.1
		c-1.8,0-3.1,0.2-4.2,0.2c-0.3,0-0.7-0.2-0.7-0.3c0-0.2,0.2-0.3,0.7-0.4c1.4-0.3,1.7-0.5,1.8-3c0.1-1,0.1-2.2,0.1-3.1
		c0-0.1,0-0.3-0.2-0.3c-4.5,0-7.6,0.1-8.6,0.2c-0.2,0-0.5-0.2-0.5-0.3c0-0.1,0.1-0.2,0.6-0.9l12.2-17.1c0.2-0.2,0.4-0.5,0.7-0.5h0.3
		c0.7,0,0.3,0.4,0.2,0.7l-12,16.4c0,0.1,0,0.2,0.2,0.2c0.3,0.1,5.6,0.1,7.1,0.1c0,0,0.2,0,0.2-0.2v-6.4c0-0.3,0-0.9,0.4-1.2
		c0.4-0.3,2.9-1.3,4-1.3c0.2,0,0.4,0.3,0.4,1L3678.5,516.7z"/>
</g>
</svg>
