<?xml version="1.0" encoding="utf-8"?>
<!-- Generator: Adobe Illustrator 19.2.0, SVG Export Plug-In . SVG Version: 6.00 Build 0)  -->
<svg version="1.1" id="Skilti" xmlns="http://www.w3.org/2000/svg" xmlns:xlink="http://www.w3.org/1999/xlink" x="0px" y="0px"
	 viewBox="0 0 409 229.6" style="enable-background:new 0 0 409 229.6;" xml:space="preserve">
<style type="text/css">
	.velkomin0{fill:url(#SVGID_1_);}
	.velkomin1{fill:#0071BC;}
	.velkomin2{fill:url(#SVGID_2_);}
</style>
<linearGradient id="SVGID_1_" gradientUnits="userSpaceOnUse" x1="204.3819" y1="223.7693" x2="204.3819" y2="5.6125">
	<stop  offset="8.276866e-02" style="stop-color:#FFFFFF;stop-opacity:0"/>
	<stop  offset="0.1922" style="stop-color:#FFFFFB;stop-opacity:0.1131"/>
	<stop  offset="0.2963" style="stop-color:#FFFFF0;stop-opacity:0.2206"/>
	<stop  offset="0.3982" style="stop-color:#FFFFDD;stop-opacity:0.326"/>
	<stop  offset="0.4989" style="stop-color:#FFFFC2;stop-opacity:0.43"/>
	<stop  offset="0.5988" style="stop-color:#FFFF9F;stop-opacity:0.5332"/>
	<stop  offset="0.6979" style="stop-color:#FFFF74;stop-opacity:0.6356"/>
	<stop  offset="0.7965" style="stop-color:#FFFF41;stop-opacity:0.7375"/>
	<stop  offset="0.8924" style="stop-color:#FFFF08;stop-opacity:0.8366"/>
	<stop  offset="0.9054" style="stop-color:#FFFF00;stop-opacity:0.85"/>
</linearGradient>
<path class="velkomin0" d="M282.8,223.8l-156.9,0L6,77.1c0-95.3,396.8-95.3,396.8,0L282.8,223.8z"/>
<g>
	<path class="velkomin1" d="M22.2,67.8c0.4-0.4,1.8-1.5,2.9-2.5c0.7-0.7,2.2-2.2,2.7-2.7c0.3-0.3,0.6-0.4,0.8-0.2c0.2,0.2,0.2,0.5-0.1,1
		c-0.6,1.1-0.4,1.3,0.5,1.9c1.3,0.7,8.9,4.2,10,4.5c0.1,0,0.2-0.2,0.2-0.2c-0.1-0.4-2.8-7.9-3.7-9.8c-0.8-1.7-1.4-1.2-2.5-0.8
		c-0.3,0.1-0.7,0.2-0.9,0.1c-0.1-0.2-0.1-0.6,0.2-0.9c0.8-0.7,1.3-1,2-1.7c0.6-0.6,1.4-1.5,1.9-1.9c0.4-0.4,0.8-0.5,1-0.3
		s0.1,0.5-0.2,1c-0.8,1.2-0.8,2-0.3,3.8c0.3,0.8,1.8,5.8,3.5,10.3c0.6,1.5,1.4,3.6,2.1,5.1c0.1,0.3,0.2,1-0.1,1.2
		c-0.3,0.3-1,0-1.1-0.1c-0.5-0.3-2.1-1.1-4.2-2.2c-2.6-1.3-7.3-3.3-10.8-4.8c-1.4-0.6-2.1-0.8-3.4-0.1c-0.3,0.2-0.7,0.4-1,0.1
		C21.7,68.5,21.8,68.1,22.2,67.8z"/>
	<path class="velkomin1" d="M50,55.9c1,0.2,1.9,0.8,2.4,1.7c0.1,0.2,0.1,0.9-0.2,1.1c-0.3,0.2-4.2,2.6-5.4,3.4c-0.2,0.1-0.2,0.3-0.2,0.4
		c0.1,0.2,0.3,0.6,0.5,1c0.2,0.4,1.2,1.4,2,1.7c1.2,0.4,2.5,0.1,3.6-0.5c1-0.6,1.6-1.4,1.7-2.3c0-0.2,0-0.4,0.1-0.5
		c0.1,0,0.4,0.1,0.5,0.2c0.1,0.1,0.2,0.4,0.2,0.7c0,1.7-0.4,3.6-2.8,5.1c-3,1.9-6.2,0.7-8-2.2c-1.3-2.1-1.4-4.8,0.2-7.2
		c0.4-0.7,1.1-1.3,1.8-1.8C47.6,55.9,49,55.7,50,55.9z M46,61.1c0.1,0.1,0.3,0.2,0.4,0.1c0.7-0.4,1.2-0.7,2.5-1.5
		c0.3-0.2,0.7-0.9,0.3-1.5c-0.4-0.7-1.6-1.1-2.2-0.8C45.8,58,45.5,59.8,46,61.1z"/>
	<path class="velkomin1" d="M50,46.1c1-0.8,2.4-1.8,3.2-3.2c0.1-0.1,0.5,0,0.5,0.1c0.4,1.1,3.5,7.8,5.6,12c0.6,1.2,2,4,2.5,4.8
		c0.4,0.6,0.7,0.9,1.8,0.7c0.4,0,0.7,0,0.8,0.2c0.1,0.3-0.3,0.6-0.6,0.7c-0.6,0.3-2.5,1-2.9,1.3c-0.6,0.3-2,1.1-2.5,1.4
		c-0.6,0.3-0.9,0.2-1,0.1c-0.2-0.4,0.2-0.6,0.4-0.8c0.6-0.6,0.7-1,0-2.5c-0.5-1.3-2-4.4-4.1-8.7c-0.6-1.2-1.7-3.5-2.1-4.3
		c-0.2-0.4-0.5-0.4-1.2-0.6C50,47,49.8,47,49.7,46.8C49.7,46.7,49.8,46.3,50,46.1z"/>
	<path class="velkomin1" d="M70.4,45.8c1.6-0.6,3.4-1.6,4.1-1.9c0.1-0.1,0.3-0.1,0.4,0.1c0.1,0.3-0.2,0.9-0.3,0.9c-1.5,1-2.1,1.6-3,3
		c-0.3,0.4-0.8,1.6-0.9,1.9c0,0.1,0,0.2,0,0.2c0.3,0.3,4.8,3.3,6.3,3.9c0.7,0.3,1.2,0.4,2,0.3c0.5,0,0.8,0.1,0.9,0.2
		c0.1,0.4-0.1,0.6-0.8,0.9c-0.7,0.3-2.8,0.9-4.2,1.5l-1.4,0.6c-0.3,0.1-0.8,0.2-0.9-0.1c-0.1-0.2,0-0.3,0.4-0.7
		c0.3-0.3,0.4-0.5,0.1-0.7c-1.4-1-1.9-1.3-3.9-2.6c-0.4-0.3-0.5-0.4-0.6-0.3c-0.1,0,0,0.1,0,0.3c0,0.3,1.1,2.9,1.3,3.3
		c0.3,0.5,0.5,0.9,1.4,0.8c0.3,0,0.7,0.1,0.8,0.2c0.2,0.4-0.3,0.7-0.6,0.8c-0.7,0.3-2.2,0.7-2.8,1c-1,0.4-2.4,1.1-2.6,1.1
		c-0.7,0.3-0.9,0.2-1-0.1c-0.1-0.3,0.4-0.7,0.7-0.9c0.6-0.5,0.8-0.9,0.5-1.7c-0.2-0.5-1.5-4.5-3-8.2c-1.4-3.6-2.2-5.4-2.6-6.2
		c-0.1-0.3-0.4-0.4-1.2-0.5c-0.3,0-0.7-0.4-0.7-0.5c0-0.1,0.1-0.3,0.3-0.4c1.1-0.7,2.8-2,3.3-2.6c0.2-0.2,0.3-0.5,0.5-0.5
		c0.1,0,0.4,0.2,0.4,0.3c0.2,0.9,2.7,7.6,3.8,10.6c0.2,0.4,0.8,2.2,1.1,2.5c0.1,0.1,0.2,0.1,0.3,0.1s0.2-0.2,0.3-0.4
		c0.5-0.9,1.6-3.6,1.9-4.4c0.1-0.2,0-0.6-0.9-0.4c-0.5,0.1-0.9-0.1-0.9-0.2c-0.1-0.2,0.1-0.5,0.4-0.6L70.4,45.8z"/>
	<path class="velkomin1" d="M91.1,45.3c0.7,2.4-0.3,4.6-1.1,5.6c-0.9,1.2-2.5,2-3.8,2.4c-1.3,0.4-3.2,0.3-4.5-0.3c-1.5-0.6-3-2.1-3.5-3.8
		c-0.6-1.9-0.2-3.8,0.6-5c0.6-1,2-2.5,4.2-3.2C85.9,40.2,89.9,41.5,91.1,45.3z M81.8,43.1c-0.5,0.8-0.6,2.1,0.1,4.1
		c0.3,0.9,0.8,2.1,1.2,2.7c1.1,1.8,2.6,2.4,3.7,2c0.3-0.1,0.7-0.5,0.8-0.9c0.3-0.9,0.3-2.4-0.3-4.3c-0.3-1.1-1.2-3-2.3-4
		c-0.6-0.5-1.4-0.9-2.2-0.6C82.4,42.4,82.1,42.7,81.8,43.1z"/>
	<path class="velkomin1" d="M93,39.5c0.7-0.4,2.5-1.6,3.3-2.2c0.1-0.1,0.2,0,0.3,0c0.2,0.1,0.3,0.3,0.3,0.4c0.1,0.4,0.1,0.8,0.2,1.1
		c0,0.1,0.2,0.2,0.3,0.1c1.1-1.4,2.1-2.3,3.6-2.6c0.8-0.2,1.7-0.1,2.2,0.1s1,0.7,1.2,1c0,0.1,0.2,0,0.2,0c0.4-0.5,1.2-1.2,1.8-1.8
		c0.6-0.5,1-0.7,1.6-0.8c1.2-0.3,2,0,2.8,0.5c1,0.6,1.5,1.6,1.8,2.7c0.2,0.7,1.1,4.3,1.5,5.9c0.1,0.5,0.5,0.8,1.2,0.9
		c0.4,0,0.7,0.2,0.7,0.3c0.1,0.2-0.2,0.5-0.7,0.6c-0.6,0.1-1.7,0.3-2.5,0.4c-1,0.2-1.9,0.5-2.6,0.7c-0.6,0.1-0.8-0.1-0.8-0.3
		c0-0.2,0.2-0.4,0.5-0.6c0.6-0.4,0.7-0.6,0.5-1.8c-0.2-0.8-0.9-4.1-1.2-5c-0.1-0.2-0.2-0.8-0.7-1.3c-0.5-0.5-1.2-0.8-1.9-0.6
		c-0.9,0.2-1.2,0.6-1.5,0.9c-0.1,0.1-0.1,0.6,0,1c0,0.2,1.3,5.6,1.5,6.2c0.3,0.9,0.4,1.1,1.6,1.2c0.3,0,0.6,0.1,0.7,0.3
		c0,0.2-0.2,0.5-0.7,0.6c-0.7,0.2-2.2,0.4-2.9,0.6c-0.6,0.1-1.9,0.5-2.5,0.6c-0.8,0.2-0.9,0-1-0.3c0-0.1,0.2-0.4,0.5-0.6
		c0.6-0.4,0.9-0.7,0.6-1.8l-1-4.7c-0.3-1.4-0.7-1.8-0.8-2c-0.5-0.4-1.2-0.7-2-0.5c-0.5,0.1-1.2,0.6-1.4,0.8
		c-0.1,0.2-0.2,0.5-0.1,0.7c0.6,2.5,1,4.6,1.5,6.8c0.2,0.7,0.5,0.9,1.3,1c0.6,0,0.7,0.1,0.8,0.4c0,0.2-0.3,0.5-0.7,0.6
		c-0.1,0-2,0.4-3.1,0.7c-1,0.2-2,0.6-2.6,0.7c-0.4,0.1-0.9,0.1-0.9-0.2c0-0.2,0.2-0.4,0.6-0.7c1-0.5,0.9-0.9,0.8-2.1
		c-0.1-0.8-0.4-2.8-1.1-5.6c-0.1-0.3-0.2-0.5-0.3-0.6c-0.8-0.5-1.3-0.9-1.3-1C92.6,40,92.9,39.6,93,39.5z"/>
	<path class="velkomin1" d="M117.1,34.1c1.2-0.5,3.2-1.6,3.6-1.8c0.1-0.1,0.3,0.2,0.4,0.3c0.1,1.3,0.8,5.4,1.1,7.1
		c0.1,0.6,0.3,1.5,0.5,2.5c0.2,0.9,0.4,1,1.2,1.1c0.5,0.1,0.7,0.2,0.8,0.5c0,0.3-0.4,0.5-0.8,0.6c-0.2,0-1.9,0.2-2.5,0.4
		c-0.9,0.2-2.5,0.6-3,0.7c-0.5,0.1-0.9-0.1-0.9-0.3c0-0.2,0.1-0.4,0.7-0.7c0.7-0.3,0.8-0.8,0.9-1.1c0-0.4-0.3-2.7-0.8-5.4
		c-0.2-0.9-0.2-1.4-0.4-1.7c-0.1-0.2-0.5-0.5-1.1-0.9c-0.2-0.2-0.5-0.3-0.5-0.5C116.2,34.6,116.5,34.3,117.1,34.1z M120.2,28
		c0.2,1.1-0.8,2.2-1.6,2.3c-0.3,0.1-1,0-1.4-0.3c-0.4-0.3-0.8-0.7-0.9-1.3c-0.1-0.4,0-1,0.3-1.5c0.3-0.4,0.9-0.8,1.5-0.9
		C119.3,26.1,120.1,27.3,120.2,28z"/>
	<path class="velkomin1" d="M125.7,32.6c0.6-0.3,2-1,2.4-1.3c0.5-0.3,0.9-0.6,1.1-0.7c0.1,0,0.4,0.3,0.5,0.4c0,0.2,0.1,1,0.1,1.2
		c0,0.2,0.3,0.1,0.3,0.1c1.1-1.1,2.1-1.9,3.5-2.1c1.5-0.2,2.5,0.4,2.9,0.8c0.8,0.7,1.4,1.9,1.6,3.4c0.1,0.7,0.8,5,0.9,5.4
		c0.1,0.4,0.3,0.7,1.1,0.8c0.6,0.1,0.8,0.2,0.9,0.4c0,0.2-0.2,0.5-0.8,0.6c-0.7,0.1-2.1,0.2-2.9,0.4c-0.7,0.1-2,0.4-2.5,0.4
		c-0.5,0.1-0.9,0.1-0.9-0.3c0-0.2,0.3-0.4,0.6-0.6c0.6-0.3,0.7-0.7,0.6-1.6c-0.1-1-0.6-4.7-0.7-5.6c-0.1-0.4-0.3-1.1-0.8-1.5
		c-0.4-0.3-1.1-0.5-1.7-0.4c-0.9,0.1-1.2,0.4-1.6,0.7c-0.1,0.1-0.2,0.5-0.2,0.7c0,0.5,1,6.9,1.1,7.3c0.1,0.4,0.2,0.6,1.1,0.8
		c0.3,0.1,0.5,0.3,0.5,0.4c0,0.2-0.3,0.5-0.8,0.6c-0.7,0.1-1.9,0.2-2.5,0.3c-1.1,0.2-2.4,0.4-2.9,0.5c-0.5,0.1-0.9-0.1-0.9-0.4
		c0-0.2,0.2-0.4,0.6-0.6c0.9-0.5,1-0.7,0.9-1.8c0-0.9-0.3-3.2-0.7-6.2c0-0.3-0.4-0.6-1.1-1.1c-0.2-0.2-0.2-0.2-0.3-0.3
		C125.2,33.2,125.5,32.8,125.7,32.6z"/>
	<path class="velkomin1" d="M149,29.5c1.3-0.4,3.3-1.3,3.8-1.5c0.1,0,0.3,0.2,0.3,0.3c0,1.3,0.4,5.4,0.6,7.1c0.1,0.6,0.2,1.5,0.3,2.5
		c0.1,0.9,0.3,1,1.1,1.2c0.5,0.1,0.7,0.3,0.7,0.5c0,0.3-0.4,0.5-0.9,0.5c-0.2,0-1.9,0.1-2.5,0.2c-1,0.1-2.6,0.4-3.1,0.4
		c-0.5,0-0.9-0.1-0.9-0.3c0-0.2,0.2-0.4,0.8-0.7c0.7-0.3,0.9-0.7,1-1c0.1-0.4-0.1-2.7-0.4-5.4c-0.1-0.9-0.1-1.4-0.2-1.7
		c-0.1-0.2-0.4-0.5-1-1c-0.2-0.2-0.4-0.3-0.4-0.5C148.1,30,148.5,29.7,149,29.5z M152.3,20.7c0.4,0,1.4,0,1.4,0.4
		c0,0.2,0,0.5-0.2,0.9c-0.5,1.1-2.2,4.1-2.7,4.8c-0.2,0.2-0.5,0.5-0.8,0.5s-0.4-0.3-0.2-1c0.2-1.1,1.3-4.3,1.6-5
		C151.5,21.1,151.9,20.7,152.3,20.7z"/>
	<path class="velkomin1" d="M164.3,28.3c0.8-0.3,2.8-1.1,3.6-1.6c0.1-0.1,0.2,0,0.3,0c0.2,0.1,0.2,0.4,0.2,0.4c0,0.4,0,0.8,0,1.1
		c0,0.1,0.2,0.3,0.2,0.2c1.3-1.2,2.5-1.9,3.9-2c0.9,0,1.7,0.2,2.2,0.5c0.5,0.3,0.9,0.9,1.1,1.2c0,0.1,0.2,0,0.2,0
		c0.5-0.4,1.4-1,2.1-1.4c0.7-0.4,1.1-0.5,1.7-0.5c1.3-0.1,2,0.4,2.6,1c0.9,0.8,1.2,1.8,1.4,3c0.1,0.7,0.4,4.4,0.5,6
		c0.1,0.5,0.3,0.9,1,1.1c0.4,0.1,0.6,0.3,0.6,0.4c0,0.2-0.3,0.4-0.8,0.5c-0.6,0-1.7,0-2.6,0c-1,0.1-1.9,0.2-2.6,0.2
		c-0.6,0-0.8-0.2-0.8-0.4c0-0.2,0.2-0.4,0.6-0.5c0.7-0.2,0.8-0.5,0.8-1.7c0-0.8-0.2-4.2-0.3-5.2c0-0.2,0-0.9-0.4-1.4
		c-0.4-0.5-1-1-1.8-0.9c-0.9,0.1-1.3,0.4-1.6,0.6c-0.1,0.1-0.2,0.6-0.2,0.9c0,0.2,0.3,5.7,0.4,6.3c0.1,1,0.2,1.2,1.3,1.5
		c0.3,0.1,0.6,0.2,0.6,0.4c0,0.2-0.3,0.4-0.8,0.5c-0.7,0-2.3,0-2.9,0.1c-0.6,0-2,0.2-2.6,0.2c-0.8,0-0.9-0.2-0.9-0.4
		c0-0.1,0.2-0.3,0.6-0.5c0.7-0.3,1-0.6,0.9-1.6l-0.2-4.8c0-1.4-0.3-1.9-0.5-2.1c-0.4-0.5-1.1-0.9-1.8-0.9c-0.5,0-1.2,0.4-1.5,0.6
		c-0.1,0.1-0.2,0.5-0.2,0.7c0.1,2.5,0.3,4.7,0.4,6.9c0,0.7,0.4,1,1.1,1.2c0.6,0.1,0.7,0.3,0.7,0.5c0,0.2-0.4,0.5-0.8,0.5
		c-0.1,0-2.1,0.1-3.2,0.1c-1,0.1-2,0.2-2.7,0.3c-0.4,0-0.9-0.1-0.9-0.4c0-0.2,0.2-0.4,0.8-0.6c1.1-0.3,1.1-0.7,1.1-2
		c0-0.8,0.1-2.8-0.1-5.7c0-0.3-0.1-0.5-0.2-0.6c-0.7-0.7-1.1-1.1-1.1-1.3S164.2,28.4,164.3,28.3z"/>
	<path class="velkomin1" d="M188.8,26.9c1.3-0.3,3.4-1.1,3.9-1.2c0.1,0,0.3,0.2,0.3,0.3c-0.1,1.3,0,5.4,0,7.2c0,0.6,0.1,1.5,0.1,2.5
		c0.1,0.9,0.3,1,1,1.3c0.5,0.1,0.7,0.3,0.7,0.6s-0.4,0.4-0.9,0.4c-0.2,0-1.9,0-2.6,0c-1,0-2.6,0.2-3.1,0.2c-0.5,0-0.9-0.2-0.9-0.4
		c0-0.2,0.2-0.4,0.8-0.6c0.7-0.2,0.9-0.6,1-0.9c0.1-0.4,0.1-2.7,0.1-5.4c0-0.9,0-1.4-0.1-1.7c0-0.2-0.4-0.6-1-1.1
		c-0.2-0.2-0.4-0.4-0.4-0.6C187.9,27.3,188.3,27,188.8,26.9z M192.9,21.4c0,1.1-1.1,2-1.9,2.1c-0.3,0-1-0.2-1.3-0.5
		c-0.4-0.3-0.6-0.8-0.7-1.5c0-0.4,0.1-1,0.5-1.4c0.4-0.4,1-0.7,1.6-0.7C192.3,19.4,192.9,20.7,192.9,21.4z"/>
	<path class="velkomin1" d="M198.4,16.8c2,0,4.4,1.2,6.3,2.4c0.1,0,0.4,0,0.5,0c1-0.5,2-1,3-1.5c0.2-0.1,0.3,0,0.3,0.1
		c0.1,0.2,0.2,0.4,0.2,0.6c0,0.2-0.1,0.4-0.5,0.6c-0.7,0.4-1.3,0.7-2,1.1c-0.1,0.1-0.1,0.3-0.1,0.3c2.4,2.6,4,6.4,4,9.5
		c0,4-1.6,6.3-3,7.2c-1.2,0.8-2.4,1.2-3.7,1.2c-4.4,0-6.7-2.9-6.7-6.1c0-1.8,0.7-3.2,1.1-3.8c1.2-1.7,3.2-2.8,6-2.8
		c0.5,0,1.1,0.1,1.3,0.1c0.1,0,0.2-0.2,0.2-0.2c-0.2-1.3-0.8-2.6-1.7-3.8c-0.1-0.1-0.1-0.1-0.3-0.1c-1,0.5-1.9,1-2.9,1.5
		c-0.1,0.1-0.5,0.2-0.6,0.1c-0.1-0.1-0.4-0.4-0.4-0.5c0-0.1,0-0.2,0.2-0.3c1-0.5,1.9-1,2.9-1.5c0.1,0,0.1-0.2,0-0.3
		c-1.4-1.2-2.9-2.4-4.4-2.6c-0.2,0-0.6-0.2-0.6-0.4C197.6,17.1,198.1,16.8,198.4,16.8z M201.9,27.7c-0.5,0.8-1,2.2-0.9,4.3
		c0,2.6,1.3,5.2,2.8,5.2c1,0,1.3-0.7,1.7-1.5c0.3-0.6,0.6-2.6,0.6-3.9c0-2.5-0.3-3.4-0.6-4c-0.4-0.5-1.1-1.1-2-1.1
		C202.8,26.7,202.1,27.4,201.9,27.7z"/>
	<path class="velkomin1" d="M223.4,37.3c-1.3,0.9-3.4,1.2-4.6,1.2c-1.1,0-3-0.4-4.1-0.8c-0.1-0.1-0.3,0-0.6,0.1c-0.2,0.1-0.3,0.1-0.4,0.1
		c-0.1,0-0.4-0.2-0.4-0.4c0.2-2.3,0.4-7.6,0.5-10c0.1-2.9,0.2-6.4,0.1-6.8c0-0.2-0.1-0.5-0.5-0.9c-0.6-0.5-0.9-0.7-0.9-0.8
		c0-0.3,0.3-0.5,0.6-0.6c1.1-0.2,2.5-0.4,3.7-1c0.6-0.3,0.9-0.4,1.1-0.4c0.1,0,0.3,0.3,0.3,0.5c-0.2,2.2-0.4,4.5-0.5,6.8
		c0,0.6,0,1.3-0.1,2.1c0,0.2,0.1,0.2,0.1,0.2c0.9-0.5,2.3-0.8,3.1-0.8c1.6,0,3,0.6,3.9,1.4c1.3,1.2,2,2.7,1.9,4.8
		C226.4,34.6,224.9,36.3,223.4,37.3z M221.2,28.8c-0.4-0.6-1.5-1.3-2.6-1.4c-0.3,0-0.6,0-0.9,0.1c-0.1,0.1-0.2,0.3-0.2,0.3
		c-0.1,0.5-0.1,1-0.1,1.6c-0.1,2.6,0,4.7,0.1,5.5c0,0.2,0.2,1.2,0.9,1.8c0.5,0.5,1,0.6,1.4,0.6c0.2,0,0.7-0.2,1.3-0.8
		c0.8-0.9,1.2-2.5,1.2-4C222.3,31.4,222,29.8,221.2,28.8z"/>
	<path class="velkomin1" d="M242.7,33.4c-0.2,2.5-1.9,4.2-3,4.9c-1.3,0.8-3,1-4.4,1c-1.3-0.1-3.1-0.8-4.1-1.8c-1.2-1.1-2.1-3-2-4.8
		c0.1-2,1.2-3.6,2.3-4.5c0.9-0.7,2.7-1.6,5.1-1.5C239.7,26.8,243,29.4,242.7,33.4z M234.8,28.1c-0.7,0.6-1.2,1.8-1.4,3.9
		c-0.1,1,0,2.2,0.2,3c0.4,2.1,1.6,3.1,2.8,3.2c0.3,0,0.8-0.2,1.1-0.6c0.6-0.7,1.1-2.2,1.2-4.1c0.1-1.1,0-3.2-0.8-4.5
		c-0.4-0.7-1-1.3-1.9-1.3C235.5,27.6,235.2,27.8,234.8,28.1z"/>
	<path class="velkomin1" d="M246,28.6c1.3-0.3,2.8-0.6,3.5-0.9c0.3-0.2,0.7-0.3,0.8-0.3c0.2,0,0.4,0.3,0.4,0.4c0,0.5-0.2,1.1-0.3,1.7
		c0,0.1,0.2,0.3,0.3,0.1c0.9-0.9,2.3-1.7,3.2-1.6c1.3,0.1,1.7,1,1.7,1.5c0,0.1-0.1,0.4-0.2,0.5c-0.4,0.5-1.5,1.8-1.8,1.8
		c-0.1,0-0.5-0.1-0.6-0.2c-0.3-0.4-1.3-1.1-1.9-1.1c-0.1,0-0.3,0-0.5,0c-0.2,0.1-0.3,0.2-0.3,0.5c-0.1,0.6-0.4,5.7-0.4,6.1
		c0,1,0.2,1.5,0.5,1.6c0.2,0.1,0.9,0.4,1.2,0.5c0.5,0.2,0.6,0.4,0.6,0.6c0,0.3-0.5,0.4-0.9,0.3c-1-0.1-2.8-0.4-4.6-0.6
		c-0.5,0-1.3,0-2-0.1c-0.4,0-0.8-0.2-0.7-0.5c0-0.2,0.5-0.4,0.8-0.4c1-0.3,1.1-0.6,1.3-2.4c0.1-0.7,0.2-2.6,0.4-4.5
		c0.1-0.7,0-1.1-0.1-1.3c-0.3-0.4-1-1.1-1-1.3C245.6,29.1,245.7,28.7,246,28.6z"/>
	<path class="velkomin1" d="M266.2,29.7c0.3,0.1,0.6,0.3,0.8,0.3c0.7,0.1,2.8,0.5,3.3,0.6c0.2,0.1,0.3,0.2,0.3,0.4
		c-0.1,0.4-0.7,1.2-0.8,1.1c-0.2,0-0.9-0.1-1.6-0.2c-0.1,0-0.2,0.2-0.2,0.2c0,0.3,0.1,0.7,0,1.2c-0.2,1.6-0.9,2.7-2.2,3.5
		c-1.5,0.8-3.2,0.8-3.9,0.7c-0.2,0-1-0.1-1.3-0.2c-0.2-0.1-0.3-0.1-0.4,0c-0.2,0.1-0.4,0.4-0.5,0.6c-0.1,0.5,0.6,1.1,1,1.1
		c1.3,0.2,4.8,0.7,5.6,1c0.4,0.1,1,0.4,1.5,0.9c0.7,0.8,1.1,1.8,1,2.9c-0.3,2.5-2.5,3.9-3.8,4.5c-1.6,0.7-3.2,1-4.8,0.8
		c-1.7-0.2-2.7-0.7-3.6-1.4c-1-0.8-1.5-1.9-1.3-2.9c0.1-0.9,0.6-1.3,1.2-1.6c0.5-0.2,1.5-0.6,1.9-0.8c0.1,0,0.2-0.2,0.1-0.2
		c-0.3-0.1-0.8-0.4-1.2-0.7c-0.7-0.6-1-1.5-0.9-2.6c0-0.1,0.2-0.3,0.3-0.4c0.2-0.1,2.2-1,2.7-1.5c0,0,0.1-0.2,0-0.3
		c-0.8-0.5-2.3-1.9-2.1-4c0.2-1.3,0.9-2.4,2.2-3.1c1-0.6,2.3-0.9,4-0.7C264.6,29,265.4,29.4,266.2,29.7z M264.1,47.6
		c1-0.4,1.4-1.3,1.5-2c0.1-0.4-0.1-1.1-0.4-1.4c-0.4-0.5-0.8-0.7-1.6-0.9c-1.1-0.3-1.4-0.3-3.1-0.5c-0.5-0.1-1.1,0-1.4,0.2
		c-0.5,0.4-0.8,0.9-0.9,1.6c-0.1,0.8,0.2,1.6,0.8,2.1c0.7,0.7,1.8,1.1,2.8,1.2C262.4,47.9,263.2,47.9,264.1,47.6z M261.8,30.2
		c-0.5,0.6-0.8,1.4-0.9,2.4c-0.2,2.1,0.5,4,1.7,4.1c0.2,0,0.6-0.1,0.9-0.3c0.4-0.4,0.8-1.6,1-2.9c0-0.4,0-1.9-0.4-2.6
		c-0.3-0.6-0.7-1.1-1.3-1.2C262.5,29.7,262.1,29.9,261.8,30.2z"/>
	<path class="velkomin1" d="M273.2,31.4c1.3-0.1,3.5-0.5,4-0.5c0.2,0,0.3,0.3,0.2,0.4c-0.3,1.3-0.9,5.4-1.1,7.1c-0.1,0.6-0.2,1.5-0.3,2.5
		c-0.1,0.9,0.1,1.1,0.8,1.4c0.4,0.2,0.6,0.4,0.6,0.7c0,0.3-0.5,0.4-1,0.3c-0.2,0-1.9-0.4-2.5-0.5c-1-0.1-2.6-0.3-3.1-0.3
		c-0.5-0.1-0.8-0.3-0.8-0.5c0-0.2,0.3-0.4,0.9-0.4c0.7-0.1,1-0.5,1.2-0.7c0.2-0.4,0.6-2.6,1-5.3c0.1-0.9,0.2-1.4,0.2-1.7
		c0-0.2-0.3-0.6-0.8-1.2c-0.1-0.2-0.3-0.4-0.3-0.6C272.2,31.6,272.6,31.4,273.2,31.4z M278.1,26.6c-0.2,1.1-1.4,1.8-2.2,1.7
		c-0.3,0-0.9-0.3-1.2-0.7c-0.3-0.4-0.5-0.9-0.4-1.5c0.1-0.4,0.3-1,0.7-1.3c0.4-0.3,1.1-0.5,1.7-0.4
		C277.8,24.5,278.2,25.9,278.1,26.6z"/>
	<path class="velkomin1" d="M281.8,32.7c0.7-0.1,2.2-0.3,2.7-0.5c0.6-0.1,1.1-0.3,1.2-0.3c0.1,0,0.3,0.4,0.3,0.5c0,0.2-0.2,0.9-0.2,1.2
		c0,0.2,0.2,0.2,0.2,0.2c1.3-0.7,2.6-1.2,3.9-0.9c1.4,0.3,2.2,1.2,2.5,1.7c0.5,0.9,0.7,2.2,0.4,3.7c-0.1,0.6-0.8,5-0.9,5.4
		c0,0.5,0.1,0.8,0.8,1.1c0.5,0.2,0.7,0.4,0.7,0.7c0,0.2-0.4,0.4-0.9,0.3c-0.7-0.1-2.1-0.4-2.9-0.6c-0.7-0.1-2.1-0.3-2.5-0.3
		c-0.5-0.1-0.8-0.2-0.8-0.6c0-0.2,0.4-0.3,0.8-0.4c0.7-0.1,0.9-0.4,1.1-1.4s0.9-4.7,1.1-5.5c0.1-0.4,0.1-1.1-0.3-1.7
		c-0.3-0.4-0.9-0.8-1.5-0.9c-0.9-0.2-1.3,0-1.7,0.1c-0.1,0-0.3,0.4-0.4,0.6c-0.2,0.5-1.2,6.9-1.2,7.3c0,0.4,0,0.6,0.8,1.1
		c0.2,0.2,0.4,0.4,0.4,0.6c0,0.2-0.4,0.4-0.9,0.3c-0.7-0.1-1.9-0.4-2.5-0.5c-1.1-0.2-2.4-0.3-2.9-0.4c-0.5-0.1-0.8-0.4-0.7-0.6
		c0-0.2,0.4-0.3,0.7-0.4c1-0.2,1.2-0.3,1.5-1.4c0.2-0.9,0.7-3.1,1.3-6.1c0.1-0.3-0.2-0.6-0.7-1.4c-0.1-0.2-0.2-0.3-0.1-0.4
		C281.2,33.1,281.6,32.8,281.8,32.7z"/>
	<path class="velkomin1" d="M306.3,38.1c0.2,0.5,0.4,1.4,0.1,2.7c-0.3,1.1-1.1,4.5-1.2,4.8c-0.1,0.6,0.2,1.1,0.8,1.3c0.2,0,0.8-0.1,1-0.1
		c0.1,0,0.1,0,0.2,0.1c0.1,0.1,0,0.4,0,0.5c-0.1,0.6-1.9,1.7-3.7,1.3c-0.9-0.2-1.8-0.6-2-1.9c0-0.2-0.2-0.2-0.3-0.2
		c-0.6,0.3-1.9,0.6-2.4,0.7c-0.4,0.1-0.9,0.1-1.4,0c-1.1-0.2-2.1-1.9-1.7-3.6c0.1-0.5,0.5-1.1,0.9-1.4c0.4-0.3,1-0.4,1.1-0.5
		c0.8-0.2,3.8-0.3,4.5-0.3c0.2,0,0.5-0.2,0.5-0.3c0.1-0.3,0.5-1.8,0.5-2.2c0.1-0.7-0.1-2-1.4-2.2c-0.3-0.1-0.6-0.1-0.9,0
		c-0.1,0-0.2,0.2-0.5,1.4c0,0.1-0.1,0.2-0.1,0.2c-0.2,0.1-3,0.7-3.2,0.6c-0.2,0-0.4-0.3-0.3-0.5c0.2-0.8,0.9-1.5,3.3-2.3
		c1.3-0.5,2.9-0.5,3.3-0.4C305.3,36.1,306,37.4,306.3,38.1z M301.2,45.9c0.1-0.1,0.2-0.3,0.3-0.4c0.1-0.3,0.5-1.6,0.7-2.8
		c0-0.1-0.1-0.3-0.1-0.3c-0.3-0.1-1.8,0-2.2,0.2c-0.4,0.2-0.6,0.3-0.8,1.1c-0.3,1.3,0.6,2.2,1.1,2.3C300.4,46,301.1,46,301.2,45.9z"
		/>
	<path class="velkomin1" d="M328.7,49.1c-0.7,2.4-2.8,3.7-4.1,4.1c-1.4,0.4-3.2,0.3-4.5-0.1c-1.3-0.4-2.8-1.5-3.6-2.7
		c-0.9-1.4-1.3-3.4-0.8-5.1c0.6-1.9,2-3.2,3.3-3.8c1.1-0.5,3-1,5.3-0.3C327.2,42,329.8,45.3,328.7,49.1z M322.1,42.2
		c-0.8,0.4-1.6,1.4-2.2,3.5c-0.3,0.9-0.5,2.2-0.5,2.9c0,2.1,0.8,3.4,2,3.8c0.3,0.1,0.9-0.1,1.2-0.3c0.8-0.6,1.6-1.9,2.2-3.7
		c0.3-1.1,0.7-3.1,0.3-4.6c-0.2-0.8-0.7-1.5-1.5-1.7C323,41.9,322.6,41.9,322.1,42.2z"/>
	<path class="velkomin1" d="M341.8,47.7c1.6,0.6,3.6,1.1,4.3,1.4c0.1,0.1,0.3,0.2,0.2,0.3c-0.1,0.3-0.8,0.5-0.9,0.5
		c-1.8-0.3-2.7-0.2-4.2,0.2c-0.5,0.1-1.7,0.6-1.9,0.8c0,0-0.1,0.2-0.1,0.2c0,0.4,1.3,5.7,2,7.1c0.3,0.7,0.6,1.1,1.2,1.6
		c0.4,0.3,0.6,0.6,0.5,0.7c-0.1,0.4-0.5,0.4-1.1,0.1c-0.7-0.3-2.7-1.2-4.1-1.8l-1.4-0.5c-0.3-0.1-0.7-0.3-0.6-0.7
		c0.1-0.2,0.2-0.2,0.8-0.2c0.4,0,0.7-0.1,0.6-0.4c-0.4-1.7-0.5-2.2-1.1-4.6c-0.1-0.5-0.1-0.6-0.3-0.7c-0.1,0-0.1,0.1-0.2,0.2
		c-0.2,0.2-1.2,2.9-1.3,3.3c-0.1,0.6-0.2,1,0.5,1.5c0.3,0.2,0.5,0.5,0.4,0.6c-0.2,0.4-0.7,0.3-1,0.2c-0.7-0.3-2.1-0.9-2.8-1.2
		c-1-0.4-2.5-0.8-2.7-0.9c-0.7-0.3-0.8-0.5-0.7-0.7c0.1-0.3,0.7-0.2,1.1-0.2c0.8,0.1,1.2-0.1,1.5-0.9c0.2-0.5,1.9-4.4,3.4-8
		c1.4-3.6,2-5.5,2.3-6.4c0.1-0.3,0-0.6-0.5-1.1c-0.2-0.2-0.2-0.7-0.2-0.8c0-0.1,0.3-0.1,0.5-0.1c1.3,0.2,3.4,0.4,4.2,0.3
		c0.3,0,0.6-0.1,0.7-0.1c0.1,0,0.2,0.4,0.1,0.5c-0.5,0.8-3.2,7.4-4.3,10.4c-0.2,0.4-0.9,2.1-0.9,2.6c0,0.2,0.1,0.2,0.2,0.2
		c0.1,0,0.2,0,0.5-0.1c1-0.3,3.6-1.6,4.4-1.9c0.2-0.1,0.4-0.4-0.4-0.9c-0.5-0.3-0.6-0.6-0.5-0.8c0.1-0.2,0.4-0.3,0.7-0.1L341.8,47.7
		z"/>
	<path class="velkomin1" d="M356.9,54.9c1.5,0.8,3.5,1.5,4.1,1.8c0.1,0.1,0.2,0.2,0.2,0.4c-0.2,0.3-0.8,0.4-0.9,0.4
		c-1.8-0.5-2.6-0.5-4.2-0.3c-0.5,0.1-1.7,0.4-2,0.6c-0.1,0-0.1,0.2-0.1,0.2c0,0.4,0.6,5.8,1.1,7.3c0.3,0.7,0.5,1.2,1,1.7
		c0.4,0.4,0.5,0.7,0.4,0.8c-0.2,0.3-0.5,0.3-1.2,0c-0.6-0.3-2.5-1.5-3.9-2.2l-1.3-0.7c-0.3-0.1-0.7-0.4-0.5-0.7
		c0.1-0.2,0.2-0.2,0.8-0.1c0.4,0.1,0.7-0.1,0.6-0.4c-0.2-1.7-0.3-2.3-0.6-4.7c0-0.5-0.1-0.6-0.2-0.7c-0.1,0-0.1,0.1-0.3,0.2
		c-0.2,0.2-1.5,2.7-1.6,3.2c-0.2,0.5-0.3,0.9,0.3,1.5c0.2,0.2,0.4,0.6,0.3,0.7c-0.2,0.4-0.7,0.2-1,0c-0.7-0.3-2-1.2-2.6-1.5
		c-0.9-0.5-2.4-1.1-2.6-1.2c-0.7-0.3-0.7-0.6-0.6-0.8c0.1-0.3,0.7-0.2,1.1-0.1c0.8,0.2,1.2,0,1.6-0.7c0.3-0.5,2.4-4.1,4.2-7.6
		c1.8-3.4,2.7-5.2,3-6.1c0.1-0.3,0.1-0.5-0.4-1.2c-0.2-0.3-0.2-0.7-0.1-0.9c0-0.1,0.3-0.1,0.6,0c1.3,0.4,3.3,0.8,4.1,0.8
		c0.3,0,0.6,0,0.7,0c0.1,0,0.2,0.4,0.1,0.5c-0.6,0.8-4,7-5.5,9.8c-0.2,0.4-1.1,2-1.2,2.5c0,0.1,0,0.2,0.1,0.2c0.1,0.1,0.2,0,0.5-0.1
		c1.1-0.2,3.8-1.2,4.6-1.4c0.2-0.1,0.4-0.4-0.3-0.9c-0.4-0.4-0.5-0.7-0.5-0.8c0.1-0.2,0.4-0.2,0.7-0.1L356.9,54.9z"/>
	<path class="velkomin1" d="M370.3,65.5c0,0.5-0.2,1.4-1.1,2.5c-0.7,0.9-2.9,3.6-3.1,3.8c-0.3,0.5-0.3,1.1,0.2,1.5c0.1,0.1,0.7,0.3,1,0.3
		c0.1,0,0.1,0,0.1,0.1c0,0.1-0.1,0.4-0.2,0.5c-0.3,0.5-2.4,0.8-3.9-0.4c-0.7-0.6-1.4-1.3-1-2.6c0-0.2-0.1-0.3-0.2-0.3
		c-0.7,0-2-0.3-2.5-0.4c-0.4-0.1-0.9-0.3-1.3-0.6c-0.9-0.7-1.1-2.6,0-4c0.3-0.4,0.9-0.8,1.4-0.9c0.5-0.1,1,0,1.2,0.1
		c0.8,0.2,3.6,1.4,4.2,1.6c0.2,0.1,0.5,0,0.6-0.1c0.2-0.2,1.2-1.4,1.4-1.7c0.4-0.6,0.7-1.8-0.3-2.6c-0.2-0.2-0.5-0.3-0.8-0.4
		c-0.1,0-0.3,0.1-1,1.1c-0.1,0.1-0.1,0.1-0.2,0.1c-0.3,0-3-0.6-3.2-0.8c-0.1-0.1-0.2-0.4-0.1-0.6c0.5-0.7,1.5-1,3.9-0.7
		c1.4,0.1,2.9,0.8,3.1,1C370.3,63.3,370.4,64.7,370.3,65.5z M362.5,70.4c0.1,0,0.3-0.2,0.5-0.3c0.2-0.2,1.1-1.2,1.8-2.2
		c0.1-0.1,0.1-0.3,0-0.3c-0.3-0.2-1.6-0.7-2.1-0.7s-0.7,0-1.2,0.6c-0.8,1-0.4,2.2,0,2.5C361.7,70.2,362.3,70.4,362.5,70.4z"/>
	<path class="velkomin1" d="M375.3,69.6c1,0.8,2.3,1.7,3.1,2c0.4,0.1,0.7,0.3,0.7,0.4c0.1,0.2,0,0.5,0,0.6c-0.4,0.3-0.9,0.6-1.4,1
		c0,0-0.1,0.3,0.1,0.3c1.2,0.1,2.8,0.6,3.4,1.3c0.8,1.1,0.5,2,0.1,2.3c-0.1,0.1-0.3,0.1-0.5,0.2c-0.6,0.1-2.4,0.1-2.5-0.1
		c-0.1-0.1-0.3-0.4-0.3-0.5c0.1-0.4-0.1-1.7-0.5-2.2c-0.1-0.1-0.2-0.3-0.4-0.3s-0.3,0-0.6,0.2c-0.5,0.4-4.4,3.6-4.8,3.9
		c-0.7,0.7-1,1.2-0.9,1.5c0.1,0.2,0.3,0.9,0.4,1.2c0.2,0.5,0.1,0.7,0,0.8c-0.2,0.2-0.6-0.1-0.8-0.4c-0.6-0.8-1.6-2.3-2.7-3.7
		c-0.3-0.4-0.8-0.9-1.3-1.5c-0.2-0.3-0.4-0.7-0.1-0.9c0.2-0.1,0.6,0.1,0.8,0.3c0.9,0.6,1.2,0.4,2.7-0.7c0.6-0.5,2-1.6,3.6-2.8
		c0.5-0.4,0.8-0.8,0.9-0.9c0.1-0.5,0.2-1.5,0.2-1.6C374.6,69.6,375,69.4,375.3,69.6z"/>
</g>
<linearGradient id="SVGID_2_" gradientUnits="userSpaceOnUse" x1="-304.6181" y1="223.7693" x2="-304.6181" y2="5.6125">
	<stop  offset="8.276866e-02" style="stop-color:#FFFFFF;stop-opacity:0"/>
	<stop  offset="0.1922" style="stop-color:#FFFFFB;stop-opacity:0.1131"/>
	<stop  offset="0.2963" style="stop-color:#FFFFF0;stop-opacity:0.2206"/>
	<stop  offset="0.3982" style="stop-color:#FFFFDD;stop-opacity:0.326"/>
	<stop  offset="0.4989" style="stop-color:#FFFFC2;stop-opacity:0.43"/>
	<stop  offset="0.5988" style="stop-color:#FFFF9F;stop-opacity:0.5332"/>
	<stop  offset="0.6979" style="stop-color:#FFFF74;stop-opacity:0.6356"/>
	<stop  offset="0.7965" style="stop-color:#FFFF41;stop-opacity:0.7375"/>
	<stop  offset="0.8924" style="stop-color:#FFFF08;stop-opacity:0.8366"/>
	<stop  offset="0.9054" style="stop-color:#FFFF00;stop-opacity:0.85"/>
</linearGradient>
<path class="velkomin2" d="M-226.2,223.8l-156.9,0L-503,77.1c0-95.3,396.8-95.3,396.8,0L-226.2,223.8z"/>
<path id="SVGID_x5F_3_x5F_" style="fill:none;" d="M-472.9,82.5c14.9-25.4,84.2-44.6,167.5-44.6c86.3,0,157.6,20.6,168.9,47.4"/>
<text><textPath  xlink:href="#SVGID_x5F_3_x5F_" startOffset="1.220703e-02%">
<tspan  class="velkomin1" style="font-family:'GaramondPremrPro-Bd'; font-size:30px; letter-spacing:20;">Velkomin í miðborgina okkar</tspan></textPath>
</text>
</svg>
