<?xml version="1.0" encoding="utf-8"?>
<!-- Generator: Adobe Illustrator 23.0.6, SVG Export Plug-In . SVG Version: 6.00 Build 0)  -->
<svg id="gluggastuff18" class="gluggastuff" version="1.1" xmlns="http://www.w3.org/2000/svg" xmlns:xlink="http://www.w3.org/1999/xlink" x="0px" y="0px"
	 viewBox="0 0 3908.2 1080" style="enable-background:new 0 0 3908.2 1080;" xml:space="preserve">
<style type="text/css">
	.gluggaSkraut18-0{fill:#69B376;}
	.gluggaSkraut18-1{fill:#363636;}
	.gluggaSkraut18-2{clip-path:url(#SVGID18-2_);}
	.gluggaSkraut18-3{fill:#DC8F2F;}
	.gluggaSkraut18-4{fill:#A52B31;}
	.gluggaSkraut18-5{fill:none;stroke:#000000;stroke-width:0.4545;stroke-miterlimit:10;}
	.gluggaSkraut18-6{fill:none;stroke:#363636;stroke-width:5;stroke-linecap:round;stroke-linejoin:round;stroke-miterlimit:10;}
</style>
<g id="Gluggarammi">
	<g>
		<rect x="2347.1" y="744.3" class="gluggaSkraut18-0" width="84.2" height="91.6"/>
	</g>
	<g>
		<path class="gluggaSkraut18-1" d="M2427.3,748.3v83.6h-76.2v-83.6H2427.3 M2431.3,744.3h-84.2v91.6h84.2V744.3L2431.3,744.3z"/>
	</g>
	<g>
		<defs>
			<rect id="SVGID18-1_" x="2346.7" y="744.3" width="84.2" height="91.6"/>
		</defs>
		<clipPath id="SVGID18-2_">
			<use xlink:href="#SVGID18-1_"  style="overflow:visible;"/>
		</clipPath>
		<g class="gluggaSkraut18-2">
			<path class="gluggaSkraut18-1" d="M2413,802.8l0.1-7.6l0.1-13.6l-10.9,8.2l-4.3,3.3c-2.8-0.7-5.8-1.1-8.9-1.1c-3.4,0-6.6,0.5-9.6,1.3l-4.6-3.5
				l-10.9-8.2l0.1,13.6l0.1,9.1c-1,2-1.6,4.2-1.6,6.5c0,10.4,11.8,18.9,26.4,18.9s26.4-8.5,26.4-18.9
				C2415.5,808,2414.6,805.3,2413,802.8z"/>
			<polygon class="gluggaSkraut18-3" points="2408.1,799.2 2409.7,789.8 2403,795.6 			"/>
			<polygon class="gluggaSkraut18-3" points="2369.4,799.2 2367.8,789.8 2374.5,795.6 			"/>
			<polygon class="gluggaSkraut18-3" points="2369.4,799.2 2367.8,789.8 2374.5,795.6 			"/>
			<path class="gluggaSkraut18-3" d="M2372,808l11.4,7.4h-4C2375.3,815.4,2372,812.1,2372,808L2372,808z"/>
			<path class="gluggaSkraut18-3" d="M2402.3,808l-11.4,7.4h4C2399,815.4,2402.3,812.1,2402.3,808L2402.3,808z"/>
			<circle class="gluggaSkraut18-1" cx="2387.9" cy="826.1" r="6.7"/>
			<path d="M2376.7,811.1c0,0-1.9,2.2,1,4.3C2377.7,815.4,2379.8,814.2,2376.7,811.1z"/>
			<path d="M2397.7,811.1c0,0,1.9,2.2-1,4.3C2396.8,815.4,2394.7,814.2,2397.7,811.1z"/>
			<ellipse class="gluggaSkraut18-4" cx="2387.2" cy="817" rx="3.1" ry="1"/>
			<g>
				<polygon class="gluggaSkraut18-4" points="2387.7,817 2387.2,822.9 2386.7,817 				"/>
			</g>
			<g>
				<path class="gluggaSkraut18-4" d="M2388.9,824.7c-0.2-0.5-0.5-0.8-0.9-1.1c-0.2-0.1-0.3-0.3-0.5-0.4c-0.1-0.1-0.2-0.1-0.2-0.2
					c0-0.1-0.2-0.1,0-0.1c0.2,0,0,0,0,0.1c-0.1,0-0.2,0.1-0.2,0.2c-0.2,0.1-0.3,0.3-0.5,0.4c-0.3,0.3-0.6,0.6-0.9,1.1
					c-0.2-0.5,0-1.1,0.2-1.6c0.1-0.2,0.3-0.5,0.5-0.7c0.1-0.1,0.2-0.2,0.3-0.3c0.2-0.1,0.2-0.2,0.6-0.3c0.4,0.1,0.5,0.2,0.6,0.3
					c0.1,0.1,0.2,0.2,0.3,0.3c0.2,0.2,0.3,0.4,0.5,0.7C2388.9,823.6,2389.1,824.2,2388.9,824.7z"/>
			</g>
			<g>
				<polyline class="gluggaSkraut18-5" points="2416.2,820.9 2396.5,818.5 2410.8,823.6 				"/>
				<line class="gluggaSkraut18-5" x1="2396.5" y1="818.5" x2="2405.4" y2="826.1"/>
			</g>
			<g>
				<polyline class="gluggaSkraut18-5" points="2358.6,820.9 2378.4,818.5 2364.1,823.6 				"/>
				<line class="gluggaSkraut18-5" x1="2378.4" y1="818.5" x2="2369.4" y2="826.1"/>
			</g>
		</g>
	</g>
	<g>
		<path class="gluggaSkraut18-1" d="M2415,809.2c0-0.4,0.1-0.8,0.2-1.2c-0.7-0.4-1.2-1.1-1.2-1.9c0-1.2,1-2.2,2.2-2.2c0.7,0,1.3,0.3,1.7,0.8
			c0,0,0,0,0,0c0,0,0-0.1,0-0.1c0-1.2,1-2.2,2.2-2.2c1.2,0,2.2,1,2.2,2.2c0,0.1,0,0.1,0,0.1c0,0,0,0,0,0c0.4-0.5,1-0.8,1.7-0.8
			c1.2,0,2.2,1,2.2,2.2c0,0.8-0.5,1.5-1.1,1.9c0.1,0.4,0.2,0.9,0.2,1.3c0,2.8-2.3,5.1-5.1,5.1c-1.3,0-2.4-0.5-3.3-1.2
			c-0.3,0.1-0.6,0.2-0.9,0.2c-1.2,0-2.2-1-2.2-2.2C2413.7,810.3,2414.2,809.6,2415,809.2z"/>
		<line class="gluggaSkraut18-6" x1="2420" y1="810.2" x2="2420" y2="832.7"/>
		<circle class="gluggaSkraut18-3" cx="2420" cy="810.2" r="1.7"/>
		<circle class="gluggaSkraut18-3" cx="2415.9" cy="811.2" r="1"/>
		<circle class="gluggaSkraut18-3" cx="2416.9" cy="806.9" r="1"/>
		<circle class="gluggaSkraut18-3" cx="2420.1" cy="805.8" r="1"/>
		<circle class="gluggaSkraut18-3" cx="2423" cy="806.9" r="1"/>
	</g>
	<g>
		<path class="gluggaSkraut18-1" d="M2363.5,809.2c0-0.4-0.1-0.8-0.2-1.2c0.7-0.4,1.2-1.1,1.2-1.9c0-1.2-1-2.2-2.2-2.2c-0.7,0-1.3,0.3-1.7,0.8
			c0,0,0,0,0,0c0,0,0-0.1,0-0.1c0-1.2-1-2.2-2.2-2.2c-1.2,0-2.2,1-2.2,2.2c0,0.1,0,0.1,0,0.1c0,0,0,0,0,0c-0.4-0.5-1-0.8-1.7-0.8
			c-1.2,0-2.2,1-2.2,2.2c0,0.8,0.5,1.5,1.1,1.9c-0.1,0.4-0.2,0.9-0.2,1.3c0,2.8,2.3,5.1,5.1,5.1c1.3,0,2.4-0.5,3.3-1.2
			c0.3,0.1,0.6,0.2,0.9,0.2c1.2,0,2.2-1,2.2-2.2C2364.7,810.3,2364.2,809.6,2363.5,809.2z"/>
		<line class="gluggaSkraut18-6" x1="2358.4" y1="810.2" x2="2358.4" y2="832.7"/>
		<circle class="gluggaSkraut18-3" cx="2358.4" cy="810.2" r="1.7"/>
		<circle class="gluggaSkraut18-3" cx="2362.5" cy="811.2" r="1"/>
		<circle class="gluggaSkraut18-3" cx="2361.6" cy="806.9" r="1"/>
		<circle class="gluggaSkraut18-3" cx="2358.3" cy="805.8" r="1"/>
		<circle class="gluggaSkraut18-3" cx="2355.5" cy="806.9" r="1"/>
	</g>
</g>
<g id="Layer_2">
</g>
</svg>
