<?xml version="1.0" encoding="utf-8"?>
<!-- Generator: Adobe Illustrator 23.0.6, SVG Export Plug-In . SVG Version: 6.00 Build 0)  -->
<svg id="gluggastuff19" class="gluggastuff" version="1.1" xmlns="http://www.w3.org/2000/svg" xmlns:xlink="http://www.w3.org/1999/xlink" x="0px" y="0px"
	 viewBox="0 0 3908.2 1080" style="enable-background:new 0 0 3908.2 1080;" xml:space="preserve">
<style type="text/css">
	.gluggaSkraut19-0{opacity:0.6;}
	.gluggaSkraut19-1{fill:#1F1B62;}
	.gluggaSkraut19-2{fill:none;stroke:#DA0100;stroke-width:4.1548;stroke-miterlimit:10;}
	.gluggaSkraut19-3{fill:#6FB353;}
	.gluggaSkraut19-4{fill:#DA0100;}
	.gluggaSkraut19-5{fill:#363636;}
</style>
<g id="Gluggarammi">
	<g class="gluggaSkraut19-0">
		<rect x="2562.3" y="578" class="gluggaSkraut19-1" width="84.2" height="91.6"/>
	</g>
	<g>
		<line class="gluggaSkraut19-2" x1="2604.3" y1="604.8" x2="2604.3" y2="580"/>
		<g>
			<path class="gluggaSkraut19-3" d="M2604.3,611.9c9.2,0,16.6,7.5,16.6,16.6c0,9.2-7.5,16.6-16.6,16.6s-16.6-7.5-16.6-16.6
				C2587.7,619.3,2595.2,611.9,2604.3,611.9 M2604.3,598.6c-16.5,0-29.9,13.4-29.9,29.9s13.4,29.9,29.9,29.9
				c16.5,0,29.9-13.4,29.9-29.9S2620.9,598.6,2604.3,598.6L2604.3,598.6z"/>
		</g>
		<circle class="gluggaSkraut19-2" cx="2600.8" cy="600.6" r="3.6"/>
		<circle class="gluggaSkraut19-2" cx="2607.9" cy="600.6" r="3.6"/>
		<g>
			<path class="gluggaSkraut19-4" d="M2598.6,639.1c-0.3-0.5-0.5-1.1-0.7-1.7c-0.2-0.6-0.4-1.2-0.5-1.8c-0.2-0.6-0.3-1.2-0.4-1.8
				c-0.1-0.6-0.2-1.2-0.3-1.8c0.4-2.3,0.8-4.6,1.3-6.9c1-4.5,2.2-8.9,3.6-13.3l0.3-0.8l0.1-0.4l0.1-0.3c0.1-0.3,0.2-0.6,0.5-0.9
				c0.2-0.3,0.6-0.6,1-0.8c0.5-0.2,1-0.3,1.5-0.2c1.1,0.2,1.8,0.9,2.1,1.5c0.2,0.3,0.3,0.6,0.3,0.9c0,0.1,0,0.3,0.1,0.4l0,0.1l0,0.4
				l0.4,3.3c0.3,2.2,0.6,4.5,0.9,6.7c0.3,2.2,0.7,4.4,1.1,6.6c-0.3,2.3-0.6,4.7-1.1,7.1c-1.4-2-2.5-4.1-3.7-6.3
				c-0.4-2.3-0.8-4.5-1.1-6.8c-0.3-2.3-0.6-4.5-0.9-6.8l-0.4-3.4l0-0.4l0-0.1c0,0,0,0.1,0,0.2c0,0.1,0.1,0.3,0.2,0.5
				c0.2,0.4,0.7,0.9,1.4,1c0.4,0.1,0.8,0,1.1-0.2c0.3-0.1,0.6-0.4,0.7-0.6c0.2-0.2,0.2-0.4,0.3-0.5c0-0.1,0,0,0,0l0,0.1l-0.1,0.4
				l-0.2,0.8c-1.3,4.3-2.5,8.6-3.5,12.9c-0.5,2.2-0.9,4.3-1.2,6.5C2600.4,634.7,2599.5,636.8,2598.6,639.1z"/>
		</g>
		<circle class="gluggaSkraut19-2" cx="2600.8" cy="608.4" r="3.6"/>
		<circle class="gluggaSkraut19-2" cx="2607.9" cy="608.4" r="3.6"/>
	</g>
	<g>
		<path class="gluggaSkraut19-5" d="M2642.4,582.3v83.6h-76.2v-83.6H2642.4 M2646.4,578.3h-84.2v91.6h84.2V578.3L2646.4,578.3z"/>
	</g>
</g>
<g id="Layer_2">
</g>
</svg>
