<?xml version="1.0" encoding="utf-8"?>
<!-- Generator: Adobe Illustrator 23.0.6, SVG Export Plug-In . SVG Version: 6.00 Build 0)  -->
<svg id="gluggastuff17" class="gluggastuff" version="1.1" xmlns="http://www.w3.org/2000/svg" xmlns:xlink="http://www.w3.org/1999/xlink" x="0px" y="0px"
	 viewBox="0 0 3908.2 1080" style="enable-background:new 0 0 3908.2 1080;" xml:space="preserve">
<style type="text/css">
	.gluggaSkraut17-0{clip-path:url(#SVGID17-2_);}
	.gluggaSkraut17-1{fill:#69B376;}
	.gluggaSkraut17-2{opacity:0.7;fill:#F7EC41;}
	.gluggaSkraut17-3{fill:#E4E4E4;}
	.gluggaSkraut17-4{fill:#FFFF3C;}
	.gluggaSkraut17-5{fill:#CB2376;}
	.gluggaSkraut17-6{fill:#363636;}
</style>
<g id="Gluggarammi">
	<g>
		<defs>
			<rect id="SVGID17-1_" x="2348.4" y="579.8" width="80.8" height="88.2"/>
		</defs>
		<clipPath id="SVGID17-2_">
			<use xlink:href="#SVGID17-1_"  style="overflow:visible;"/>
		</clipPath>
		<g class="gluggaSkraut17-0">
			<rect x="2347.2" y="578.2" class="gluggaSkraut17-1" width="84.2" height="91.6"/>
		</g>
		<g class="gluggaSkraut17-0">
			<circle class="gluggaSkraut17-2" cx="2389.2" cy="628.6" r="34.5"/>
			<circle class="gluggaSkraut17-2" cx="2388.6" cy="628.6" r="20.7"/>
		</g>
		<g class="gluggaSkraut17-0">
			<polygon class="gluggaSkraut17-3" points="2360.4,661.3 2357.7,661.3 2357.7,649.6 2359,646.5 2360.4,649.6 			"/>
			<path class="gluggaSkraut17-4" d="M2357.3,645.6c0-0.9,1.7-3.1,1.7-3.1s1.7,2.1,1.7,3.1s-0.8,1.7-1.7,1.7
				C2358.1,647.3,2357.3,646.5,2357.3,645.6z"/>
			<polygon class="gluggaSkraut17-3" points="2370.5,653.9 2367.8,653.9 2367.8,642.2 2369.1,639 2370.5,642.2 			"/>
			<path class="gluggaSkraut17-4" d="M2367.5,638.2c0-0.9,1.7-3.1,1.7-3.1s1.7,2.1,1.7,3.1c0,0.9-0.8,1.7-1.7,1.7
				C2368.2,639.9,2367.5,639.1,2367.5,638.2z"/>
			<polygon class="gluggaSkraut17-3" points="2380.6,645.8 2377.9,645.8 2377.9,634.1 2379.3,630.9 2380.6,634.1 			"/>
			<path class="gluggaSkraut17-4" d="M2377.6,630.1c0-0.9,1.7-3.1,1.7-3.1s1.7,2.1,1.7,3.1c0,0.9-0.8,1.7-1.7,1.7
				C2378.3,631.7,2377.6,631,2377.6,630.1z"/>
			<polygon class="gluggaSkraut17-3" points="2390.2,638.4 2387.5,638.4 2387.5,626.6 2388.8,623.5 2390.2,626.6 			"/>
			<path class="gluggaSkraut17-4" d="M2387.1,622.6c0-0.9,1.7-3.1,1.7-3.1s1.7,2.1,1.7,3.1c0,0.9-0.8,1.7-1.7,1.7
				C2387.9,624.3,2387.1,623.6,2387.1,622.6z"/>
			<polygon class="gluggaSkraut17-3" points="2417.1,661.3 2419.8,661.3 2419.8,649.6 2418.4,646.5 2417.1,649.6 			"/>
			<path class="gluggaSkraut17-4" d="M2420.1,645.6c0-0.9-1.7-3.1-1.7-3.1s-1.7,2.1-1.7,3.1s0.8,1.7,1.7,1.7
				C2419.4,647.3,2420.1,646.5,2420.1,645.6z"/>
			<polygon class="gluggaSkraut17-3" points="2406.9,653.9 2409.6,653.9 2409.6,642.2 2408.3,639 2406.9,642.2 			"/>
			<path class="gluggaSkraut17-4" d="M2410,638.2c0-0.9-1.7-3.1-1.7-3.1s-1.7,2.1-1.7,3.1c0,0.9,0.8,1.7,1.7,1.7
				C2409.2,639.9,2410,639.1,2410,638.2z"/>
			<polygon class="gluggaSkraut17-3" points="2396.8,645.8 2399.5,645.8 2399.5,634.1 2398.2,630.9 2396.8,634.1 			"/>
			<path class="gluggaSkraut17-4" d="M2399.9,630.1c0-0.9-1.7-3.1-1.7-3.1s-1.7,2.1-1.7,3.1c0,0.9,0.8,1.7,1.7,1.7
				C2399.1,631.7,2399.9,631,2399.9,630.1z"/>
			<polygon class="gluggaSkraut17-5" points="2414.8,661.3 2414.8,653.9 2404.9,653.9 2404.9,645.8 2392.7,645.8 2392.7,638.4 2385,638.4 
				2385,645.8 2372.8,645.8 2372.8,653.9 2362.8,653.9 2362.8,661.3 2350.5,661.3 2350.5,669.9 2364.3,669.9 2373.3,662.5 
				2375.9,660.4 2383,654.4 2385.8,652.1 2388.2,650.1 2391.9,653 2393.7,654.4 2401.8,660.8 2403.9,662.5 2413.3,669.9 
				2427.2,669.9 2427.2,661.3 			"/>
		</g>
	</g>
	<g>
		<g>
			<path class="gluggaSkraut17-6" d="M2427.3,582.2v83.6h-76.2v-83.6H2427.3 M2431.3,578.2h-84.2v91.6h84.2V578.2L2431.3,578.2z"/>
		</g>
	</g>
</g>
<g id="Layer_2">
</g>
</svg>
