<?xml version="1.0" encoding="utf-8"?>
<!-- Generator: Adobe Illustrator 19.2.0, SVG Export Plug-In . SVG Version: 6.00 Build 0)  -->
<svg class="gluggastuff" version="1.1" xmlns="http://www.w3.org/2000/svg" xmlns:xlink="http://www.w3.org/1999/xlink" x="0px" y="0px"
	 viewBox="0 0 3908.2 1080" style="enable-background:new 0 0 3908.2 1080;" xml:space="preserve">
<style type="text/css">
	.gluggi-st1{opacity:0.8;fill:none;stroke:#000000;stroke-miterlimit:10;}
	.gluggi-st2{fill:none;stroke:#ED1C24;stroke-miterlimit:10;}
	.gluggi-st3{opacity:0.7;fill:#FCEE21;}
	.gluggi-st4{fill:#E6E6E6;}
	.gluggi-st5{fill:#FFFF00;}
	.gluggi-st6{fill:#333333;}
</style>
<defs>
	<linearGradient id="MyGradient">
		<stop offset="5%" stop-color="#4943ac" />
		<stop offset="95%" stop-color="#1b1464" />
		<stop offset="95%" stop-color="black" />
	</linearGradient>
</defs>
<g id="virkur_gluggi_bakgr">
	<g>
		<rect x="149.5" y="578.3" class="gluggi-st0" width="84.2" height="91.6"/>
	</g>
</g>
<g id="virkur_gluggi">
	<polyline class="gluggi-st1" points="190,669.8 190,595.8 156.5,578.8 	"/>
	<line class="gluggi-st1" x1="190.4" y1="596" x2="233.2" y2="595.8"/>
</g>
<g id="viðbætur">
	<circle class="gluggi-st3" cx="192.7" cy="632.9" r="24.9"/>
	<circle class="gluggi-st3" cx="192.7" cy="632.9" r="14"/>
	<polygon class="gluggi-st4" points="195.5,669.9 189.5,669.9 189.5,643.9 192.4,636.9 195.5,643.9 	"/>
	<path class="gluggi-st5" d="M188.7,635c0-2.1,3.8-6.8,3.8-6.8s3.8,4.8,3.8,6.8c0,2.1-1.7,3.8-3.8,3.8C190.4,638.7,188.7,637,188.7,635z"/>
</g>
<g id="Gluggarammi">
	<g>
		<path class="gluggi-st6" d="M229.7,582.3v83.6h-76.2v-83.6H229.7 M233.7,578.3h-84.2v91.6h84.2V578.3L233.7,578.3z"/>
	</g>
</g>
</svg>
