<?xml version="1.0" encoding="utf-8"?>
<!-- Generator: Adobe Illustrator 23.0.6, SVG Export Plug-In . SVG Version: 6.00 Build 0)  -->
<svg version="1.1" xmlns="http://www.w3.org/2000/svg" xmlns:xlink="http://www.w3.org/1999/xlink" x="0px" y="0px"
	 viewBox="0 0 3908.2 1080" style="enable-background:new 0 0 3908.2 1080;" xml:space="preserve">
<style type="text/css">
	.st0{opacity:0.6;}
	.st1{fill:#1F1B62;}
	.st2{fill:#363636;}
	.st3{fill:#E7AB30;stroke:#FFFFFF;stroke-width:2.7085;stroke-miterlimit:10;}
	.st4{fill:#E7AB30;stroke:#FFFFFF;stroke-width:2.708;stroke-miterlimit:10;}
</style>
<g id="Gluggarammi">
	<g class="st0">
		<rect x="2951.3" y="744.3" class="st1" width="84.2" height="91.6"/>
	</g>
	<g>
		<path class="st2" d="M3031.4,748.3v83.6h-76.2v-83.6H3031.4 M3035.4,744.3h-84.2v91.6h84.2V744.3L3035.4,744.3z"/>
	</g>
	<g>
		<polygon class="st3" points="3022.5,774.2 3002,774.2 3012.3,790.1 		"/>
		<polygon class="st3" points="2964.5,774.2 2974.7,790.1 2984.9,774.2 		"/>
		<polygon class="st3" points="2993.5,819.4 3002,806.1 2984.9,806.1 		"/>
		<polygon class="st3" points="2964.5,806.1 2984.9,806.1 2974.7,790.1 		"/>
		<polygon class="st3" points="2993.5,760.9 2984.9,774.2 3002,774.2 		"/>
		<polygon class="st3" points="3012.3,790.1 3002,806.1 3022.5,806.1 		"/>
		<polygon class="st4" points="3002,774.2 2984.9,774.2 2974.7,790.1 2984.9,806.1 3002,806.1 3012.3,790.1 		"/>
	</g>
</g>
<g id="Layer_2">
</g>
</svg>
