<?xml version="1.0" encoding="utf-8"?>
<!-- Generator: Adobe Illustrator 23.0.6, SVG Export Plug-In . SVG Version: 6.00 Build 0)  -->
<svg version="1.1" id="Hlutir_x5F_uti" xmlns="http://www.w3.org/2000/svg" xmlns:xlink="http://www.w3.org/1999/xlink" x="0px"
	 y="0px" viewBox="0 0 3908.2 1080" style="enable-background:new 0 0 3908.2 1080;" xml:space="preserve">
<style type="text/css">
	.st0{fill:none;stroke:#8DBBB7;stroke-width:2.6155;stroke-linecap:round;stroke-linejoin:round;stroke-miterlimit:10;}
	.st1{fill:none;stroke:#4C85A8;stroke-width:3.4873;stroke-linecap:round;stroke-linejoin:round;stroke-miterlimit:10;}
	.st2{fill:none;stroke:#4C85A8;stroke-width:1.7437;stroke-miterlimit:10;}
	.st3{fill:#D7797D;}
	.st4{fill:#EEC15A;}
	.st5{fill:#4C85A8;}
	.st6{fill:none;stroke:#4C85A8;stroke-width:6.5388;stroke-linecap:round;stroke-linejoin:round;stroke-miterlimit:10;}
	.st7{fill:none;stroke:#4C85A8;stroke-width:4.3592;stroke-miterlimit:10;}
	.st8{fill:none;stroke:#EEC15A;stroke-width:1.7437;stroke-miterlimit:10;}
	.st9{fill:#8DBBB7;}
	.st10{fill:none;stroke:#4C85A8;stroke-width:2.6155;stroke-linecap:round;stroke-linejoin:round;stroke-miterlimit:10;}
	.st11{fill:none;stroke:#4C85A8;stroke-width:4.3592;stroke-linecap:round;stroke-linejoin:round;stroke-miterlimit:10;}
</style>
<g>
	<g>
		<line class="st0" x1="1365.9" y1="885.7" x2="1370.1" y2="866.3"/>
		<line class="st0" x1="1377.1" y1="867.3" x2="1362.5" y2="863.2"/>
	</g>
	<line class="st1" x1="1369.8" y1="876.1" x2="1438.4" y2="802.1"/>
	<polyline class="st2" points="1270.4,850.7 1308.7,874.4 1331.5,837.8 	"/>
	<line class="st2" x1="1308.7" y1="874.4" x2="1345.9" y2="896.1"/>
	<g>
		<path class="st3" d="M1307,836.8c20.2,0,36.5,16.4,36.5,36.5c0,20.2-16.4,36.5-36.5,36.5s-36.5-16.4-36.5-36.5
			C1270.5,853.2,1286.8,836.8,1307,836.8 M1307,832.3c-22.6,0-41.1,18.4-41.1,41.1c0,22.6,18.4,41.1,41.1,41.1
			c22.6,0,41.1-18.4,41.1-41.1C1348.1,850.7,1329.7,832.3,1307,832.3L1307,832.3z"/>
	</g>
	<g>
		<path class="st3" d="M1451.9,836.8c20.2,0,36.5,16.4,36.5,36.5c0,20.2-16.4,36.5-36.5,36.5c-20.2,0-36.5-16.4-36.5-36.5
			C1415.3,853.2,1431.7,836.8,1451.9,836.8 M1451.9,832.3c-22.6,0-41.1,18.4-41.1,41.1c0,22.6,18.4,41.1,41.1,41.1
			c22.6,0,41.1-18.4,41.1-41.1C1493,850.7,1474.5,832.3,1451.9,832.3L1451.9,832.3z"/>
	</g>
	<g>
		<path class="st4" d="M1451.9,833.4c22,0,40,17.9,40,40s-17.9,40-40,40c-22,0-40-17.9-40-40S1429.8,833.4,1451.9,833.4
			 M1451.9,829.5c-24.2,0-43.9,19.6-43.9,43.9s19.6,43.9,43.9,43.9c24.2,0,43.9-19.6,43.9-43.9S1476.1,829.5,1451.9,829.5
			L1451.9,829.5z"/>
	</g>
	<g>
		<path class="st4" d="M1307,833.4c22,0,40,17.9,40,40s-17.9,40-40,40s-40-17.9-40-40S1285,833.4,1307,833.4 M1307,829.5
			c-24.2,0-43.9,19.6-43.9,43.9s19.6,43.9,43.9,43.9c24.2,0,43.9-19.6,43.9-43.9S1331.2,829.5,1307,829.5L1307,829.5z"/>
	</g>
	<g>
		<path class="st5" d="M1308.7,873.9c7.4-1.5,14.8-2.2,22.2-2.7c7.4-0.4,14.9-0.5,22.4,0c1.9,0.1,3.7,0.3,5.6,0.4
			c1.9,0.2,3.7,0.4,5.6,0.7c1.9,0.3,3.7,0.6,5.6,0.9c0.9,0.2,1.9,0.4,2.8,0.6l1.4,0.3l0.7,0.2l0.9,0.3c2.5,0.9,4.4,2.9,5.3,5.2
			c0.4,1.2,0.6,2.4,0.5,3.6c0,0.6-0.1,1.2-0.3,1.8c-0.1,0.3-0.2,0.6-0.3,0.8c-0.1,0.3-0.2,0.5-0.3,0.7c-1.7,3.3-3.3,6.7-5.2,9.9
			l-0.9-0.4c0.7-3.7,1.7-7.3,2.7-10.9c0.1-0.2,0.1-0.5,0.1-0.6c0-0.2,0.1-0.3,0.1-0.5c0-0.3,0-0.6,0-1c-0.1-0.6-0.3-1.2-0.6-1.8
			c-0.6-1.1-1.6-1.8-2.7-2l-0.4-0.1l-0.7-0.1l-1.3-0.2l-2.7-0.3c-1.8-0.1-3.6-0.4-5.4-0.5c-3.6-0.3-7.3-0.6-10.9-0.8
			c-7.3-0.4-14.6-0.8-22-1.2c-7.4-0.4-14.7-0.8-22.2-1.6L1308.7,873.9z"/>
	</g>
	<line class="st6" x1="1342.1" y1="793.8" x2="1365.2" y2="883.6"/>
	<line class="st7" x1="1348.6" y1="819.1" x2="1440.8" y2="799.6"/>
	<path class="st8" d="M1443.7,782.2v31.1h16c5.3,0,9.5-4.3,9.5-9.5v-13.2c0-4.6-3.7-8.3-8.3-8.3H1443.7z"/>
	<line class="st8" x1="1450.6" y1="782.2" x2="1450.6" y2="813.2"/>
	<line class="st8" x1="1456.5" y1="782.2" x2="1456.5" y2="813.2"/>
	<line class="st8" x1="1462.5" y1="782.2" x2="1462.5" y2="813.2"/>
	<g>
		<path class="st9" d="M1446.7,824.3c-5.7,1-11.1,2.6-16.1,5.1c-4.9,2.4-9.4,5.6-13.3,9.5c-3.8,3.8-7,8.3-9.5,13.3
			c-2.5,4.9-4.1,10.3-5.1,16.1c-1-5.8-0.3-11.8,1.6-17.5c2-5.7,5.3-10.9,9.6-15.2c4.3-4.3,9.5-7.6,15.2-9.6
			C1434.8,823.9,1440.9,823.3,1446.7,824.3z"/>
	</g>
	<path class="st10" d="M1270.4,822.7h52.6c8.4,0,16.7,1.8,24.4,5.3l4.1,1.9"/>
	<path class="st3" d="M1354.2,791.4c1.9,0,3.4,1.5,3.4,3.4l0,0c0,1.9-1.5,3.4-3.4,3.4h-27.6c-1.9,0-3.4-1.5-3.4-3.4v-4.6
		c0-2.2,2-3.8,4.2-3.3l15.4,3.7c2,0.5,4.1,0.7,6.2,0.7H1354.2z"/>
	<path class="st11" d="M1451.9,873.4V853c0,0-10.2-43.2-13.3-59.2c-3.1-16,2.3-24,2.3-24l-14.1-1.4"/>
	<g>
		<path class="st9" d="M1275.8,834.7c3.4-4.8,8.1-8.6,13.5-11.2c5.4-2.6,11.5-4,17.5-4c6.1,0,12.1,1.4,17.5,4
			c5.4,2.6,10.2,6.5,13.5,11.3c-4.8-3.3-9.7-6-15-7.8c-5.2-1.8-10.6-2.7-16.1-2.7c-5.4,0-10.9,0.9-16.1,2.7
			C1285.6,828.7,1280.6,831.3,1275.8,834.7z"/>
	</g>
	<circle class="st0" cx="1365.9" cy="885.6" r="11.2"/>
	<line class="st0" x1="1365.9" y1="885.6" x2="1361.6" y2="905.4"/>
	<line class="st0" x1="1354.7" y1="904" x2="1369.3" y2="908.1"/>
</g>
</svg>
