<?xml version="1.0" encoding="utf-8"?>
<!-- Generator: Adobe Illustrator 19.2.0, SVG Export Plug-In . SVG Version: 6.00 Build 0)  -->
<svg version="1.1" id="Grunnur" xmlns="http://www.w3.org/2000/svg" xmlns:xlink="http://www.w3.org/1999/xlink" x="0px" y="0px"
	 viewBox="0 0 3908.2 1080" style="enable-background:new 0 0 3908.2 1080;" xml:space="preserve">
<style type="text/css">
	.st0{fill:#29ABE2;}
	.st1{fill:#8CC63F;}
	.st2{fill:#009245;}
	.st3{fill:#0071BC;}
	.st4{fill:#2E3192;}
	.st5{fill:#F7931E;}
	.st6{fill:#F15A24;}
	.st7{fill:#006837;}
	.st8{fill:#CCCCCC;}
	.st9{fill:#A67C52;}
	.st10{fill:#754C24;}
	.st11{fill:#00A99D;}
	.st12{fill:#1B1464;}
	.st13{fill:#999999;}
	.st14{fill:#9E005D;}
	.st15{fill:#C1272D;}
	.st16{fill:#D4145A;}
	.st17{fill:#ED1E79;}
	.st18{fill:#22B573;}
	.st19{fill:#FBB03B;}
</style>
<polygon class="st0" points="0,528.4 0,426.3 36.6,426.5 50.2,528.4 "/>
<rect y="528.4" class="st1" width="50.1" height="369.4"/>
<polygon class="st2" points="129.6,826.5 50.1,897.8 50.1,528.4 129.6,504.1 "/>
<polygon class="st3" points="36.7,426.6 129.8,504 50.3,528.2 "/>
<polygon class="st0" points="469.1,921 91.1,921 91.1,688.1 170.3,645.3 469.1,645.3 "/>
<polygon class="st4" points="490,493.8 468.7,688.1 580.1,643.2 "/>
<polygon class="st3" points="468.7,688 91.2,688 169.3,493.8 490,493.8 "/>
<polygon class="st3" points="468.9,687.9 468.6,920.9 610.2,841.1 610.2,628.7 "/>
<rect x="567.9" y="539.8" class="st5" width="283.7" height="355.1"/>
<polygon class="st6" points="985.5,832.8 851.7,894.9 851.7,539.8 985.5,500.2 "/>
<polygon class="st3" points="567.9,539.8 759,343 851.7,539.8 "/>
<polygon class="st3" points="961,534.1 1123.7,369.5 1334.1,364.2 1358.8,534.9 "/>
<polygon class="st4" points="985.5,500.1 759,343 851.7,539.8 "/>
<polygon class="st7" points="1358.8,534.9 1454.4,513.7 1454.4,857 1358.8,903.4 "/>
<polygon class="st4" points="1334.1,364.2 1358.8,534.9 1454.4,513.8 "/>
<polygon class="st8" points="1451,539.8 1525,438.7 1608.8,437.5 1622.4,539.8 "/>
<rect x="1451" y="539.5" class="st9" width="171.3" height="352.5"/>
<polygon class="st10" points="1701.8,824.1 1622.3,892.1 1622.3,539.5 1701.8,516.4 "/>
<polygon class="st11" points="961,534.1 962.7,902.4 1003.4,902.5 1094.6,860.8 1094.6,902.7 1358.8,903.4 1358.8,534.9 "/>
<path class="st7" d="M1049,746.6L1049,746.6c-25.2,0-45.6,20.4-45.6,45.6v110.1l91.2-41.5v41.9l0.1,0V792.2
	C1094.6,767,1074.2,746.6,1049,746.6z"/>
<polyline class="st10" points="590,894.8 590,742.4 681.2,742.4 681.2,894.7 "/>
<g>
	<rect x="149.5" y="744.4" class="st12" width="84.3" height="91.5"/>
</g>
<g>
	<rect x="325" y="744.4" class="st12" width="84.3" height="91.5"/>
</g>
<g>
	<rect x="729" y="744.4" class="st12" width="84.3" height="91.5"/>
</g>
<g>
	<rect x="729" y="578.4" class="st12" width="84.3" height="91.5"/>
</g>
<g>
	<rect x="325" y="578.4" class="st12" width="84.3" height="91.5"/>
</g>
<g>
	<rect x="149.5" y="578.4" class="st12" width="84.3" height="91.5"/>
</g>
<polygon class="st4" points="233.8,578.4 269.4,578.1 233.8,670 "/>
<polygon class="st4" points="409.3,578.4 444.9,578.1 409.3,670 "/>
<g>
	<rect x="1222.5" y="744.4" class="st12" width="84.3" height="91.5"/>
</g>
<g>
	<rect x="1490.8" y="744.4" class="st12" width="84.3" height="91.5"/>
</g>
<g>
	<rect x="1009" y="578.4" class="st12" width="84.3" height="91.5"/>
</g>
<g>
	<rect x="1222.5" y="578.4" class="st12" width="84.3" height="91.5"/>
</g>
<g>
	<rect x="1490.8" y="578.4" class="st12" width="84.3" height="91.5"/>
</g>
<polygon class="st13" points="1608.9,437.2 1702.1,516.6 1622.3,539.5 "/>
<polygon class="st3" points="1962.3,635.9 1897.1,674.6 1897.1,519.5 1962.3,480.8 "/>
<polygon class="st14" points="1896.8,674.7 1896.8,893.9 2015.9,803 2016.1,604 "/>
<polygon class="st15" points="1896.8,521.3 1896.8,520.4 1692.7,520.4 1692.7,893.7 1896.8,893.7 1896.8,720.9 2013.7,720.9 
	2013.7,894.9 2229.7,894.9 2229.7,521.3 "/>
<polygon class="st14" points="2229.7,521.3 2307.7,480.9 2307.7,817.4 2229.7,894.9 "/>
<polygon class="st4" points="2129.7,368.8 2308,481 2229.7,521.3 "/>
<polygon class="st4" points="1802.7,401.5 1961,480.9 1896.8,521.3 "/>
<polygon class="st3" points="1896.7,521.4 2041.6,368.8 2130.1,368.8 2229.7,521.3 "/>
<polygon class="st3" points="1692.5,520.4 1802.7,401.5 1896.8,521.3 "/>
<polygon class="st16" points="2536.9,828.7 2484.8,892.1 2484.8,693.3 2538.5,654.7 "/>
<rect x="2297.9" y="693.3" class="st17" width="186.8" height="198.8"/>
<polygon class="st0" points="2297.7,693.3 2356.3,533.2 2505.3,533.5 2484.8,693.3 "/>
<polygon class="st3" points="2505.3,533.6 2538.5,654.8 2484.7,693.3 "/>
<polygon class="st5" points="2815.8,894.9 2532,894.6 2532,539.8 2815.8,539.8 "/>
<polygon class="st6" points="2949.6,786.6 2815.8,894.9 2815.8,539.8 2949.6,477.7 "/>
<polygon class="st3" points="2532,539.8 2723.1,343 2815.8,539.8 "/>
<polygon class="st4" points="2949.6,477.6 2723.1,343 2815.8,539.8 "/>
<rect x="3638.5" y="775.5" class="st10" width="51.3" height="122.6"/>
<polygon class="st7" points="3489.7,846.9 3664.2,672.4 3838.8,846.9 "/>
<polygon class="st18" points="3509.7,760.6 3664.2,606.2 3818.7,760.6 "/>
<polygon class="st7" points="3543.1,677.2 3664.2,556 3785.4,677.1 "/>
<g>
	<polygon class="st5" points="2684.2,843.5 2777.8,843.5 2777.8,901.8 2760.1,914.6 2757.5,915 2665.5,913.8 2665.2,889.5 
		2674.1,877.6 2673.1,854.8 	"/>
	<g>
		<polygon class="st6" points="2766.3,854.9 2674.8,853.9 2685.3,843.5 2775.8,843.5 		"/>
		<polygon class="st6" points="2757.1,891 2666.6,889.5 2676.1,878.1 2766.6,879.6 		"/>
		<polygon class="st6" points="2766.1,877 2675.6,875.5 2674,856.3 2765.6,857.3 		"/>
		<polygon class="st6" points="2757.5,913.3 2667,911.8 2666.5,892.2 2757,893.7 		"/>
		<polygon class="st6" points="2759.6,913.1 2758.9,892.8 2768.1,880.7 2768.1,855.4 2776.8,844.6 2776.8,900.3 		"/>
	</g>
</g>
<path class="st7" d="M2685.4,843.5v-94.2c0-25.2,20.4-45.6,45.6-45.6l0,0c25.2,0,45.6,20.4,45.6,45.6v94.7"/>
<circle class="st19" cx="3664.2" cy="529.5" r="63"/>
<polygon class="st3" points="2431.4,578.4 2467,578.1 2431.4,670 "/>
<g>
	<rect x="1739.8" y="744.4" class="st12" width="84.3" height="91.5"/>
</g>
<g>
	<rect x="2085.7" y="744.4" class="st12" width="84.3" height="91.5"/>
</g>
<g>
	<rect x="2347" y="744.4" class="st12" width="84.3" height="91.5"/>
</g>
<g>
	<rect x="2562.2" y="744.4" class="st12" width="84.3" height="91.5"/>
</g>
<g>
	<rect x="1739.8" y="578.4" class="st12" width="84.3" height="91.5"/>
</g>
<g>
	<rect x="1915" y="578.4" class="st12" width="84.3" height="91.5"/>
</g>
<g>
	<rect x="2085.7" y="578.4" class="st12" width="84.3" height="91.5"/>
</g>
<g>
	<rect x="2347" y="578.4" class="st12" width="84.3" height="91.5"/>
</g>
<g>
	<rect x="2562.2" y="578.4" class="st12" width="84.3" height="91.5"/>
</g>
<rect x="2904" y="672.5" class="st9" width="467.9" height="231.8"/>
<polygon class="st3" points="3372.5,672.5 2904,672.5 2996,477.3 3392.8,477.3 "/>
<polygon class="st10" points="3371.9,672.6 3371.9,904.4 3482.8,824.6 3482.8,627.1 "/>
<g>
	<rect x="2951.3" y="744.4" class="st12" width="84.3" height="91.5"/>
</g>
<g>
	<rect x="3093.9" y="744.4" class="st12" width="84.3" height="91.5"/>
</g>
<g>
	<rect x="3236.6" y="744.4" class="st12" width="84.3" height="91.5"/>
</g>
<polygon class="st4" points="3392.8,477.3 3372,672.6 3482.9,627.1 "/>
</svg>
