<?xml version="1.0" encoding="utf-8"?>
<!-- Generator: Adobe Illustrator 19.2.0, SVG Export Plug-In . SVG Version: 6.00 Build 0)  -->
<svg id="husarodbak" version="1.1" xmlns="http://www.w3.org/2000/svg" xmlns:xlink="http://www.w3.org/1999/xlink" x="0px" y="0px"
	 viewBox="0 0 3908.2 1080" style="enable-background:new 0 0 3908.2 1080;" xml:space="preserve">
<style type="text/css">
	.husbak0{fill:#3E77C2;}
    .husbak1{fill:#4B47C3;}
</style>
<g id="Layer_2">
	<polygon class="husbak0" points="-0.2,319.8 140.6,248 237.4,298.1 274.8,273.7 448.5,272.3 477.1,327.9 549.7,229 622.3,327.9 
		721.2,241.2 779.5,308.9 826.8,307.6 829,242.1 1051.1,235.4 1057.7,317 1167.7,233.1 1306.4,342.8 1306.4,736.5 -0.2,736.5 	"/>
	<g>
		<polygon class="husbak1" points="1306.4,430.3 1201,335.5 1111.1,332.9 1037.6,401.9 928.1,316.4 844.1,415.4 727.5,316.5 
			656.5,395.1 509.6,395.1 507.4,332.1 270.1,325.4 263.5,404.6 153.5,320.6 -0.2,430.3 -0.2,736.5 1306.4,736.5 		"/>
	</g>
	<polygon class="husbak0" points="1305.9,319.8 1446,248 1542.8,298.1 1580.2,273.7 1753.9,272.3 1782.5,327.9 1855.1,229 1927.6,327.9 
		2026.6,241.2 2084.9,308.9 2132.2,307.6 2134.4,242.1 2356.5,235.4 2363.1,317 2473.1,233.1 2611.8,342.8 2611.8,736.5 
		1305.9,736.5 	"/>
	<g>
		<polygon class="husbak1" points="2611.8,430.3 2506.4,335.5 2416.4,332.9 2342.9,401.9 2233.5,316.4 2149.5,415.4 2032.9,316.5 
			1961.9,395.1 1815,395.1 1812.8,332.1 1575.5,325.4 1568.9,404.6 1458.9,320.6 1305.9,430.3 1305.9,736.5 2611.8,736.5 		"/>
	</g>
	<polygon class="husbak0" points="2611.3,319.8 2751.4,248 2848.2,298.1 2885.6,273.7 3059.3,272.3 3087.9,327.9 3160.5,229 
		3233.1,327.9 3332,241.2 3390.3,308.9 3437.6,307.6 3439.8,242.1 3661.9,235.4 3668.5,317 3778.5,233.1 3908.2,342.8 3908.2,736.5 
		2611.3,736.5 	"/>
	<g>
		<polygon class="husbak1" points="3908.2,430.3 3811.8,335.5 3721.9,332.9 3648.4,401.9 3538.9,316.4 3454.9,415.4 3338.3,316.5 
			3267.3,395.1 3120.4,395.1 3118.2,332.1 2880.9,325.4 2874.3,404.6 2764.3,320.6 2611.3,430.3 2611.3,736.5 3908.2,736.5 		"/>
	</g>
</g>
<g id="Grunnur">
</g>
</svg>

