<?xml version="1.0" encoding="utf-8"?>
<!-- Generator: Adobe Illustrator 23.0.6, SVG Export Plug-In . SVG Version: 6.00 Build 0)  -->
<svg class="gluggastuff" version="1.1" id="Gluggarammi" xmlns="http://www.w3.org/2000/svg" xmlns:xlink="http://www.w3.org/1999/xlink" x="0px"
	 y="0px" viewBox="0 0 3908.2 1080" style="enable-background:new 0 0 3908.2 1080;" xml:space="preserve">
<style type="text/css">
	.mavurflug0{fill:none;stroke:#DE912F;stroke-width:5.0568;stroke-miterlimit:10;}
	.mavurflug1{fill:#EDEDED;}
	.mavurflug2{fill:#C2C2C2;}
	.mavurflug3{fill:#D6D6D6;}
	.mavurflug4{fill:#DE912F;}
	.mavurflug5{fill:#363636;}
	.mavurflug6{fill:#FFFFFF;}
	.mavurflug7{fill:#DA0100;}
</style>
<g>
	<g id="mavurthak" class="bounceOutUp">
		<g>
			<polyline class="mavurflug0" points="2394.4,532.1 2394.4,555.4 2382.2,555.4 			"/>
			<path class="mavurflug0" d="M2405,531.3v19.8c0,2.4-1.9,4.3-4.3,4.3h-10.8"/>
			<g>
				<g>
					<g>
						<g>
							<path class="mavurflug1" d="M2379.3,486.4v-12.7c0-5.1-4-9.4-9-9.5c-5.1-0.1-9.4,4.1-9.4,9.2l3.2,10.4v13.8
								c0,19,15.5,34.8,34.5,34.5c12.9-0.2,24-7.6,29.6-18.4c0.5-0.9-0.2-1.9-1.2-1.9l-44,2.4c3.4-12.4,13.7-10.1,13.7-10.1
								l32.5,7.5l18,3.9c11,0,11.6-11.8,11.6-11.8L2379.3,486.4z"/>
							<path class="mavurflug2" d="M2379.2,486.5c-0.1-3.4-0.3-6.9-0.4-10.5c0-0.9,0-1.8-0.1-2.7c0-0.8-0.2-1.6-0.5-2.4
								c-0.5-1.5-1.5-2.9-2.7-3.9c-0.6-0.5-1.3-0.9-2-1.2c-0.7-0.3-1.5-0.5-2.2-0.6c-1.5-0.2-3.1,0.1-4.5,0.8
								c-2.8,1.3-4.6,4.3-4.5,7.3l-0.1-0.4l3.3,10.3l0.1,0.2l0,0.2l0.1,9.5c0,1.6,0,3.2,0,4.7c0.1,1.5,0.1,3,0.4,4.5
								c0.4,3,1.3,5.9,2.5,8.6l1,2c0.4,0.7,0.8,1.3,1.1,1.9l0.6,1l0.7,0.9c0.4,0.6,0.9,1.2,1.3,1.8c1,1.1,1.9,2.3,3.1,3.3
								c1,1.1,2.3,2,3.5,2.9c0.6,0.5,1.3,0.8,1.9,1.3l1,0.6c0.3,0.2,0.7,0.3,1,0.5c0.7,0.3,1.3,0.7,2,1l2.1,0.8
								c0.7,0.3,1.4,0.5,2.2,0.7c0.7,0.2,1.5,0.5,2.2,0.6c1.5,0.2,3,0.6,4.5,0.6c3.1,0.2,6.2,0,9.2-0.7c6-1.4,11.6-4.5,16-9
								c2.2-2.2,4-4.8,5.5-7.5l0.3-0.5c0.1-0.1,0.1-0.2,0.1-0.3c0-0.2-0.1-0.4-0.3-0.6c-0.1-0.1-0.2-0.1-0.3-0.1c-0.1,0-0.1,0-0.2,0
								l-0.3,0l-1.2,0.1l-4.7,0.3c-12.6,0.9-25.2,1.8-37.7,2.8l-1.8,0.1l0.5-1.8c0.8-3,2.2-6,4.7-8.3c1.2-1.1,2.7-2,4.3-2.5
								c1.6-0.5,3.3-0.7,4.9-0.7c0.4,0,0.8,0.1,1.3,0.1l1.1,0.2l2.2,0.5l4.3,1l8.6,1.9l17.2,3.8c5.8,1.2,11.5,2.5,17.2,3.7l-0.4,0
								c1.3-0.1,2.6-0.2,3.8-0.7c0.6-0.2,1.1-0.5,1.6-0.8l0.7-0.6c0.2-0.2,0.4-0.4,0.7-0.7c0.8-0.9,1.5-2.1,2-3.3
								c0.2-0.6,0.5-1.3,0.6-1.9c0.2-0.6,0.3-1.4,0.3-1.9l1.4,1.9c-6.7-1.5-13.4-3.1-20.1-4.7l-20-4.7l-19.7-4.8L2379.2,486.5z
								 M2379.4,486.3l20.3,3.8l20,3.9l19.8,4c6.6,1.3,13.1,2.6,19.7,4l1.6,0.3l-0.1,1.6c-0.1,1-0.2,1.7-0.4,2.6
								c-0.2,0.8-0.4,1.6-0.7,2.4c-0.6,1.6-1.5,3.2-2.7,4.5c-0.3,0.3-0.6,0.7-1,1l-1.1,0.9c-0.8,0.5-1.5,1-2.4,1.3
								c-1.7,0.7-3.5,0.9-5.2,1l-0.2,0l-0.2-0.1c-5.8-1.3-11.5-2.5-17.3-3.8l-17.2-4.1l-8.6-2.1l-4.3-1l-2.1-0.5l-1-0.3
								c-0.2,0-0.6-0.1-0.9-0.1c-1.3-0.1-2.6,0-3.8,0.4c-1.2,0.4-2.3,1-3.3,1.8c-2,1.7-3.3,4.1-4,6.8l-1.4-1.7
								c12.6-0.4,25.2-0.9,37.8-1.4l4.7-0.2l1.2-0.1l0.3,0c0.1,0,0.3,0,0.4,0c0.3,0,0.6,0.2,0.8,0.3c0.5,0.3,0.8,0.9,0.8,1.5
								c0,0.3-0.1,0.6-0.2,0.8c-0.1,0.2-0.2,0.4-0.3,0.5c-1.5,2.8-3.5,5.4-5.7,7.7c-4.4,4.6-10.2,8-16.4,9.7
								c-3.1,0.8-6.4,1.3-9.6,1.2c-1.6,0-3.2-0.2-4.9-0.4c-0.8-0.1-1.6-0.3-2.4-0.5c-0.8-0.2-1.6-0.3-2.4-0.6l-2.3-0.8
								c-0.8-0.3-1.5-0.7-2.2-1c-0.4-0.2-0.7-0.3-1.1-0.5l-1.1-0.6c-0.7-0.4-1.4-0.8-2.1-1.3c-2.7-1.8-5.2-4-7.3-6.5
								c-4.2-5-7.1-11.3-8-17.8c-0.3-1.6-0.3-3.3-0.4-4.9c0-1.6,0-3.2,0-4.7l0.1-9.5l0.1,0.4l-3.1-10.4l-0.1-0.2l0-0.2
								c0-2,0.6-4,1.7-5.6c1.1-1.6,2.6-3,4.4-3.8c1.8-0.8,3.8-1,5.7-0.7c1,0.2,1.9,0.5,2.8,0.9c0.9,0.4,1.7,1,2.4,1.6
								c1.4,1.3,2.4,3,2.9,4.8c0.2,0.9,0.4,1.8,0.4,2.8c0,0.9,0,1.7-0.1,2.6L2379.4,486.3z"/>
						</g>
						<g>
							<path class="mavurflug3" d="M2383,514.2l46.2-2.6l-32.5-7.5C2396.6,504.1,2386.4,501.9,2383,514.2z"/>
							<path class="mavurflug2" d="M2383.1,514.1c4.3-0.6,8.3-1.1,12.2-1.6c1.9-0.2,3.9-0.4,5.7-0.6c1.9-0.2,3.8-0.4,5.6-0.4
								c3.7-0.2,7.2,0.1,11,0.1c3.8,0,7.6-0.3,11.4-0.7l-0.1,1.5c-4.3-0.7-8.6-1.2-12.9-2.1c-4.3-0.9-8.5-1.6-12.8-2.7
								c-2.1-0.5-4.2-1-6.3-1.6c-1.8-0.6-3.7-0.5-5.6-0.1c-1.8,0.5-3.5,1.5-4.9,3c-0.4,0.3-0.6,0.8-1,1.2c-0.3,0.4-0.6,0.8-0.9,1.3
								l-0.4,0.7c-0.2,0.2-0.2,0.4-0.3,0.6C2383.7,513.1,2383.4,513.6,2383.1,514.1z M2382.8,514.3c0.1-0.5,0.1-1.1,0.2-1.7
								c0.1-0.7,0.3-1.2,0.5-1.7c0.3-1.1,0.8-2.1,1.5-3.1c1.2-2,3.2-3.7,5.5-4.6c2.3-0.9,4.9-1.2,7.3-0.7c2.1,0.4,4.3,0.9,6.4,1.3
								c4.2,1,8.4,2.1,12.6,3.2c4.2,1.1,8.3,2.5,12.5,3.8l5.1,1.5l-5.2,0c-3.9,0-7.8,0.1-11.7,0.5c-3.9,0.4-8,1.1-12.1,1.4
								c-2,0.2-4,0.2-5.9,0.2c-2,0.1-3.9,0-5.8,0C2389.9,514.6,2386.2,514.6,2382.8,514.3z"/>
						</g>
					</g>
					<path class="mavurflug4" d="M2356,473.4c-6.6,0-12.8,3.4-16.4,9l-0.9,1.4h25.4l-3.2-10.4H2356z"/>
				</g>
				<path class="mavurflug4" d="M2374.3,470.7c-0.8-2.2-2.6-1.5-4.1,1.1c-1.2,2-4.7-0.5-3.9,1.8c0.8,2.2,3.2,3.4,5.4,2.6
					C2373.9,475.4,2375,472.9,2374.3,470.7z"/>
				<circle class="mavurflug5" cx="2370.6" cy="474.1" r="1.4"/>
			</g>
		</g>
		<g>
			<path class="mavurflug6" d="M2382.1,472.6l-21.2-5.4c-1.2-0.3-2-1.5-1.6-2.8l0,0c0.3-1.2,1.5-2,2.8-1.6l21.2,5.4c1.2,0.3,2,1.5,1.6,2.8
				v0C2384.6,472.2,2383.3,472.9,2382.1,472.6z"/>
			<path class="mavurflug7" d="M2378.4,438.5c0.6-0.9,2-0.5,2.1,0.5l1.3,13.8l1.5,15.3c0.1,0.8-0.6,1.4-1.4,1.2l-9.5-2.4l-9.5-2.4
				c-0.8-0.2-1.1-1.1-0.7-1.7l8.6-12.8L2378.4,438.5z"/>
			<circle class="mavurflug6" cx="2379.6" cy="438" r="3.2"/>
		</g>
	</g>
	<g id="mavurflug" class="">
		<g>
			<path class="mavurflug1" d="M2380.9,515c-2.6-12.6,7.7-15.2,7.7-15.2l32.4-7.9l17.9-4.6c9.8-4.9,5.1-15.7,5.1-15.7l-78.8,20.2"/>
			<path class="mavurflug2" d="M2380.7,515c-0.9-2.8-1.1-6-0.1-9c0.5-1.5,1.4-2.9,2.5-4.1c1.1-1.2,2.5-2.1,3.9-2.8c0.4-0.2,0.7-0.3,1.2-0.5
				l1.1-0.3l2.1-0.6l4.3-1.2c2.9-0.7,5.7-1.5,8.6-2.2c5.7-1.4,11.5-2.5,17.3-3.6c5.8-1.1,11.5-2.4,17.2-4l-0.1,0
				c0.6-0.4,1.3-0.7,1.9-1.2c0.6-0.5,1.1-0.9,1.6-1.5c0.5-0.5,0.8-1.2,1.2-1.8l0.4-1c0.1-0.3,0.2-0.7,0.3-1c0.3-1.4,0.3-2.8,0.1-4.2
				c-0.2-1.4-0.6-2.9-1.2-4.1l1.4,0.7c-6.5,2-13,3.8-19.6,5.6l-9.8,2.7c-3.3,0.8-6.6,1.7-9.9,2.5c-6.6,1.6-13.2,3.1-19.8,4.5
				c-6.6,1.4-13.3,2.7-20,3.9l-0.1-0.3c6.4-2.2,12.9-4.3,19.4-6.2c6.5-1.9,13-3.8,19.6-5.5c3.3-0.9,6.6-1.7,9.8-2.5l9.9-2.4
				c6.6-1.6,13.2-3.1,19.8-4.5l1-0.2l0.3,0.9c0.6,1.6,0.8,3.2,1,4.8c0.1,1.6-0.1,3.3-0.6,4.8c-0.5,1.6-1.3,3-2.4,4.2
				c-1.1,1.2-2.5,2.1-3.8,2.8l0,0l-0.1,0c-5.7,1.4-11.4,3.1-17,4.9c-5.6,1.7-11.3,3.4-17,4.8c-2.9,0.7-5.7,1.3-8.6,2l-4.3,0.9
				l-2.2,0.5l-1.1,0.2c-0.2,0.1-0.6,0.2-0.9,0.3c-2.5,0.9-4.6,2.8-5.8,5.2c-1.2,2.5-1.4,5.4-1.1,8.3L2380.7,515z"/>
		</g>
		<g>
			<path class="mavurflug3" d="M2382.5,512.2l44.1-13.9l-33.3,0.7C2393.3,499.1,2382.7,499.4,2382.5,512.2z"/>
			<path class="mavurflug2" d="M2382.7,512.1c4.1-1.7,7.8-3.2,11.5-4.6c1.8-0.7,3.6-1.4,5.4-2c1.8-0.6,3.6-1.3,5.3-1.8
				c3.5-1.1,7.1-1.7,10.7-2.6c3.6-0.9,7.3-2.2,10.8-3.5l0.2,1.5c-4.3,0.4-8.7,0.9-13,1.2c-4.3,0.2-8.7,0.5-13,0.6
				c-2.2,0-4.3,0-6.5,0c-1.9-0.1-3.7,0.4-5.4,1.3c-1.6,0.9-3,2.3-4,4.1c-0.3,0.4-0.4,0.9-0.7,1.4c-0.2,0.5-0.4,1-0.5,1.5l-0.2,0.8
				c-0.1,0.3-0.1,0.4-0.2,0.7C2382.9,511,2382.8,511.5,2382.7,512.1z M2382.4,512.4c0-0.5-0.1-1.1-0.2-1.7c-0.1-0.7,0-1.2,0-1.8
				c0-1.1,0.3-2.3,0.6-3.4c0.7-2.2,2.2-4.3,4.2-5.8c2-1.4,4.4-2.4,6.9-2.4c2.2-0.1,4.3-0.2,6.5-0.3c4.3-0.1,8.7,0,13.1,0
				c4.4,0,8.7,0.4,13.1,0.6l5.3,0.2l-5.1,1.3c-3.8,1-7.5,2-11.2,3.4c-3.7,1.4-7.5,3.1-11.3,4.3c-1.9,0.7-3.8,1.2-5.7,1.7
				c-1.9,0.5-3.8,1-5.6,1.5C2389.3,510.9,2385.7,511.7,2382.4,512.4z"/>
		</g>
		<g>
			<g>
				<polyline class="mavurflug0" points="2405,527.8 2405,540.3 2417.3,540.3 				"/>
				<path class="mavurflug0" d="M2394.4,531.3v4.6c0,2.4,1.9,4.3,4.3,4.3h10.8"/>
			</g>
			<g>
				<g>
					<g>
						<g>
							<path class="mavurflug1" d="M2379.3,486.4v-12.7c0-5.1-4-9.4-9-9.5c-5.1-0.1-9.4,4.1-9.4,9.2l3.2,10.4v13.8
								c0,19,15.5,34.8,34.5,34.5c12.9-0.2,24-7.6,29.6-18.4c0.5-0.9-0.2-1.9-1.2-1.9l-44,2.4c3.4-12.4,13.7-10.1,13.7-10.1
								l32.5,7.5l18,3.9c11,0,11.6-11.8,11.6-11.8L2379.3,486.4z"/>
							<path class="mavurflug2" d="M2379.2,486.5c-0.1-3.4-0.3-6.9-0.4-10.5c0-0.9,0-1.8-0.1-2.7c0-0.8-0.2-1.6-0.5-2.4
								c-0.5-1.5-1.5-2.9-2.7-3.9c-0.6-0.5-1.3-0.9-2-1.2c-0.7-0.3-1.5-0.5-2.2-0.6c-1.5-0.2-3.1,0.1-4.5,0.8
								c-2.8,1.3-4.6,4.3-4.5,7.3l-0.1-0.4l3.3,10.3l0.1,0.2l0,0.2l0.1,9.5c0,1.6,0,3.2,0,4.7c0.1,1.5,0.1,3,0.4,4.5
								c0.4,3,1.3,5.9,2.5,8.6l1,2c0.4,0.7,0.8,1.3,1.1,1.9l0.6,1l0.7,0.9c0.4,0.6,0.9,1.2,1.3,1.8c1,1.1,1.9,2.3,3.1,3.3
								c1,1.1,2.3,2,3.5,2.9c0.6,0.5,1.3,0.8,1.9,1.3l1,0.6c0.3,0.2,0.7,0.3,1,0.5c0.7,0.3,1.3,0.7,2,1l2.1,0.8
								c0.7,0.3,1.4,0.5,2.2,0.7c0.7,0.2,1.5,0.5,2.2,0.6c1.5,0.2,3,0.6,4.5,0.6c3.1,0.2,6.2,0,9.2-0.7c6-1.4,11.6-4.5,16-9
								c2.2-2.2,4-4.8,5.5-7.5l0.3-0.5c0.1-0.1,0.1-0.2,0.1-0.3c0-0.2-0.1-0.4-0.3-0.6c-0.1-0.1-0.2-0.1-0.3-0.1c-0.1,0-0.1,0-0.2,0
								l-0.3,0l-1.2,0.1l-4.7,0.3c-12.6,0.9-25.2,1.8-37.7,2.8l-1.8,0.1l0.5-1.8c0.8-3,2.2-6,4.7-8.3c1.2-1.1,2.7-2,4.3-2.5
								c1.6-0.5,3.3-0.7,4.9-0.7c0.4,0,0.8,0.1,1.3,0.1l1.1,0.2l2.2,0.5l4.3,1l8.6,1.9l17.2,3.8c5.8,1.2,11.5,2.5,17.2,3.7l-0.4,0
								c1.3-0.1,2.6-0.2,3.8-0.7c0.6-0.2,1.1-0.5,1.6-0.8l0.7-0.6c0.2-0.2,0.4-0.4,0.7-0.7c0.8-0.9,1.5-2.1,2-3.3
								c0.2-0.6,0.5-1.3,0.6-1.9c0.2-0.6,0.3-1.4,0.3-1.9l1.4,1.9c-6.7-1.5-13.4-3.1-20.1-4.7l-20-4.7l-19.7-4.8L2379.2,486.5z
								 M2379.4,486.3l20.3,3.8l20,3.9l19.8,4c6.6,1.3,13.1,2.6,19.7,4l1.6,0.3l-0.1,1.6c-0.1,1-0.2,1.7-0.4,2.6
								c-0.2,0.8-0.4,1.6-0.7,2.4c-0.6,1.6-1.5,3.2-2.7,4.5c-0.3,0.3-0.6,0.7-1,1l-1.1,0.9c-0.8,0.5-1.5,1-2.4,1.3
								c-1.7,0.7-3.5,0.9-5.2,1l-0.2,0l-0.2-0.1c-5.8-1.3-11.5-2.5-17.3-3.8l-17.2-4.1l-8.6-2.1l-4.3-1l-2.1-0.5l-1-0.3
								c-0.2,0-0.6-0.1-0.9-0.1c-1.3-0.1-2.6,0-3.8,0.4c-1.2,0.4-2.3,1-3.3,1.8c-2,1.7-3.3,4.1-4,6.8l-1.4-1.7
								c12.6-0.4,25.2-0.9,37.8-1.4l4.7-0.2l1.2-0.1l0.3,0c0.1,0,0.3,0,0.4,0c0.3,0,0.6,0.2,0.8,0.3c0.5,0.3,0.8,0.9,0.8,1.5
								c0,0.3-0.1,0.6-0.2,0.8c-0.1,0.2-0.2,0.4-0.3,0.5c-1.5,2.8-3.5,5.4-5.7,7.7c-4.4,4.6-10.2,8-16.4,9.7
								c-3.1,0.8-6.4,1.3-9.6,1.2c-1.6,0-3.2-0.2-4.9-0.4c-0.8-0.1-1.6-0.3-2.4-0.5c-0.8-0.2-1.6-0.3-2.4-0.6l-2.3-0.8
								c-0.8-0.3-1.5-0.7-2.2-1c-0.4-0.2-0.7-0.3-1.1-0.5l-1.1-0.6c-0.7-0.4-1.4-0.8-2.1-1.3c-2.7-1.8-5.2-4-7.3-6.5
								c-4.2-5-7.1-11.3-8-17.8c-0.3-1.6-0.3-3.3-0.4-4.9c0-1.6,0-3.2,0-4.7l0.1-9.5l0.1,0.4l-3.1-10.4l-0.1-0.2l0-0.2
								c0-2,0.6-4,1.7-5.6c1.1-1.6,2.6-3,4.4-3.8c1.8-0.8,3.8-1,5.7-0.7c1,0.2,1.9,0.5,2.8,0.9c0.9,0.4,1.7,1,2.4,1.6
								c1.4,1.3,2.4,3,2.9,4.8c0.2,0.9,0.4,1.8,0.4,2.8c0,0.9,0,1.7-0.1,2.6L2379.4,486.3z"/>
						</g>
						<g>
							<path class="mavurflug3" d="M2383,514.2l46.2-2.6l-32.5-7.5C2396.6,504.1,2386.4,501.9,2383,514.2z"/>
							<path class="mavurflug2" d="M2383.1,514.1c4.3-0.6,8.3-1.1,12.2-1.6c1.9-0.2,3.9-0.4,5.7-0.6c1.9-0.2,3.8-0.4,5.6-0.4
								c3.7-0.2,7.2,0.1,11,0.1c3.8,0,7.6-0.3,11.4-0.7l-0.1,1.5c-4.3-0.7-8.6-1.2-12.9-2.1c-4.3-0.9-8.5-1.6-12.8-2.7
								c-2.1-0.5-4.2-1-6.3-1.6c-1.8-0.6-3.7-0.5-5.6-0.1c-1.8,0.5-3.5,1.5-4.9,3c-0.4,0.3-0.6,0.8-1,1.2c-0.3,0.4-0.6,0.8-0.9,1.3
								l-0.4,0.7c-0.2,0.2-0.2,0.4-0.3,0.6C2383.7,513.1,2383.4,513.6,2383.1,514.1z M2382.8,514.3c0.1-0.5,0.1-1.1,0.2-1.7
								c0.1-0.7,0.3-1.2,0.5-1.7c0.3-1.1,0.8-2.1,1.5-3.1c1.2-2,3.2-3.7,5.5-4.6c2.3-0.9,4.9-1.2,7.3-0.7c2.1,0.4,4.3,0.9,6.4,1.3
								c4.2,1,8.4,2.1,12.6,3.2c4.2,1.1,8.3,2.5,12.5,3.8l5.1,1.5l-5.2,0c-3.9,0-7.8,0.1-11.7,0.5c-3.9,0.4-8,1.1-12.1,1.4
								c-2,0.2-4,0.2-5.9,0.2c-2,0.1-3.9,0-5.8,0C2389.9,514.6,2386.2,514.6,2382.8,514.3z"/>
						</g>
					</g>
					<path class="mavurflug4" d="M2356,473.4c-6.6,0-12.8,3.4-16.4,9l-0.9,1.4h25.4l-3.2-10.4H2356z"/>
				</g>
				<path class="mavurflug4" d="M2374.3,470.7c-0.8-2.2-2.6-1.5-4.1,1.1c-1.2,2-4.7-0.5-3.9,1.8c0.8,2.2,3.2,3.4,5.4,2.6
					C2373.9,475.4,2375,472.9,2374.3,470.7z"/>
				<circle class="mavurflug5" cx="2370.6" cy="474.1" r="1.4"/>
			</g>
		</g>
		<g>
			<path class="mavurflug6" d="M2382.1,472.6l-21.2-5.4c-1.2-0.3-2-1.5-1.6-2.8l0,0c0.3-1.2,1.5-2,2.8-1.6l21.2,5.4c1.2,0.3,2,1.5,1.6,2.8
				v0C2384.6,472.2,2383.3,472.9,2382.1,472.6z"/>
			<path class="mavurflug7" d="M2378.4,438.5c0.6-0.9,2-0.5,2.1,0.5l1.3,13.8l1.5,15.3c0.1,0.8-0.6,1.4-1.4,1.2l-9.5-2.4l-9.5-2.4
				c-0.8-0.2-1.1-1.1-0.7-1.7l8.6-12.8L2378.4,438.5z"/>
			<circle class="mavurflug6" cx="2379.6" cy="438" r="3.2"/>
		</g>
	</g>
</g>
</svg>
