<?xml version="1.0" encoding="utf-8"?>
<!-- Generator: Adobe Illustrator 23.0.6, SVG Export Plug-In . SVG Version: 6.00 Build 0)  -->
<svg version="1.1" id="Hlutir_x5F_uti" xmlns="http://www.w3.org/2000/svg" xmlns:xlink="http://www.w3.org/1999/xlink" x="0px"
	 y="0px" viewBox="0 0 3908.2 1080" style="enable-background:new 0 0 3908.2 1080;" xml:space="preserve">
<style type="text/css">
	.mavur0{fill:none;stroke:#EEC15A;stroke-width:7;stroke-miterlimit:10;}
	.mavur1{fill:#FFFFFF;}
	.mavur2{fill:#D7797D;}
	.mavur3{fill:#EEC15A;}
	.mavur4{fill:#0986AB;}
</style>
<g>
	<g>
		<polyline class="mavur0" points="2418,512.5 2418,544.9 2401,544.9 		"/>
		<path class="mavur0" d="M2432.7,511.5v27.4c0,3.3-2.7,6-6,6h-15"/>
		<g>
			<g>
				<g>
					<path class="mavur1" d="M2397,449.3v-17.6c0-7-5.5-13-12.5-13.1c-7.1-0.1-12.9,5.6-12.9,12.7l4.5,14.3v19.1
						c0,26.2,21.5,48.2,47.7,47.8c17.8-0.3,33.3-10.6,40.9-25.5c0.6-1.2-0.3-2.7-1.7-2.6l-60.9,3.4c4.7-17.1,18.9-14,18.9-14
						l45,10.4l24.9,5.4c15.2,0,16.1-16.3,16.1-16.3L2397,449.3z"/>
					<g>
						<path class="mavur1" d="M2402.1,487.8l63.9-3.5l-45-10.4C2421,473.9,2406.8,470.7,2402.1,487.8z"/>
						<path class="mavur2" d="M2402.3,487.7c3-0.4,5.9-0.8,8.7-1.2c2.8-0.4,5.6-0.7,8.3-1c5.4-0.6,10.6-1.2,15.7-1.4
							c5.1-0.2,10,0.2,15.2,0.2c5.2,0,10.5-0.4,15.8-1l-0.2,2.1c-6-1-12-1.7-17.9-2.9c-5.9-1.2-11.8-2.3-17.7-3.7
							c-2.9-0.7-5.8-1.4-8.7-2.2c-2.5-0.8-5.1-0.7-7.7-0.1c-0.6,0.2-1.3,0.4-1.8,0.7c-0.3,0.1-0.6,0.2-0.9,0.4l-0.9,0.5
							c-1.2,0.7-2.2,1.6-3.2,2.6l-0.4,0.4l-0.3,0.4l-0.7,0.8c-0.5,0.5-0.8,1.2-1.2,1.8l-0.6,0.9c-0.2,0.3-0.3,0.6-0.5,0.8
							C2403.1,486.3,2402.7,486.9,2402.3,487.7z M2401.9,488c0.1-0.7,0.2-1.5,0.3-2.4c0.1-0.4,0.2-0.9,0.3-1.3l0.4-1.1
							c0.3-0.7,0.5-1.5,0.9-2.2l0.5-1.1l0.3-0.5l0.3-0.5c1.7-2.8,4.4-5.1,7.6-6.4c3.2-1.3,6.7-1.6,10.1-0.9c3,0.6,5.9,1.2,8.8,1.9
							c5.9,1.3,11.7,3,17.5,4.5c5.8,1.5,11.5,3.5,17.3,5.2l0.1,0c0.6,0.2,0.9,0.8,0.7,1.3c-0.1,0.5-0.6,0.8-1,0.8
							c-5.4,0-10.7,0.1-16.2,0.8c-5.4,0.6-11.1,1.6-16.7,1.9c-5.6,0.4-11,0.4-16.3,0.4c-2.6,0-5.2-0.1-7.7-0.1
							C2406.7,488.2,2404.2,488.2,2401.9,488z"/>
					</g>
				</g>
				<path class="mavur3" d="M2364.8,431.3c-9.2,0-17.8,4.7-22.7,12.5l-1.2,1.9h35.2l-4.5-14.3H2364.8z"/>
			</g>
			<path class="mavur3" d="M2390,427.6c-1.1-3.1-3.5-2-5.7,1.5c-1.7,2.8-6.5-0.6-5.4,2.4c1.1,3.1,4.4,4.7,7.5,3.6
				C2389.5,434.1,2391.1,430.7,2390,427.6z"/>
			<circle class="mavur4" cx="2385" cy="432.3" r="2"/>
		</g>
	</g>
	<g>
		<path class="mavur1" d="M2400.9,430.2l-29.4-7.4c-1.7-0.4-2.7-2.1-2.3-3.8v0c0.4-1.7,2.1-2.7,3.8-2.3l29.4,7.4
			c1.7,0.4,2.7,2.1,2.3,3.8v0C2404.3,429.6,2402.6,430.6,2400.9,430.2z"/>
		<path class="mavur2" d="M2395.7,383c0.8-1.2,2.7-0.7,2.9,0.7l1.8,19.1l2,21.2c0.1,1.1-0.9,1.9-2,1.7l-13.2-3.3l-13.2-3.3
			c-1.1-0.3-1.5-1.5-0.9-2.4l11.9-17.7L2395.7,383z"/>
		<circle class="mavur1" cx="2397.4" cy="382.4" r="4.5"/>
	</g>
</g>
</svg>
