<svg class="gluggastuff" id="mavur-thak" xmlns="http://www.w3.org/2000/svg" xmlns:xlink="http://www.w3.org/1999/xlink" viewBox="0 0 3908.18 1080">
  <defs>
    <style>
      .cls-1 {
        fill: #333;
      }

      .cls-2 {
        fill: url(#radial-gradient);
      }

      .cls-3 {
        fill: #fbae17;
      }

      .cls-4 {
        fill: #b3b3b3;
      }

      .cls-5 {
        fill: url(#radial-gradient-2);
      }

      .cls-6 {
        fill: red;
      }

      .cls-7 {
        fill: #fffbd2;
      }
    </style>
    <radialGradient id="radial-gradient" cx="2395.29" cy="506.78" r="47.38" gradientUnits="userSpaceOnUse">
      <stop offset="0" stop-color="#fff"/>
      <stop offset="0.35" stop-color="#fdfdfd"/>
      <stop offset="0.53" stop-color="#f5f5f5"/>
      <stop offset="0.68" stop-color="#e7e7e7"/>
      <stop offset="0.8" stop-color="#d4d4d4"/>
      <stop offset="0.92" stop-color="#bcbcbc"/>
      <stop offset="0.95" stop-color="#b3b3b3"/>
    </radialGradient>
    <radialGradient id="radial-gradient-2" cx="2436.8" cy="492.65" r="8.98" gradientUnits="userSpaceOnUse">
      <stop offset="0.39" stop-color="#fbae17"/>
      <stop offset="1" stop-color="#c1272d"/>
    </radialGradient>
  </defs>
  <title>Mavur_1</title>
  <g id="mavur">
    <path class="cls-1" d="M2393.2,529.31a49.21,49.21,0,0,1,2.23,9.64c.27,1.61.36,3.23.54,4.84s.18,3.23.26,4.84v2.43a5.83,5.83,0,0,0,.08,1.56,2.76,2.76,0,0,0,1.57,1.87,2.18,2.18,0,0,0,.72.22c.4,0,.81.09,1.21.17l2.43.4a41.4,41.4,0,0,1,4.85,1.21v.3l-4.84.11-2.43,0a11.53,11.53,0,0,1-2.47-.11,5.15,5.15,0,0,1-3.69-3.22,6.65,6.65,0,0,1-.36-2.47l-.07-2.42c-.11-6.47-.3-12.93-.33-19.39Z"/>
    <path class="cls-1" d="M2386.86,529.31a49.21,49.21,0,0,1,2.23,9.64c.27,1.61.36,3.23.54,4.84s.17,3.23.26,4.84v2.43a5.83,5.83,0,0,0,.08,1.56,2.76,2.76,0,0,0,1.57,1.87,2.18,2.18,0,0,0,.72.22c.4,0,.8.09,1.21.17l2.43.4a41.4,41.4,0,0,1,4.85,1.21v.3l-4.84.11-2.43,0a11.53,11.53,0,0,1-2.47-.11,5.16,5.16,0,0,1-3.7-3.22,6.85,6.85,0,0,1-.35-2.47l-.07-2.42c-.11-6.47-.3-12.93-.33-19.39Z"/>
    <path class="cls-2" d="M2425.16,502.16c6.34-1,10.78-9.6,10.78-14.08s-5.54-12-13.37-12c-9.11,0-11.58,5.26-12.9,11.1-1.62,7.13,5.19,10.83,1.18,18.32-.68,2.39.84,2.22-1.45,2.87a130.86,130.86,0,0,0-14.94-.85c-22,0-39.82.66-39.82,11.08s17.83,18.86,39.82,18.86c16.5,0,22.18-3.53,26.23-9.07a24.71,24.71,0,0,0,4.45-12Z"/>
    <g>
      <path class="cls-3" d="M2427.52,488.19a4.35,4.35,0,1,1-8-3.5c1-2.2,3-1.48,4.6.34S2428.49,486,2427.52,488.19Z"/>
      <circle class="cls-1" cx="2423.44" cy="487.61" r="1.81"/>
    </g>
    <path class="cls-4 " d="M2391.78,500.75c-8.61,0-16.1,2.23-20.07,5.52-19.65.12-37,8.76-37,8.76s17.84,8.76,37.94,8.76a132.76,132.76,0,0,0,18.69-1.25h.43c12.75,0,23.08-4.88,23.08-10.9S2404.53,500.75,2391.78,500.75Z"/>
    <path class="cls-5" d="M2431.14,488.68c3.25.91,11.75,3.68,12.57,8a14.69,14.69,0,0,1-6.8-2.06,9.65,9.65,0,0,0-5.71-1.32,1.25,1.25,0,0,1-1.31-1.26v-2.39A1,1,0,0,1,2431.14,488.68Z"/>
    <path class="cls-6 " d="M2435.37,479.14c-4.13,2.54-23.31-1.11-23.31-1.11-4.71-2.19-4.34-10.09-7.59-2.09-2.12,5.23,1.73,10.75,1.79,16.19.11,9.85-1.26,19,1.13,28.61-1.88-.87-1.78-2.41-2.57-4-1.05-2.14-3-3.38-4.1-5.38-.81-1.45-1.23-2.92-2.17-4.44a18.49,18.49,0,0,1-2.39-5.15c-1.45-5.75-.85-11.3,0-17.12,1.19-7.84.15-15.25,7.17-20.61A13.54,13.54,0,0,1,2405,463a16.62,16.62,0,0,1,21,4.4Z"/>
    <path class="cls-7 " d="M2408.06,476.44a3.55,3.55,0,0,0-1.1,2.26c-.39,3.31-2.87,5.69,3.57,5.07,5.94-.57,14.42-2.65,20,0,3.1,1.44,10.4,3,8.65-3.28-1.63-5.77-9.52-3-13.63-3.41s-7.94-2.31-12-2.88a8,8,0,0,0-4.21,1.08Z"/>
    <path class="cls-7" d="M2402.74,523.33c-2.84,7.06,7.52,6,9.44,1.24,2.34-5.8-10.77-7-8.85-.12"/>
  </g>
</svg>
