<?xml version="1.0" encoding="utf-8"?>
<!-- Generator: Adobe Illustrator 19.2.0, SVG Export Plug-In . SVG Version: 6.00 Build 0)  -->
<svg version="1.1" id="Layer_1" xmlns="http://www.w3.org/2000/svg" xmlns:xlink="http://www.w3.org/1999/xlink" x="0px" y="0px"
	 viewBox="0 0 136.5 152.6" style="enable-background:new 0 0 136.5 152.6;" xml:space="preserve">
<style type="text/css">
	.mani0{fill:#FCEE21;}
	.mani1{fill:none;}
</style>
<path class="mani0" d="M46.6,0.3c10.2,10.4,16.5,24.7,16.5,40.5c0,32-26,58-58,58c-1.6,0-3.1-0.1-4.6-0.2
	C11,109.4,25.7,116.1,42,116.1c32,0,58-26,58-58C100,27.7,76.5,2.7,46.6,0.3z"/>
<path id="SVGID_x5F_1_x5F_" class="mani1" d="M124.6,63.2c0-42.8-34.7-77.6-77.6-77.6s-77.6,34.7-77.6,77.6S4.2,140.8,47,140.8
	S124.6,106,124.6,63.2z"/>
<text><textPath  xlink:href="#SVGID_x5F_1_x5F_" startOffset="-746.1019%">
<tspan  class="mani0" style="font-family:'GaramondPremrPro-BdDisp'; font-size:35px;">576:59:59</tspan></textPath>
</text>
</svg>
