<?xml version="1.0" encoding="utf-8"?>
<!-- Generator: Adobe Illustrator 23.0.6, SVG Export Plug-In . SVG Version: 6.00 Build 0)  -->
<svg version="1.1" id="Layer_1" xmlns="http://www.w3.org/2000/svg" xmlns:xlink="http://www.w3.org/1999/xlink" x="0px" y="0px"
	 viewBox="0 0 136.5 152.6" style="enable-background:new 0 0 136.5 152.6;" xml:space="preserve">
<style type="text/css">
	.nyi-mani0{fill:#FCEE21;}
	.nyi-mani1{fill:none;}
</style>
<path class="nyi-mani0" d="M46.6,0.3C56.8,10.7,63.1,25,63.1,40.8c0,32-26,58-58,58c-1.6,0-3.1-0.1-4.6-0.2C11,109.4,25.7,116.1,42,116.1
	c32,0,58-26,58-58C100,27.7,76.5,2.7,46.6,0.3z"/>
<path id="SVGID_x5F_1_x5F_" class="nyi-mani1" d="M48.6,149.5c0,0,50.8-2.3,75.2-48.4c16.2-26.9,8.3-55.3,8.3-55.3l-4-19.3
	c-1.2-5.9-3.2-11.6-6.1-16.9c-0.6-1.1-1.3-2.3-2-3.4"/>
<text><textPath  xlink:href="#SVGID_x5F_1_x5F_" startOffset="0.2734%">
<tspan id="time-mani-text"  class="nyi-mani0" style="font-family:'GaramondPremrPro-Bd'; font-size:32px; letter-spacing:6;"></tspan></textPath>
</text>
</svg>
