<?xml version="1.0" encoding="utf-8"?>
<!-- Generator: Adobe Illustrator 23.0.6, SVG Export Plug-In . SVG Version: 6.00 Build 0)  -->
<svg class="gluggastuff" version="1.1" id="Gluggarammi" xmlns="http://www.w3.org/2000/svg" xmlns:xlink="http://www.w3.org/1999/xlink" x="0px"
	 y="0px" viewBox="0 0 3908.2 1080" style="enable-background:new 0 0 3908.2 1080;" xml:space="preserve">
<style type="text/css">
	.musst0{fill:#BFAF98;}
	.musst1{fill:#363636;}
	.musst2{fill:#CB2376;}
	.musst3{fill:#FFFFFF;}
	.musst4{fill:none;stroke:#BFAF98;stroke-width:3.6124;stroke-linecap:round;stroke-linejoin:round;stroke-miterlimit:10;}
	.musst5{fill:none;stroke:#363636;stroke-width:1.8062;stroke-miterlimit:10;}
</style>
<g>
	<circle class="musst0" cx="2286.3" cy="900.7" r="10.9"/>
	<circle class="musst1" cx="2282.2" cy="896.2" r="2.7"/>
	<ellipse class="musst0" cx="2303.9" cy="906.1" rx="22.9" ry="12.7"/>
	<circle class="musst0" cx="2292.1" cy="886.9" r="8.8"/>
	<path class="musst0" d="M2269.4,897.5L2269.4,897.5c-6.7,2.5-4.4,7.5,0,6.4l0,0l8.6,3.2v-6.4v-6.4L2269.4,897.5z"/>
	<g>
		<path class="musst1" d="M2277.9,907.6c-0.6-0.4-1.1-1-1.3-1.7c-0.1-0.4-0.2-0.8-0.1-1.3c0.1-0.2,0.2-0.5,0.3-0.8
			c0.2-0.2,0.4-0.5,0.6-0.6c0.5-0.3,0.9-0.3,1.3-0.4c0.4,0,0.8,0,1.1,0.1c0.7,0.2,1.3,0.5,1.9,1l-0.1,0.3c-0.7,0.2-1.4,0.2-2,0.3
			c-0.3,0-0.6,0.1-0.8,0.1c-0.2,0.1-0.5,0.1-0.5,0.2c-0.1,0.1-0.1,0.1-0.2,0.2c0,0.1-0.1,0.4-0.1,0.6c0,0.5,0.1,1.2,0.2,1.9
			L2277.9,907.6z"/>
	</g>
	<circle class="musst2" cx="2265.2" cy="900.1" r="2.3"/>
	<circle class="musst3" cx="2283.1" cy="895.1" r="0.9"/>
	<line class="musst4" x1="2286.7" y1="909.8" x2="2286.7" y2="918.4"/>
	<line class="musst4" x1="2318.5" y1="909.8" x2="2314.9" y2="918.4"/>
	<line class="musst4" x1="2287.6" y1="909.8" x2="2291.2" y2="918.4"/>
	<g>
		<path class="musst0" d="M2321.5,904.5c1.8,0.7,3.4,1.4,5,2.2c1.6,0.8,3.2,1.5,4.7,2.5l2.2,1.6c0.7,0.5,1.5,1,2.3,1.4
			c1.6,0.8,3.4,1.1,5.2,1.4c0.9,0.1,1.8,0.1,2.7,0.3l2.7,0.3c0.9,0.1,1.8,0.3,2.6,0.3c0.9,0.1,1.8,0.2,2.6,0.4
			c1.7,0.4,3.5,0.6,5.2,1.1c1.8,0.4,3.5,0.8,5.3,1.5l0,0c0.1,0,0.1,0.1,0.1,0.2c0,0.1-0.1,0.1-0.1,0.1c-1.8,0.5-3.7,0.8-5.5,1
			c-0.9,0-1.9,0.1-2.8,0.1c-0.9,0-1.9,0-2.8-0.2c-1.8-0.2-3.7-0.6-5.4-1.2c-0.9-0.3-1.8-0.5-2.7-0.9c-0.9-0.3-1.7-0.8-2.6-1.2
			c-1.7-0.9-3.3-1.6-5.1-2.2c-0.9-0.3-1.8-0.4-2.7-0.7c-0.9-0.2-1.9-0.4-2.7-0.7c-0.9-0.3-1.7-0.7-2.5-1.2c-0.8-0.5-1.6-1-2.3-1.6
			c-0.7-0.6-1.4-1.2-2.1-1.9c-0.6-0.7-1.2-1.5-1.7-2.3c0-0.1,0-0.2,0.1-0.3C2321.4,904.5,2321.4,904.5,2321.5,904.5L2321.5,904.5z"
			/>
	</g>
	<line class="musst4" x1="2320.3" y1="909.8" x2="2320.3" y2="918.4"/>
	<ellipse class="musst1" cx="2292.1" cy="886.9" rx="4.9" ry="6.6"/>
	<path class="musst5" d="M2281.7,901.5c0,0-1,1.8,0.5,3.7"/>
</g>
</svg>
