<?xml version="1.0" encoding="utf-8"?>
<!-- Generator: Adobe Illustrator 23.0.6, SVG Export Plug-In . SVG Version: 6.00 Build 0)  -->
<svg version="1.1" id="Hlutir_x5F_uti" xmlns="http://www.w3.org/2000/svg" xmlns:xlink="http://www.w3.org/1999/xlink" x="0px"
	 y="0px" viewBox="0 0 3908.2 1080" style="enable-background:new 0 0 3908.2 1080;" xml:space="preserve">
<style type="text/css">
	.st0{fill:#EFCFD1;}
	.st1{fill:#4B83A6;}
	.st2{fill:#D5797D;}
	.st3{fill:#5288A9;}
	.st4{fill:#8BAFC5;}
	.st5{fill:#EDEDED;}
	.st6{fill:#FFFFFF;}
	.st7{fill:#DF9A9D;}
</style>
<g>
	<path class="st0" d="M1641.1,480.3l25.9,282.2h12.5l3.4-310.6l-19.7,1.8C1649.7,454.8,1639.7,466.8,1641.1,480.3z"/>
	<polygon class="st0" points="1696.4,455.8 1718,762.5 1730.4,762.5 1736.1,425.8 	"/>
	<path class="st1" d="M1755.4,479.7c0-22.8-12.7-41.4-28.3-41.4c-1.5,0-3,0.2-4.4,0.5c-0.3,0-0.7-0.1-1-0.1c-2.6,0-5.3,1.4-8.1,3.9
		c-5.2-10.2-13.4-16.8-22.8-16.8c-8.9,0-16.8,6-22,15.3c-2.1-1.6-4.2-2.4-6.2-2.4c-14.6,0-35.3,44.4-26.5,97c10,60-3,97,26.5,97
		c29.5,0,18.5-38.1,26.5-97c1.3-9.4,1.7-18.6,1.5-27.2c0,0,0.1,0,0.1,0c0.8,0,1.5-0.1,2.3-0.1c-0.1,8.7,0.5,17.9,2.1,27.3
		c10,60-3,97,26.5,97c29.5,0,18.5-38.1,26.5-97c1.5-10.8,1.8-21.2,1.4-30.9C1753.2,497.8,1755.4,489.1,1755.4,479.7z"/>
	<path class="st2" d="M1752.4,375.5c3.7,58.7-21.4,89.9-53.3,91.9s-74.9,5.5-65.8-52.7c9.7-61.9,22.8-140,54.7-142
		S1748.7,316.7,1752.4,375.5z"/>
	<path class="st3" d="M1696.4,760.2c0-10.6-24.5-17-64.6-17s-80.5,6.4-80.5,17c0,10.6,6.8,13.6,72.5,13.6
		C1686.2,773.8,1696.4,777.2,1696.4,760.2z"/>
	<path class="st4" d="M1742.7,762.9c-2.3-10.4-27.6-11.4-66.7-2.9s-77.3,23.3-75,33.7s9.5,11.8,73.8-2.1
		C1735.6,778.3,1746.3,779.5,1742.7,762.9z"/>
	<path class="st5" d="M1731.6,201.4c0,23.8,0,69.1-24.9,69.1c-20.7,0-41.9-36.3-41.9-60.1s16.7-43.1,37.4-43.1
		S1731.6,177.6,1731.6,201.4z"/>
	<circle class="st0" cx="1680.6" cy="196.9" r="40.8"/>
	<path class="st2" d="M1751.7,158.4l-0.7-2.1c-6.4-20.5-23.3-36-44.3-40.7l-2-0.4c-13.7-2.7-27.6,3.9-34.2,16.2l-17.3,23
		c-2.7,3.5-0.9,8.6,3.3,9.8l64.3,18.1c3.4,1,6.7-2,6.1-5.5l-5.3-30.5c-0.2-1.2,1.2-1.9,2-1l17.7,19
		C1745.8,169.2,1753.7,164.6,1751.7,158.4z"/>
	<circle class="st6" cx="1671.5" cy="184.4" r="10.2"/>
	<circle class="st6" cx="1648.8" cy="181" r="10.2"/>
	<circle class="st1" cx="1647.7" cy="183.3" r="4.5"/>
	<circle class="st1" cx="1671.5" cy="187.8" r="4.5"/>
	<path class="st0" d="M1693.9,284.1h-9.7c-3.2,0-5.7-2.7-5.4-5.9l2.1-24.7l-2.6-29.5h21.5l-2.6,31.5l2.1,22.6
		C1699.6,281.4,1697.1,284.1,1693.9,284.1z"/>
	<path class="st6" d="M1662.4,202.5c-22.5,0-27.2,14.9-27.2,37.4s11.5,32.9,34,32.9c22.5,0,32.9-6.9,32.9-29.5
		S1685,202.5,1662.4,202.5z M1663,226.3c-8.5,0-15.3-3.6-15.3-7.9c0-4.4,6.9-7.9,15.3-7.9s15.3,3.6,15.3,7.9
		C1678.3,222.8,1671.5,226.3,1663,226.3z"/>
	<ellipse class="st2" cx="1646.6" cy="196.3" rx="20.4" ry="10.8"/>
	<path class="st2" d="M1672.6,216.1c0-3.1-4.8,1.1-10.8,1.1s-10.8-4.3-10.8-1.1s4.8,5.7,10.8,5.7S1672.6,219.3,1672.6,216.1z"/>
	<path class="st7" d="M1714.3,324.3l21.8,211.5h13.6l-6.3-203.8c-0.3-9-7.6-16.1-16.6-16.1h-4.9
		C1717.4,315.9,1713.9,319.8,1714.3,324.3z"/>
	<path class="st0" d="M1759.9,535.8c0-10-8.1-18.1-18.1-18.1s-9.2,8.8-5.7,18.1c3.4,9.1-5.5,21.5,4.5,21.5
		S1759.9,545.8,1759.9,535.8z"/>
</g>
</svg>
