<?xml version="1.0" encoding="utf-8"?>
<!-- Generator: Adobe Illustrator 23.0.6, SVG Export Plug-In . SVG Version: 6.00 Build 0)  -->
<svg version="1.1" id="jolasveinn" xmlns="http://www.w3.org/2000/svg" xmlns:xlink="http://www.w3.org/1999/xlink" x="0px"
	 y="0px" viewBox="0 0 208.6 687.2" style="enable-background:new 0 0 208.6 687.2;" xml:space="preserve">
<style type="text/css">
	.stekkjastaur0{fill:#EFCFD1;}
	.stekkjastaur1{fill:#4B83A6;}
	.stekkjastaur2{fill:#D5797D;}
	.stekkjastaur3{fill:#5288A9;}
	.stekkjastaur4{fill:#8BAFC5;}
	.stekkjastaur5{fill:#EDEDED;}
	.stekkjastaur6{fill:#FFFFFF;}
	.stekkjastaur7{fill:#DF9A9D;}
</style>
<g>
	<path class="stekkjastaur0" d="M89.8,365.7l25.9,282.2h12.5l3.4-310.6l-19.7,1.8C98.4,340.2,88.4,352.2,89.8,365.7z"/>
	<polygon class="stekkjastaur0" points="145.1,341.2 166.7,647.9 179.1,647.9 184.8,311.2 	"/>
	<path class="stekkjastaur1" d="M204.1,365.1c0-22.8-12.7-41.4-28.3-41.4c-1.5,0-3,0.2-4.4,0.5c-0.3,0-0.7-0.1-1-0.1c-2.6,0-5.3,1.4-8.1,3.9
		c-5.2-10.2-13.4-16.8-22.8-16.8c-8.9,0-16.8,6-22,15.3c-2.1-1.6-4.2-2.4-6.2-2.4c-14.6,0-35.3,44.4-26.5,97c10,60-3,97,26.5,97
		s18.5-38.1,26.5-97c1.3-9.4,1.7-18.6,1.5-27.2h0.1c0.8,0,1.5-0.1,2.3-0.1c-0.1,8.7,0.5,17.9,2.1,27.3c10,60-3,97,26.5,97
		s18.5-38.1,26.5-97c1.5-10.8,1.8-21.2,1.4-30.9C201.9,383.2,204.1,374.5,204.1,365.1z"/>
	<path class="stekkjastaur2" d="M201.1,260.9c3.7,58.7-21.4,89.9-53.3,91.9s-74.9,5.5-65.8-52.7c9.7-61.9,22.8-140,54.7-142
		S197.4,202.1,201.1,260.9z"/>
	<path class="stekkjastaur3" d="M145.1,645.6c0-10.6-24.5-17-64.6-17S0,635,0,645.6s6.8,13.6,72.5,13.6C134.9,659.2,145.1,662.6,145.1,645.6z"
		/>
	<path class="stekkjastaur4" d="M191.4,648.3c-2.3-10.4-27.6-11.4-66.7-2.9s-77.3,23.3-75,33.7s9.5,11.8,73.8-2.1
		C184.3,663.7,195,664.9,191.4,648.3z"/>
	<path class="stekkjastaur5" d="M180.3,86.8c0,23.8,0,69.1-24.9,69.1c-20.7,0-41.9-36.3-41.9-60.1s16.7-43.1,37.4-43.1S180.3,63,180.3,86.8z"
		/>
	<circle class="stekkjastaur0" cx="129.3" cy="82.3" r="40.8"/>
	<path class="stekkjastaur2" d="M200.4,43.8l-0.7-2.1c-6.4-20.5-23.3-36-44.3-40.7l-2-0.4c-13.7-2.7-27.6,3.9-34.2,16.2l-17.3,23
		c-2.7,3.5-0.9,8.6,3.3,9.8l64.3,18.1c3.4,1,6.7-2,6.1-5.5l-5.3-30.5c-0.2-1.2,1.2-1.9,2-1l17.7,19C194.5,54.6,202.4,50,200.4,43.8z
		"/>
	<circle class="stekkjastaur6" cx="120.2" cy="69.8" r="10.2"/>
	<circle class="stekkjastaur6" cx="97.5" cy="66.4" r="10.2"/>
	<circle id="vinstri-auga" class="stekkjastaur1 auga" cx="96.4" cy="68.7" r="4.5"/>
	<circle id="haegri-auga" class="stekkjastaur1 auga" cx="120.2" cy="73.2" r="4.5"/>
	<path class="stekkjastaur0" d="M142.6,169.5h-9.7c-3.2,0-5.7-2.7-5.4-5.9l2.1-24.7l-2.6-29.5h21.5l-2.6,31.5l2.1,22.6
		C148.3,166.8,145.8,169.5,142.6,169.5z"/>
	<path class="stekkjastaur6" d="M111.1,87.9c-22.5,0-27.2,14.9-27.2,37.4s11.5,32.9,34,32.9s32.9-6.9,32.9-29.5S133.7,87.9,111.1,87.9z
		 M111.7,111.7c-8.5,0-15.3-3.6-15.3-7.9c0-4.4,6.9-7.9,15.3-7.9s15.3,3.6,15.3,7.9C127,108.2,120.2,111.7,111.7,111.7z"/>
	<ellipse class="stekkjastaur2" cx="95.3" cy="81.7" rx="20.4" ry="10.8"/>
	<path class="stekkjastaur2" d="M121.3,101.5c0-3.1-4.8,1.1-10.8,1.1s-10.8-4.3-10.8-1.1s4.8,5.7,10.8,5.7S121.3,104.7,121.3,101.5z"/>
	<path class="stekkjastaur7" d="M163,209.7l21.8,211.5h13.6l-6.3-203.8c-0.3-9-7.6-16.1-16.6-16.1h-4.9C166.1,201.3,162.6,205.2,163,209.7z"/>
	<path class="stekkjastaur0" d="M208.6,421.2c0-10-8.1-18.1-18.1-18.1s-9.2,8.8-5.7,18.1c3.4,9.1-5.5,21.5,4.5,21.5S208.6,431.2,208.6,421.2z"
		/>
</g>
</svg>
