<?xml version="1.0" encoding="utf-8"?>
<!-- Generator: Adobe Illustrator 23.0.6, SVG Export Plug-In . SVG Version: 6.00 Build 0)  -->
<svg version="1.1" id="Tölur" xmlns="http://www.w3.org/2000/svg" xmlns:xlink="http://www.w3.org/1999/xlink" x="0px" y="0px"
	 viewBox="0 0 3908.2 1080" style="enable-background:new 0 0 3908.2 1080;" xml:space="preserve">
<style type="text/css">
	.tolur{fill:#FFFFFF;}
</style>
<g>
	<path class="tolur" d="M217.4,598.7c1-0.3,1.2-0.4,1.3-1.6c0.1-1.3,0.1-2.5,0.1-5.1c0-3.3,0-3.2,0-3.7c0-0.2-0.3-0.5-0.5-0.5
		c-0.1-0.1-0.3-0.1-0.6-0.1c-0.6-0.1-0.8-0.4-0.8-0.5c0-0.2,0.2-0.6,0.6-0.8c1-0.3,3.1-0.7,3.9-1.1c0.5-0.2,0.8-0.3,0.8-0.3
		c0.1,0,0.4,0.3,0.4,0.4c0,0.4-0.1,1.7-0.1,3.9c0,1.7,0,6.3,0,7.1c0,1.7,0.2,1.9,1.2,2.2c0.4,0.1,0.8,0.3,0.8,0.7
		c0,0.3-0.3,0.6-0.9,0.6c-1.1,0-1.7-0.1-2.5-0.1c-1.6,0-3.4,0.2-3.7,0.2c-0.5,0-1-0.2-1-0.6C216.6,599,216.9,598.8,217.4,598.7z"/>
</g>
<g>
	<path class="tolur" d="M214.1,765.3c0-0.1,0.1-0.6,0.4-0.8c1.3-1,3.1-2.5,4.5-4.1c0.6-0.7,1.5-2.1,1.5-3.9c0-1.8-1.1-2.8-2.6-2.8
		c-1,0-1.8,0.6-2.4,1.1c-0.2,0.1-0.5,0.3-0.7,0.3c-0.2,0-0.5-0.3-0.5-0.5c0-0.2,0.1-0.5,0.4-0.9c1.2-1.5,2.6-2.8,4.9-2.8
		c2.6,0,4.7,1.8,4.7,4.5c0,1.2-0.4,2.4-2,4c-1.3,1.2-2.3,2.1-3.4,3.1c-0.1,0.1,0,0.2,0.1,0.2c0.3,0.2,1.3,0.2,3.3,0.2
		c0.2,0,0.9,0,1.1-0.1c0.5-0.1,0.7-0.3,1.3-0.8c0.2-0.2,0.7-0.7,0.9-0.7c0.4,0,0.8,0.6,0.5,1c-0.7,1.3-1.2,3.1-1.3,3.3
		c0,0.1-0.2,0.2-0.4,0.2c-0.1,0-5.1-0.1-6.5-0.1H215C214.4,765.8,214.1,765.5,214.1,765.3z"/>
</g>
<g>
	<path class="tolur" d="M399.4,588.3c0,1.2-0.7,2.1-2.3,3.2c-0.1,0,0.1,0.2,0.1,0.2c2.3,0.6,3.6,1.6,3.6,3.9c0,2-1.6,4.1-4.6,5.4
		c-1.2,0.5-2.1,0.7-3.1,0.7c-1.7,0-3.4-0.6-3.4-1.6c0-0.4,1-1.4,1.2-1.5c0.1,0,0.5,0,0.6,0.1c0.8,0.6,1.8,1.5,2.9,1.5
		c1.2,0,2.5-1,2.5-3.3c0-2.1-1.6-3.2-3.2-3.2c-0.4,0-1.1,0.1-1.4,0.1c-0.1,0-0.4-0.2-0.4-0.4c0-0.4,0.8-1.1,1.1-1.2
		c2.7-0.9,3.1-1.8,3.1-2.9c0-0.7-0.6-2-2.1-2c-1,0-2,0.6-2.7,1.3c-0.4,0.3-0.6,0.5-0.8,0.5c-0.4,0-0.6-0.6-0.4-1
		c0.9-1.9,3-3.2,5.1-3.2C397.8,584.9,399.4,586.7,399.4,588.3z"/>
</g>
<g>
	<path class="tolur" d="M802.7,599.6c-1.7,1.3-4.5,2.1-6.8,2.1c-0.4,0-1.2-0.1-1.2-0.7c0-0.3,0.5-0.6,0.8-0.6c3.8-0.5,5.7-2.2,5.7-3.6
		c0-0.9-0.4-1.6-1.5-2.1c-1.1-0.5-3-0.9-4.9-1.2c-0.2,0-0.6-0.8-0.6-1.2c0-0.9,1.2-4.6,1.6-5.5c0.1-0.2,0.6-0.8,0.9-0.8
		c0.6-0.2,4.8-1,7-1c0.1,0,0.3,0.5,0.3,0.6c0,1.2-1.2,2.7-1.8,2.8c-1.5,0.1-4.2,0.1-5.1,0.2c-0.2,0-0.5,0.4-0.5,0.5
		c-0.1,0.2-0.1,0.3-0.2,0.6c0,0.1,0.1,0.5,0.3,0.5c1.6,0.3,4,0.8,5.4,1.4c2,1,2.8,2.5,2.8,4C805,597.5,803.8,598.7,802.7,599.6z"/>
</g>
<g>
	<path class="tolur" d="M1083.2,585.4c0.7,0,1,0,1.1,0c0.2,0,0.6,0.5,0.6,0.6c0,0.1,0,0.2-0.1,0.3c-0.8,1.1-3.2,6-5.1,9.7
		c-1.4,2.7-2.4,4.9-2.6,5.3c-0.1,0.2-0.4,0.4-0.4,0.4c-0.7,0-1.3-0.4-1.4-0.9c0-0.2,0.3-0.8,0.5-1.1c2.5-4.4,3.8-6.8,5.7-10.6
		c0.1-0.1,0-0.3-0.1-0.4c-0.2-0.1-0.8-0.2-2.7-0.2c-1.2,0-2.5,0-3.2,0.1c-0.4,0-0.9,0.5-1.5,1.3c-0.4,0.5-0.9,0.6-1.1,0.6
		c-0.2,0-0.4-0.2-0.4-0.4c0-0.2,0.1-0.6,0.3-1c0-0.1,0.5-1.3,0.9-3.3c0.1-0.2,0.5-0.6,0.6-0.5c0.4,0,2.6,0.1,4.7,0.1
		C1082,585.4,1082.6,585.5,1083.2,585.4z"/>
</g>
<g>
	<path class="tolur" d="M1287.6,596.4c0-1.7,1.2-2.2,2.7-3.1c0.1-0.1,0-0.2-0.1-0.3c-1.3-1-2.1-2.1-2.1-3.7c0-2.6,2.7-4.2,5.1-4.2
		c2.8,0,4.6,1.8,4.6,3.8c0,1.3-1,2.2-2.1,2.8c-0.1,0-0.1,0.2,0,0.3c2.3,1.4,2.7,2.7,2.7,4c0,1.2-0.9,2.4-1.7,3c-1.3,1-2.7,1.3-4,1.3
		C1289.3,600.1,1287.6,598,1287.6,596.4z M1295,597c0-1.3-1.5-2.5-3.1-3.1c-0.1-0.1-0.4,0-0.5,0c-0.6,0.4-0.8,1.2-0.8,1.9
		c0,1.6,1.2,3,2.6,3C1294,598.8,1295,598.3,1295,597z M1291.2,587.9c0,1.6,1.5,2.4,2.6,2.9c0.2,0.1,0.6,0.1,0.6,0.1
		c0.5-0.4,0.6-0.9,0.6-1.7c0-1.5-0.9-3-2.4-3C1291.4,586.1,1291.2,587.3,1291.2,587.9z"/>
</g>
<g>
	<path class="tolur" d="M1543.2,598.7c1-0.3,1.2-0.4,1.3-1.6c0.1-1.3,0.1-2.5,0.1-5.1c0-3.3,0-3.2,0-3.7c0-0.2-0.3-0.5-0.5-0.5
		c-0.1-0.1-0.3-0.1-0.6-0.1c-0.6-0.1-0.8-0.4-0.8-0.5c0-0.2,0.2-0.6,0.6-0.8c1-0.3,3.1-0.7,3.9-1.1c0.5-0.2,0.8-0.3,0.8-0.3
		c0.1,0,0.4,0.3,0.4,0.4c0,0.4-0.1,1.7-0.1,3.9c0,1.7,0,6.3,0,7.1c0,1.7,0.2,1.9,1.2,2.2c0.4,0.1,0.8,0.3,0.8,0.7
		c0,0.3-0.3,0.6-0.9,0.6c-1.1,0-1.7-0.1-2.5-0.1c-1.6,0-3.4,0.2-3.7,0.2c-0.5,0-1-0.2-1-0.6C1542.3,599,1542.6,598.8,1543.2,598.7z"
		/>
	<path class="tolur" d="M1565.6,592.3c0,4.1-1.8,7.7-5.9,7.7c-4.5,0-5.9-4.5-5.9-7.4c0-4.1,1.9-7.7,6-7.7
		C1564.3,585,1565.6,589.3,1565.6,592.3z M1558.4,587.1c-0.4,0.7-0.7,2.2-0.7,4.9c0,5,1.2,6.8,2.3,6.8c0.6,0,0.9-0.4,1.1-0.9
		c0.3-0.7,0.5-1.6,0.5-5.1c0-2.4-0.5-6.5-2.2-6.5C1559,586.2,1558.7,586.6,1558.4,587.1z"/>
</g>
<g>
	<path class="tolur" d="M1791.7,598.7c1-0.3,1.2-0.4,1.3-1.6c0.1-1.3,0.1-2.5,0.1-5.1c0-3.3,0-3.2,0-3.7c0-0.2-0.3-0.5-0.5-0.5
		c-0.1-0.1-0.3-0.1-0.6-0.1c-0.6-0.1-0.8-0.4-0.8-0.5c0-0.2,0.2-0.6,0.6-0.8c1-0.3,3.1-0.7,3.9-1.1c0.5-0.2,0.8-0.3,0.8-0.3
		c0.1,0,0.4,0.3,0.4,0.4c0,0.4-0.1,1.7-0.1,3.9c0,1.7,0,6.3,0,7.1c0,1.7,0.2,1.9,1.2,2.2c0.4,0.1,0.8,0.3,0.8,0.7
		c0,0.3-0.3,0.6-0.9,0.6c-1.1,0-1.7-0.1-2.5-0.1c-1.6,0-3.4,0.2-3.7,0.2c-0.5,0-1-0.2-1-0.6C1790.8,599,1791.1,598.8,1791.7,598.7z"
		/>
	<path class="tolur" d="M1802.3,599.3c0-0.1,0.1-0.6,0.4-0.8c1.3-1,3.1-2.5,4.5-4.1c0.6-0.7,1.5-2.1,1.5-3.9c0-1.8-1.1-2.8-2.6-2.8
		c-1,0-1.8,0.6-2.4,1.1c-0.2,0.1-0.5,0.3-0.7,0.3c-0.2,0-0.5-0.3-0.5-0.5c0-0.2,0.1-0.5,0.4-0.9c1.2-1.5,2.6-2.8,4.9-2.8
		c2.6,0,4.7,1.8,4.7,4.5c0,1.2-0.4,2.4-2,4c-1.3,1.2-2.3,2.1-3.4,3.1c-0.1,0.1,0,0.2,0.1,0.2c0.3,0.2,1.3,0.2,3.3,0.2
		c0.2,0,0.9,0,1.1-0.1c0.5-0.1,0.7-0.3,1.3-0.8c0.2-0.2,0.7-0.7,0.9-0.7c0.4,0,0.8,0.6,0.5,1c-0.7,1.3-1.2,3.1-1.3,3.3
		c0,0.1-0.2,0.2-0.4,0.2c-0.1,0-5.1-0.1-6.5-0.1h-2.7C1802.7,599.8,1802.3,599.5,1802.3,599.3z"/>
</g>
<g>
	<path class="tolur" d="M1967.3,598.7c1-0.3,1.2-0.4,1.3-1.6c0.1-1.3,0.1-2.5,0.1-5.1c0-3.3,0-3.2,0-3.7c0-0.2-0.3-0.5-0.5-0.5
		c-0.1-0.1-0.3-0.1-0.6-0.1c-0.6-0.1-0.8-0.4-0.8-0.5c0-0.2,0.2-0.6,0.6-0.8c1-0.3,3.1-0.7,3.9-1.1c0.5-0.2,0.8-0.3,0.8-0.3
		c0.1,0,0.4,0.3,0.4,0.4c0,0.4-0.1,1.7-0.1,3.9c0,1.7,0,6.3,0,7.1c0,1.7,0.2,1.9,1.2,2.2c0.4,0.1,0.8,0.3,0.8,0.7
		c0,0.3-0.3,0.6-0.9,0.6c-1.1,0-1.7-0.1-2.5-0.1c-1.6,0-3.4,0.2-3.7,0.2c-0.5,0-1-0.2-1-0.6C1966.5,599,1966.8,598.8,1967.3,598.7z"
		/>
	<path class="tolur" d="M1988,593.7c0,0.1,0.2,0.4,0.3,0.4l2.1,0c0.1,0,0.3,0.3,0.3,0.4c0,0.4-0.1,1.3-0.5,1.3l-2,0
		c-0.1,0-0.2,0.2-0.2,0.2c0,0.2-0.1,1,0,1.4c0.1,0.9,0.2,1,1.1,1.3c0.5,0.2,0.8,0.4,0.8,0.7c0,0.3-0.4,0.6-0.9,0.6
		c-0.6,0-2.8-0.1-3.6-0.1c-1.2,0-1.5,0.1-2.5,0.1c-0.4,0-0.9-0.1-0.9-0.6c0-0.2,0.4-0.5,0.7-0.6c1.4-0.4,1.4-0.7,1.4-1.5
		c0.1-0.4,0.1-1,0-1.2c0-0.1-0.1-0.2-0.2-0.2c-2.5,0-4.3,0-6,0.1c-0.2,0-0.7-0.4-0.7-0.6c0-0.3,0.3-0.8,0.6-1.2l7.8-10
		c0.1-0.1,0.6-0.4,0.8-0.4c0.4,0,0.9,0.1,1.1,0.1c0.1,0,0.3,0.5,0.1,0.7l-7.6,9.3c-0.1,0.1,0,0.3,0.1,0.3c0.5,0.1,2.6,0.1,3.6,0.1
		c0.1,0,0.2-0.1,0.2-0.3l0.1-3.3c0-0.3,0.1-0.5,0.3-0.6c0.3-0.2,2.4-0.9,2.8-0.9c0.2,0,0.6,0.3,0.6,0.4V593.7z"/>
</g>
<g>
	<path class="tolur" d="M2138,598.7c1-0.3,1.2-0.4,1.3-1.6c0.1-1.3,0.1-2.5,0.1-5.1c0-3.3,0-3.2,0-3.7c0-0.2-0.3-0.5-0.5-0.5
		c-0.1-0.1-0.3-0.1-0.6-0.1c-0.6-0.1-0.8-0.4-0.8-0.5c0-0.2,0.2-0.6,0.6-0.8c1-0.3,3.1-0.7,3.9-1.1c0.5-0.2,0.8-0.3,0.8-0.3
		c0.1,0,0.4,0.3,0.4,0.4c0,0.4-0.1,1.7-0.1,3.9c0,1.7,0,6.3,0,7.1c0,1.7,0.2,1.9,1.2,2.2c0.4,0.1,0.8,0.3,0.8,0.7
		c0,0.3-0.3,0.6-0.9,0.6c-1.1,0-1.7-0.1-2.5-0.1c-1.6,0-3.4,0.2-3.7,0.2c-0.5,0-1-0.2-1-0.6C2137.2,599,2137.5,598.8,2138,598.7z"/>
	<path class="tolur" d="M2157.8,599.6c-1.7,1.3-4.5,2.1-6.8,2.1c-0.4,0-1.2-0.1-1.2-0.7c0-0.3,0.5-0.6,0.8-0.6
		c3.8-0.5,5.7-2.2,5.7-3.6c0-0.9-0.4-1.6-1.5-2.1c-1.1-0.5-3-0.9-4.9-1.2c-0.2,0-0.6-0.8-0.6-1.2c0-0.9,1.2-4.6,1.6-5.5
		c0.1-0.2,0.6-0.8,0.9-0.8c0.6-0.2,4.8-1,7-1c0.1,0,0.3,0.5,0.3,0.6c0,1.2-1.2,2.7-1.8,2.8c-1.5,0.1-4.2,0.1-5.1,0.2
		c-0.2,0-0.5,0.4-0.5,0.5c-0.1,0.2-0.1,0.3-0.2,0.6c0,0.1,0.1,0.5,0.3,0.5c1.6,0.3,4,0.8,5.4,1.4c2,1,2.8,2.5,2.8,4
		C2160,597.5,2158.9,598.7,2157.8,599.6z"/>
</g>
<g>
	<path class="tolur" d="M2399.3,598.7c1-0.3,1.2-0.4,1.3-1.6c0.1-1.3,0.1-2.5,0.1-5.1c0-3.3,0-3.2,0-3.7c0-0.2-0.3-0.5-0.5-0.5
		c-0.1-0.1-0.3-0.1-0.6-0.1c-0.6-0.1-0.8-0.4-0.8-0.5c0-0.2,0.2-0.6,0.6-0.8c1-0.3,3.1-0.7,3.9-1.1c0.5-0.2,0.8-0.3,0.8-0.3
		c0.1,0,0.4,0.3,0.4,0.4c0,0.4-0.1,1.7-0.1,3.9c0,1.7,0,6.3,0,7.1c0,1.7,0.2,1.9,1.2,2.2c0.4,0.1,0.8,0.3,0.8,0.7
		c0,0.3-0.3,0.6-0.9,0.6c-1.1,0-1.7-0.1-2.5-0.1c-1.6,0-3.4,0.2-3.7,0.2c-0.5,0-1-0.2-1-0.6C2398.5,599,2398.8,598.8,2399.3,598.7z"
		/>
	<path class="tolur" d="M2420.1,585.4c0.7,0,1,0,1.1,0c0.2,0,0.6,0.5,0.6,0.6c0,0.1,0,0.2-0.1,0.3c-0.8,1.1-3.2,6-5.1,9.7
		c-1.4,2.7-2.4,4.9-2.6,5.3c-0.1,0.2-0.4,0.4-0.4,0.4c-0.7,0-1.3-0.4-1.4-0.9c0-0.2,0.3-0.8,0.5-1.1c2.5-4.4,3.8-6.8,5.7-10.6
		c0.1-0.1,0-0.3-0.1-0.4c-0.2-0.1-0.8-0.2-2.7-0.2c-1.2,0-2.5,0-3.2,0.1c-0.4,0-0.9,0.5-1.5,1.3c-0.4,0.5-0.9,0.6-1.1,0.6
		c-0.2,0-0.4-0.2-0.4-0.4c0-0.2,0.1-0.6,0.3-1c0-0.1,0.5-1.3,0.9-3.3c0.1-0.2,0.5-0.6,0.6-0.5c0.4,0,2.6,0.1,4.7,0.1
		C2418.9,585.4,2419.5,585.5,2420.1,585.4z"/>
</g>
<g>
	<path class="tolur" d="M2614.8,598.7c1-0.3,1.2-0.4,1.3-1.6c0.1-1.3,0.2-2.5,0.2-5.1c0-3.3,0-3.2,0-3.7c0-0.2-0.3-0.5-0.5-0.5
		c-0.1-0.1-0.3-0.1-0.6-0.1c-0.6-0.1-0.8-0.4-0.8-0.5c0-0.2,0.2-0.6,0.6-0.8c1-0.3,3.1-0.7,3.9-1.1c0.5-0.2,0.8-0.3,0.8-0.3
		c0.2,0,0.4,0.3,0.4,0.4c0,0.4-0.1,1.7-0.1,3.9c0,1.7,0,6.3,0,7.1c0,1.7,0.2,1.9,1.2,2.2c0.4,0.1,0.8,0.3,0.8,0.7
		c0,0.3-0.3,0.6-0.9,0.6c-1.1,0-1.7-0.1-2.5-0.1c-1.6,0-3.4,0.2-3.7,0.2c-0.5,0-1-0.2-1-0.6C2614,599,2614.3,598.8,2614.8,598.7z"/>
	<path class="tolur" d="M2637.3,591.2c0,3.4-2.4,7.3-6.7,9.5c-1.6,0.9-3.1,1.3-3.9,1.3c-0.2,0-0.9-0.1-0.9-0.5c0-0.1,0-0.4,0.6-0.7
		c5.2-2.7,6.9-6.6,6.9-9.7c0-1.6-0.5-4.9-2.9-4.9c-1.2,0-1.9,1.6-1.9,2.6c0,2.3,1.6,3.7,2.8,3.7c0.2,0,0.8-0.2,1-0.3
		c0.2-0.1,0.3,0.1,0.3,0.2c0,0.3-0.1,0.6-0.2,0.9c0,0.1-0.2,0.4-0.6,0.6c-0.7,0.5-1.9,0.9-2.4,0.9c-2.4,0-4.3-1.6-4.3-4.5
		c0-1.4,0.9-3.6,3.2-4.8c0.8-0.4,1.8-0.7,3-0.7C2635.1,584.9,2637.3,587.9,2637.3,591.2z"/>
</g>
<g>
	<path class="tolur" d="M2612,764.8c0-0.1,0.1-0.6,0.4-0.8c1.3-1,3.1-2.5,4.5-4.1c0.6-0.7,1.5-2.1,1.5-3.9c0-1.8-1.1-2.8-2.6-2.8
		c-1,0-1.8,0.6-2.4,1.1c-0.2,0.1-0.5,0.3-0.7,0.3c-0.2,0-0.5-0.3-0.5-0.5c0-0.2,0.2-0.5,0.4-0.9c1.2-1.5,2.6-2.8,4.9-2.8
		c2.6,0,4.7,1.8,4.7,4.5c0,1.2-0.4,2.4-2,4c-1.3,1.2-2.3,2.1-3.4,3.1c-0.1,0.1,0,0.2,0.1,0.2c0.3,0.2,1.3,0.2,3.3,0.2
		c0.2,0,0.9,0,1.1-0.1c0.5-0.1,0.7-0.3,1.3-0.8c0.2-0.2,0.7-0.7,0.9-0.7c0.4,0,0.8,0.6,0.5,1c-0.7,1.3-1.2,3.1-1.3,3.3
		c0,0.1-0.2,0.2-0.4,0.2c-0.1,0-5.1-0.1-6.5-0.1h-2.7C2612.3,765.3,2612,765,2612,764.8z"/>
	<path class="tolur" d="M2637.3,757.8c0,4.1-1.8,7.7-5.9,7.7c-4.5,0-5.9-4.5-5.9-7.4c0-4.1,1.9-7.7,6-7.7
		C2635.9,750.5,2637.3,754.8,2637.3,757.8z M2630.1,752.6c-0.4,0.7-0.7,2.2-0.7,4.9c0,5,1.2,6.8,2.3,6.8c0.6,0,0.9-0.4,1.1-0.9
		c0.3-0.7,0.5-1.6,0.5-5.1c0-2.4-0.5-6.5-2.2-6.5C2630.6,751.7,2630.3,752.1,2630.1,752.6z"/>
</g>
<g>
	<path class="tolur" d="M3000.7,765c0-0.1,0.1-0.6,0.4-0.8c1.3-1,3.1-2.5,4.5-4.1c0.6-0.7,1.5-2.1,1.5-3.9c0-1.8-1.1-2.8-2.6-2.8
		c-1,0-1.8,0.6-2.4,1.1c-0.2,0.1-0.5,0.3-0.7,0.3c-0.2,0-0.5-0.3-0.5-0.5c0-0.2,0.1-0.5,0.4-0.9c1.2-1.5,2.6-2.8,4.9-2.8
		c2.6,0,4.7,1.8,4.7,4.5c0,1.2-0.4,2.4-2,4c-1.3,1.2-2.3,2.1-3.4,3.1c-0.1,0.1,0,0.2,0.1,0.2c0.3,0.2,1.3,0.2,3.3,0.2
		c0.2,0,0.9,0,1.1-0.1c0.5-0.1,0.7-0.3,1.3-0.8c0.2-0.2,0.7-0.7,0.9-0.7c0.4,0,0.8,0.6,0.5,1c-0.7,1.3-1.2,3.1-1.3,3.3
		c0,0.1-0.2,0.2-0.4,0.2c-0.1,0-5.1-0.1-6.5-0.1h-2.7C3001,765.5,3000.7,765.2,3000.7,765z"/>
	<path class="tolur" d="M3017,764.4c1-0.3,1.2-0.4,1.3-1.6c0.1-1.3,0.1-2.5,0.1-5.1c0-3.3,0-3.2,0-3.7c0-0.2-0.3-0.5-0.5-0.5
		c-0.1-0.1-0.3-0.1-0.6-0.1c-0.6-0.1-0.8-0.4-0.8-0.5c0-0.2,0.2-0.6,0.6-0.8c1-0.3,3.1-0.7,3.9-1.1c0.5-0.2,0.8-0.3,0.8-0.3
		c0.1,0,0.4,0.3,0.4,0.4c0,0.4-0.1,1.7-0.1,3.9c0,1.7,0,6.3,0,7.1c0,1.7,0.2,1.9,1.2,2.2c0.4,0.1,0.8,0.3,0.8,0.7
		c0,0.3-0.3,0.6-0.9,0.6c-1.1,0-1.7-0.1-2.5-0.1c-1.6,0-3.4,0.2-3.7,0.2c-0.5,0-1-0.2-1-0.6C3016.2,764.8,3016.5,764.5,3017,764.4z"
		/>
</g>
<g>
	<path class="tolur" d="M3143.4,765c0-0.1,0.1-0.6,0.4-0.8c1.3-1,3.1-2.5,4.5-4.1c0.6-0.7,1.5-2.1,1.5-3.9c0-1.8-1.1-2.8-2.6-2.8
		c-1,0-1.8,0.6-2.4,1.1c-0.2,0.1-0.5,0.3-0.7,0.3c-0.2,0-0.5-0.3-0.5-0.5c0-0.2,0.1-0.5,0.4-0.9c1.2-1.5,2.6-2.8,4.9-2.8
		c2.6,0,4.7,1.8,4.7,4.5c0,1.2-0.4,2.4-2,4c-1.3,1.2-2.3,2.1-3.4,3.1c-0.1,0.1,0,0.2,0.1,0.2c0.3,0.2,1.3,0.2,3.3,0.2
		c0.2,0,0.9,0,1.1-0.1c0.5-0.1,0.7-0.3,1.3-0.8c0.2-0.2,0.7-0.7,0.9-0.7c0.4,0,0.8,0.6,0.5,1c-0.7,1.3-1.2,3.1-1.3,3.3
		c0,0.1-0.2,0.2-0.4,0.2c-0.1,0-5.1-0.1-6.5-0.1h-2.7C3143.7,765.5,3143.4,765.2,3143.4,765z"/>
	<path class="tolur" d="M3156.9,765c0-0.1,0.1-0.6,0.4-0.8c1.3-1,3.1-2.5,4.5-4.1c0.6-0.7,1.5-2.1,1.5-3.9c0-1.8-1.1-2.8-2.6-2.8
		c-1,0-1.8,0.6-2.4,1.1c-0.2,0.1-0.5,0.3-0.7,0.3c-0.2,0-0.5-0.3-0.5-0.5c0-0.2,0.1-0.5,0.4-0.9c1.2-1.5,2.6-2.8,4.9-2.8
		c2.6,0,4.7,1.8,4.7,4.5c0,1.2-0.4,2.4-2,4c-1.3,1.2-2.3,2.1-3.4,3.1c-0.1,0.1,0,0.2,0.1,0.2c0.3,0.2,1.3,0.2,3.3,0.2
		c0.2,0,0.9,0,1.1-0.1c0.5-0.1,0.7-0.3,1.3-0.8c0.2-0.2,0.7-0.7,0.9-0.7c0.4,0,0.8,0.6,0.5,1c-0.7,1.3-1.2,3.1-1.3,3.3
		c0,0.1-0.2,0.2-0.4,0.2c-0.1,0-5.1-0.1-6.5-0.1h-2.7C3157.2,765.5,3156.9,765.2,3156.9,765z"/>
</g>
<g>
	<path class="tolur" d="M3286.2,765c0-0.1,0.1-0.6,0.4-0.8c1.3-1,3.1-2.5,4.5-4.1c0.6-0.7,1.5-2.1,1.5-3.9c0-1.8-1.1-2.8-2.6-2.8
		c-1,0-1.8,0.6-2.4,1.1c-0.2,0.1-0.5,0.3-0.7,0.3c-0.2,0-0.5-0.3-0.5-0.5c0-0.2,0.1-0.5,0.4-0.9c1.2-1.5,2.6-2.8,4.9-2.8
		c2.6,0,4.7,1.8,4.7,4.5c0,1.2-0.4,2.4-2,4c-1.3,1.2-2.3,2.1-3.4,3.1c-0.1,0.1,0,0.2,0.1,0.2c0.3,0.2,1.3,0.2,3.3,0.2
		c0.2,0,0.9,0,1.1-0.1c0.5-0.1,0.7-0.3,1.3-0.8c0.2-0.2,0.7-0.7,0.9-0.7c0.4,0,0.8,0.6,0.5,1c-0.7,1.3-1.2,3.1-1.3,3.3
		c0,0.1-0.2,0.2-0.4,0.2c-0.1,0-5.1-0.1-6.5-0.1h-2.7C3286.5,765.5,3286.2,765.2,3286.2,765z"/>
	<path class="tolur" d="M3309.6,754c0,1.2-0.7,2.1-2.3,3.2c-0.1,0,0.1,0.2,0.1,0.2c2.3,0.6,3.6,1.6,3.6,3.9c0,2-1.6,4.1-4.6,5.4
		c-1.2,0.5-2.1,0.7-3.1,0.7c-1.7,0-3.4-0.6-3.4-1.6c0-0.4,1-1.4,1.2-1.5c0.1,0,0.5,0,0.6,0.1c0.8,0.6,1.8,1.5,2.9,1.5
		c1.2,0,2.5-1,2.5-3.3c0-2.1-1.6-3.2-3.2-3.2c-0.4,0-1.1,0.1-1.4,0.1c-0.1,0-0.4-0.2-0.4-0.4c0-0.4,0.8-1.1,1.1-1.2
		c2.7-0.9,3.1-1.8,3.1-2.9c0-0.7-0.6-2-2.1-2c-1,0-2,0.6-2.7,1.3c-0.4,0.3-0.6,0.5-0.8,0.5c-0.4,0-0.6-0.6-0.4-1
		c0.9-1.9,3-3.2,5.1-3.2C3308,750.6,3309.6,752.4,3309.6,754z"/>
</g>
<g>
	<path class="tolur" d="M2399.4,764.6c1-0.3,1.2-0.4,1.3-1.6c0.1-1.3,0.1-2.5,0.1-5.1c0-3.3,0-3.2,0-3.7c0-0.2-0.3-0.5-0.5-0.5
		c-0.2-0.1-0.3-0.1-0.6-0.1c-0.6-0.1-0.8-0.4-0.8-0.5c0-0.2,0.2-0.6,0.6-0.8c1-0.3,3.1-0.8,3.9-1.1c0.5-0.2,0.8-0.3,0.8-0.3
		c0.1,0,0.4,0.3,0.4,0.4c0,0.4-0.1,1.7-0.1,3.9c0,1.7,0,6.3,0,7.1c0,1.8,0.2,1.9,1.2,2.2c0.4,0.1,0.8,0.3,0.8,0.7
		c0,0.3-0.3,0.6-0.9,0.6c-1.1,0-1.7-0.1-2.5-0.1c-1.6,0-3.4,0.2-3.7,0.2c-0.5,0-1-0.2-1-0.6C2398.5,764.9,2398.8,764.7,2399.4,764.6
		z"/>
	<path class="tolur" d="M2410.4,762.3c0-1.7,1.2-2.2,2.7-3.1c0.1-0.1,0-0.2-0.1-0.3c-1.3-1-2.1-2.1-2.1-3.7c0-2.6,2.7-4.2,5.1-4.2
		c2.8,0,4.6,1.8,4.6,3.8c0,1.3-1,2.2-2.2,2.8c-0.1,0-0.1,0.2,0,0.3c2.3,1.4,2.8,2.7,2.8,4c0,1.2-0.9,2.4-1.7,3c-1.3,1-2.7,1.3-4,1.3
		C2412.2,766,2410.4,763.9,2410.4,762.3z M2417.9,762.9c0-1.3-1.5-2.5-3.1-3.1c-0.2,0-0.4,0-0.5,0c-0.6,0.4-0.8,1.2-0.8,1.9
		c0,1.6,1.2,3,2.6,3C2416.9,764.7,2417.9,764.2,2417.9,762.9z M2414.1,753.8c0,1.6,1.5,2.4,2.6,2.9c0.2,0.1,0.6,0.1,0.6,0.1
		c0.5-0.4,0.7-1,0.7-1.8c0-1.5-0.9-3-2.4-3C2414.3,752,2414.1,753.2,2414.1,753.8z"/>
</g>
<g>
	<path class="tolur" d="M1792.2,764.8c1-0.3,1.2-0.4,1.3-1.6c0.1-1.3,0.1-2.5,0.1-5.1c0-3.3,0-3.2,0-3.7c0-0.2-0.3-0.5-0.5-0.5
		c-0.1-0.1-0.3-0.1-0.6-0.1c-0.6-0.1-0.8-0.4-0.8-0.5c0-0.2,0.2-0.6,0.6-0.8c1-0.3,3.1-0.7,3.9-1.1c0.5-0.2,0.8-0.3,0.8-0.3
		c0.1,0,0.4,0.3,0.4,0.4c0,0.4-0.1,1.7-0.1,3.9c0,1.7,0,6.3,0,7.1c0,1.7,0.2,1.9,1.2,2.2c0.4,0.1,0.8,0.3,0.8,0.7
		c0,0.3-0.3,0.6-0.9,0.6c-1.1,0-1.7-0.1-2.5-0.1c-1.6,0-3.4,0.2-3.7,0.2c-0.5,0-1-0.2-1-0.6C1791.3,765.2,1791.6,765,1792.2,764.8z"
		/>
	<path class="tolur" d="M1812.8,754.5c0,1.2-0.7,2.1-2.3,3.2c-0.1,0,0.1,0.2,0.1,0.2c2.3,0.6,3.6,1.6,3.6,3.9c0,2-1.6,4.1-4.6,5.4
		c-1.2,0.5-2.1,0.7-3.1,0.7c-1.7,0-3.4-0.6-3.4-1.6c0-0.4,1-1.4,1.2-1.5c0.1,0,0.5,0,0.6,0.1c0.8,0.6,1.8,1.5,2.9,1.5
		c1.2,0,2.5-1,2.5-3.3c0-2.1-1.6-3.2-3.2-3.2c-0.4,0-1.1,0.1-1.4,0.1c-0.1,0-0.4-0.2-0.4-0.4c0-0.4,0.8-1.1,1.1-1.2
		c2.7-0.9,3.1-1.8,3.1-2.9c0-0.7-0.6-2-2.1-2c-1,0-2,0.6-2.7,1.3c-0.4,0.3-0.6,0.5-0.8,0.5c-0.4,0-0.6-0.6-0.4-1
		c0.9-1.9,3-3.2,5.1-3.2C1811.2,751.1,1812.8,752.9,1812.8,754.5z"/>
</g>
<g>
	<path class="tolur" d="M2138.2,764.8c1-0.3,1.2-0.4,1.3-1.6c0.1-1.3,0.2-2.5,0.2-5.1c0-3.3,0-3.2,0-3.7c0-0.2-0.3-0.5-0.5-0.5
		c-0.1-0.1-0.3-0.1-0.6-0.1c-0.6-0.1-0.8-0.4-0.8-0.5c0-0.2,0.2-0.6,0.6-0.8c1-0.3,3.1-0.7,3.9-1.1c0.5-0.2,0.8-0.3,0.8-0.3
		c0.2,0,0.4,0.3,0.4,0.4c0,0.4-0.1,1.7-0.1,3.9c0,1.7,0,6.3,0,7.1c0,1.7,0.2,1.9,1.2,2.2c0.4,0.1,0.8,0.3,0.8,0.7
		c0,0.3-0.3,0.6-0.9,0.6c-1.1,0-1.7-0.1-2.5-0.1c-1.6,0-3.4,0.2-3.7,0.2c-0.5,0-1-0.2-1-0.6C2137.4,765.2,2137.7,765,2138.2,764.8z"
		/>
	<path class="tolur" d="M2160.8,760.7c0,2.1-1,3.4-2.5,4.4c-1,0.7-2.4,1.1-3.6,1.1c-4.2,0-5.9-2.9-5.9-5.8c0-3.9,3.2-7.4,6.5-9.1
		c1.9-1,3.5-1.4,4.8-1.4c0.6,0,1,0.2,1,0.7c0,0.3-0.4,0.4-0.8,0.6c-4.2,1.5-7.5,5.6-7.5,9.3c0,3,1.6,4.3,3,4.3c1.1,0,1.9-1,1.9-2.4
		c0-1.7-0.8-3.3-2.6-3.3c-0.3,0-1.1,0.2-1.1,0.2c-0.2,0.1-0.4-0.2-0.4-0.4c0-0.2,0.1-0.8,0.4-1c0.3-0.2,0.8-0.5,1.3-0.8
		c0.5-0.2,1.2-0.5,1.8-0.5C2159.7,756.6,2160.8,759.1,2160.8,760.7z"/>
</g>
<g>
	<path class="tolur" d="M1544.5,764.7c1-0.3,1.2-0.4,1.3-1.6c0.1-1.3,0.1-2.5,0.1-5.1c0-3.3,0-3.2,0-3.7c0-0.2-0.3-0.5-0.5-0.5
		c-0.1-0.1-0.3-0.1-0.6-0.1c-0.6-0.1-0.8-0.4-0.8-0.5c0-0.2,0.2-0.6,0.6-0.8c1-0.3,3.1-0.7,3.9-1.1c0.5-0.2,0.8-0.3,0.8-0.3
		c0.1,0,0.4,0.3,0.4,0.4c0,0.4-0.1,1.7-0.1,3.9c0,1.7,0,6.3,0,7.1c0,1.7,0.2,1.9,1.2,2.2c0.4,0.1,0.8,0.3,0.8,0.7
		c0,0.3-0.3,0.6-0.9,0.6c-1.1,0-1.7-0.1-2.5-0.1c-1.6,0-3.4,0.2-3.7,0.2c-0.5,0-1-0.2-1-0.6C1543.7,765,1544,764.8,1544.5,764.7z"/>
	<path class="tolur" d="M1556.5,764.7c1-0.3,1.2-0.4,1.3-1.6c0.1-1.3,0.1-2.5,0.1-5.1c0-3.3,0-3.2,0-3.7c0-0.2-0.3-0.5-0.5-0.5
		c-0.1-0.1-0.3-0.1-0.6-0.1c-0.6-0.1-0.8-0.4-0.8-0.5c0-0.2,0.2-0.6,0.6-0.8c1-0.3,3.1-0.7,3.9-1.1c0.5-0.2,0.8-0.3,0.8-0.3
		c0.1,0,0.4,0.3,0.4,0.4c0,0.4-0.1,1.7-0.1,3.9c0,1.7,0,6.3,0,7.1c0,1.7,0.2,1.9,1.2,2.2c0.4,0.1,0.8,0.3,0.8,0.7
		c0,0.3-0.3,0.6-0.9,0.6c-1.1,0-1.7-0.1-2.5-0.1c-1.6,0-3.4,0.2-3.7,0.2c-0.5,0-1-0.2-1-0.6C1555.7,765,1556,764.8,1556.5,764.7z"/>
</g>
<g>
	<path class="tolur" d="M1298.9,757.2c0,3.4-2.4,7.3-6.7,9.5c-1.6,0.9-3.1,1.3-3.9,1.3c-0.2,0-0.9-0.1-0.9-0.5c0-0.1,0-0.4,0.6-0.7
		c5.2-2.7,6.9-6.6,6.9-9.7c0-1.6-0.5-4.9-2.9-4.9c-1.2,0-1.9,1.6-1.9,2.6c0,2.3,1.6,3.7,2.8,3.7c0.2,0,0.8-0.2,1-0.3
		c0.2-0.1,0.3,0.1,0.3,0.2c0,0.3-0.1,0.6-0.2,0.9c0,0.1-0.2,0.4-0.6,0.6c-0.7,0.5-1.9,0.9-2.4,0.9c-2.4,0-4.3-1.6-4.3-4.5
		c0-1.4,0.9-3.6,3.2-4.8c0.8-0.4,1.8-0.7,3-0.7C1296.8,750.9,1298.9,753.9,1298.9,757.2z"/>
</g>
<g>
	<path class="tolur" d="M804.2,760.5c0,2.1-1,3.4-2.5,4.4c-1,0.7-2.4,1.1-3.6,1.1c-4.2,0-5.9-2.9-5.9-5.8c0-3.9,3.2-7.4,6.5-9.1
		c1.9-1,3.5-1.4,4.8-1.4c0.6,0,1,0.2,1,0.7c0,0.3-0.4,0.4-0.8,0.6c-4.2,1.5-7.5,5.6-7.5,9.3c0,3,1.6,4.3,3,4.3c1.1,0,1.9-1,1.9-2.4
		c0-1.7-0.8-3.3-2.6-3.3c-0.3,0-1.1,0.2-1.1,0.2c-0.2,0.1-0.4-0.2-0.4-0.4c0-0.2,0.1-0.8,0.4-1c0.3-0.2,0.8-0.5,1.3-0.8
		c0.5-0.2,1.2-0.5,1.8-0.5C803.2,756.4,804.2,758.9,804.2,760.5z"/>
</g>
<g>
	<path class="tolur" d="M399.5,759.6c0,0.1,0.2,0.4,0.3,0.4l2.1,0c0.1,0,0.3,0.3,0.3,0.4c0,0.4-0.1,1.3-0.5,1.3l-2,0
		c-0.1,0-0.2,0.2-0.2,0.2c0,0.2-0.1,1,0,1.4c0.1,0.9,0.2,1,1.1,1.3c0.5,0.2,0.8,0.4,0.8,0.7c0,0.3-0.4,0.6-0.9,0.6
		c-0.6,0-2.8-0.1-3.6-0.1c-1.2,0-1.5,0.1-2.5,0.1c-0.4,0-0.9-0.1-0.9-0.6c0-0.2,0.4-0.5,0.7-0.6c1.4-0.4,1.4-0.7,1.4-1.5
		c0.1-0.4,0.1-1,0-1.2c0-0.1-0.1-0.2-0.2-0.2c-2.5,0-4.3,0-6,0.1c-0.2,0-0.7-0.4-0.7-0.6c0-0.3,0.3-0.8,0.6-1.2l7.8-10
		c0.1-0.1,0.6-0.4,0.8-0.4c0.4,0,0.9,0.1,1.1,0.1c0.1,0,0.3,0.5,0.1,0.7l-7.6,9.3c-0.1,0.1,0,0.3,0.1,0.3c0.5,0.1,2.6,0.1,3.6,0.1
		c0.1,0,0.2-0.1,0.2-0.3l0.1-3.3c0-0.3,0.1-0.5,0.3-0.6c0.3-0.2,2.4-0.9,2.8-0.9c0.2,0,0.6,0.3,0.6,0.4V759.6z"/>
</g>
</svg>
