<?xml version="1.0" encoding="utf-8"?>
<!-- Generator: Adobe Illustrator 23.0.6, SVG Export Plug-In . SVG Version: 6.00 Build 0)  -->
<svg version="1.1" id="Gluggarammi" xmlns="http://www.w3.org/2000/svg" xmlns:xlink="http://www.w3.org/1999/xlink" x="0px"
	 y="0px" viewBox="0 0 3908.2 1080" style="enable-background:new 0 0 3908.2 1080;" xml:space="preserve">
<style type="text/css">
	.st0{fill:#3F68C4;}
</style>
<g>
	<rect x="325.1" y="578.3" class="st0" width="84.2" height="91.6"/>
</g>
<g>
	<rect x="729.1" y="578.3" class="st0" width="84.2" height="91.6"/>
</g>
<g>
	<rect x="1009" y="578.3" class="st0" width="84.2" height="91.6"/>
</g>
<g>
	<rect x="1222.6" y="744.3" class="st0" width="84.2" height="91.6"/>
</g>
<g>
	<rect x="1490.9" y="744.3" class="st0" width="84.2" height="91.6"/>
</g>
<g>
	<rect x="728.9" y="744.4" class="st0" width="84.2" height="91.6"/>
</g>
<g>
	<rect x="325.1" y="744.4" class="st0" width="84.2" height="91.6"/>
</g>
<g>
	<rect x="149.5" y="744.4" class="st0" width="84.2" height="91.6"/>
</g>
<g>
	<rect x="1222.8" y="578.3" class="st0" width="84.2" height="91.6"/>
</g>
<g>
	<rect x="1490.8" y="578.3" class="st0" width="84.2" height="91.6"/>
</g>
<g>
	<rect x="1739.8" y="578.3" class="st0" width="84.2" height="91.6"/>
</g>
<g>
	<rect x="1915.2" y="578.3" class="st0" width="84.2" height="91.6"/>
</g>
<g>
	<rect x="2085.9" y="578.3" class="st0" width="84.2" height="91.6"/>
</g>
<g>
	<rect x="1739.9" y="744.3" class="st0" width="84.2" height="91.6"/>
</g>
<g>
	<rect x="2085.7" y="744.3" class="st0" width="84.2" height="91.6"/>
</g>
<g>
	<rect x="2347.1" y="578.3" class="st0" width="84.2" height="91.6"/>
</g>
<g>
	<rect x="2347.1" y="744.3" class="st0" width="84.2" height="91.6"/>
</g>
<g>
	<rect x="2562.3" y="578.3" class="st0" width="84.2" height="91.6"/>
</g>
<g>
	<rect x="2562.3" y="744.3" class="st0" width="84.2" height="91.6"/>
</g>
<g>
	<rect x="2951.3" y="744.3" class="st0" width="84.2" height="91.6"/>
</g>
<g>
	<rect x="3093.8" y="744.3" class="st0" width="84.2" height="91.6"/>
</g>
<g>
	<rect x="3236.8" y="744.3" class="st0" width="84.2" height="91.6"/>
</g>
<g>
	<rect x="149.5" y="578.3" class="st0" width="84.2" height="91.6"/>
</g>
</svg>
